G75*
%MOIN*%
%OFA0B0*%
%FSLAX25Y25*%
%IPPOS*%
%LPD*%
%AMOC8*
5,1,8,0,0,1.08239X$1,22.5*
%
%ADD10C,0.00000*%
%ADD11R,0.03937X0.18110*%
%ADD12R,0.06299X0.13386*%
%ADD13C,0.07400*%
%ADD14R,0.05315X0.02362*%
%ADD15R,0.07874X0.04724*%
%ADD16R,0.02362X0.05315*%
%ADD17R,0.04724X0.07874*%
%ADD18C,0.00875*%
%ADD19R,0.03346X0.01102*%
%ADD20R,0.01102X0.03346*%
%ADD21R,0.06693X0.06693*%
%ADD22R,0.05000X0.06000*%
%ADD23R,0.03937X0.04528*%
%ADD24C,0.00750*%
%ADD25C,0.01000*%
%ADD26R,0.06220X0.11220*%
%ADD27C,0.00945*%
%ADD28R,0.00787X0.03051*%
%ADD29R,0.05906X0.09843*%
%ADD30R,0.06500X0.06500*%
%ADD31C,0.06500*%
%ADD32C,0.00160*%
%ADD33C,0.00600*%
%ADD34C,0.04756*%
%ADD35C,0.05000*%
%ADD36R,0.00787X0.03346*%
%ADD37R,0.07677X0.07677*%
%ADD38R,0.03937X0.00984*%
%ADD39C,0.04000*%
%ADD40C,0.02400*%
%ADD41C,0.00800*%
%ADD42C,0.01200*%
%ADD43C,0.01800*%
%ADD44C,0.03200*%
%ADD45C,0.02500*%
%ADD46C,0.02000*%
%ADD47C,0.02578*%
D10*
X0002050Y0007300D02*
X0002050Y0133284D01*
X0128034Y0133284D01*
X0128034Y0007300D01*
X0002050Y0007300D01*
X0007955Y0019111D02*
X0007957Y0019264D01*
X0007963Y0019418D01*
X0007973Y0019571D01*
X0007987Y0019723D01*
X0008005Y0019876D01*
X0008027Y0020027D01*
X0008052Y0020178D01*
X0008082Y0020329D01*
X0008116Y0020479D01*
X0008153Y0020627D01*
X0008194Y0020775D01*
X0008239Y0020921D01*
X0008288Y0021067D01*
X0008341Y0021211D01*
X0008397Y0021353D01*
X0008457Y0021494D01*
X0008521Y0021634D01*
X0008588Y0021772D01*
X0008659Y0021908D01*
X0008734Y0022042D01*
X0008811Y0022174D01*
X0008893Y0022304D01*
X0008977Y0022432D01*
X0009065Y0022558D01*
X0009156Y0022681D01*
X0009250Y0022802D01*
X0009348Y0022920D01*
X0009448Y0023036D01*
X0009552Y0023149D01*
X0009658Y0023260D01*
X0009767Y0023368D01*
X0009879Y0023473D01*
X0009993Y0023574D01*
X0010111Y0023673D01*
X0010230Y0023769D01*
X0010352Y0023862D01*
X0010477Y0023951D01*
X0010604Y0024038D01*
X0010733Y0024120D01*
X0010864Y0024200D01*
X0010997Y0024276D01*
X0011132Y0024349D01*
X0011269Y0024418D01*
X0011408Y0024483D01*
X0011548Y0024545D01*
X0011690Y0024603D01*
X0011833Y0024658D01*
X0011978Y0024709D01*
X0012124Y0024756D01*
X0012271Y0024799D01*
X0012419Y0024838D01*
X0012568Y0024874D01*
X0012718Y0024905D01*
X0012869Y0024933D01*
X0013020Y0024957D01*
X0013173Y0024977D01*
X0013325Y0024993D01*
X0013478Y0025005D01*
X0013631Y0025013D01*
X0013784Y0025017D01*
X0013938Y0025017D01*
X0014091Y0025013D01*
X0014244Y0025005D01*
X0014397Y0024993D01*
X0014549Y0024977D01*
X0014702Y0024957D01*
X0014853Y0024933D01*
X0015004Y0024905D01*
X0015154Y0024874D01*
X0015303Y0024838D01*
X0015451Y0024799D01*
X0015598Y0024756D01*
X0015744Y0024709D01*
X0015889Y0024658D01*
X0016032Y0024603D01*
X0016174Y0024545D01*
X0016314Y0024483D01*
X0016453Y0024418D01*
X0016590Y0024349D01*
X0016725Y0024276D01*
X0016858Y0024200D01*
X0016989Y0024120D01*
X0017118Y0024038D01*
X0017245Y0023951D01*
X0017370Y0023862D01*
X0017492Y0023769D01*
X0017611Y0023673D01*
X0017729Y0023574D01*
X0017843Y0023473D01*
X0017955Y0023368D01*
X0018064Y0023260D01*
X0018170Y0023149D01*
X0018274Y0023036D01*
X0018374Y0022920D01*
X0018472Y0022802D01*
X0018566Y0022681D01*
X0018657Y0022558D01*
X0018745Y0022432D01*
X0018829Y0022304D01*
X0018911Y0022174D01*
X0018988Y0022042D01*
X0019063Y0021908D01*
X0019134Y0021772D01*
X0019201Y0021634D01*
X0019265Y0021494D01*
X0019325Y0021353D01*
X0019381Y0021211D01*
X0019434Y0021067D01*
X0019483Y0020921D01*
X0019528Y0020775D01*
X0019569Y0020627D01*
X0019606Y0020479D01*
X0019640Y0020329D01*
X0019670Y0020178D01*
X0019695Y0020027D01*
X0019717Y0019876D01*
X0019735Y0019723D01*
X0019749Y0019571D01*
X0019759Y0019418D01*
X0019765Y0019264D01*
X0019767Y0019111D01*
X0019765Y0018958D01*
X0019759Y0018804D01*
X0019749Y0018651D01*
X0019735Y0018499D01*
X0019717Y0018346D01*
X0019695Y0018195D01*
X0019670Y0018044D01*
X0019640Y0017893D01*
X0019606Y0017743D01*
X0019569Y0017595D01*
X0019528Y0017447D01*
X0019483Y0017301D01*
X0019434Y0017155D01*
X0019381Y0017011D01*
X0019325Y0016869D01*
X0019265Y0016728D01*
X0019201Y0016588D01*
X0019134Y0016450D01*
X0019063Y0016314D01*
X0018988Y0016180D01*
X0018911Y0016048D01*
X0018829Y0015918D01*
X0018745Y0015790D01*
X0018657Y0015664D01*
X0018566Y0015541D01*
X0018472Y0015420D01*
X0018374Y0015302D01*
X0018274Y0015186D01*
X0018170Y0015073D01*
X0018064Y0014962D01*
X0017955Y0014854D01*
X0017843Y0014749D01*
X0017729Y0014648D01*
X0017611Y0014549D01*
X0017492Y0014453D01*
X0017370Y0014360D01*
X0017245Y0014271D01*
X0017118Y0014184D01*
X0016989Y0014102D01*
X0016858Y0014022D01*
X0016725Y0013946D01*
X0016590Y0013873D01*
X0016453Y0013804D01*
X0016314Y0013739D01*
X0016174Y0013677D01*
X0016032Y0013619D01*
X0015889Y0013564D01*
X0015744Y0013513D01*
X0015598Y0013466D01*
X0015451Y0013423D01*
X0015303Y0013384D01*
X0015154Y0013348D01*
X0015004Y0013317D01*
X0014853Y0013289D01*
X0014702Y0013265D01*
X0014549Y0013245D01*
X0014397Y0013229D01*
X0014244Y0013217D01*
X0014091Y0013209D01*
X0013938Y0013205D01*
X0013784Y0013205D01*
X0013631Y0013209D01*
X0013478Y0013217D01*
X0013325Y0013229D01*
X0013173Y0013245D01*
X0013020Y0013265D01*
X0012869Y0013289D01*
X0012718Y0013317D01*
X0012568Y0013348D01*
X0012419Y0013384D01*
X0012271Y0013423D01*
X0012124Y0013466D01*
X0011978Y0013513D01*
X0011833Y0013564D01*
X0011690Y0013619D01*
X0011548Y0013677D01*
X0011408Y0013739D01*
X0011269Y0013804D01*
X0011132Y0013873D01*
X0010997Y0013946D01*
X0010864Y0014022D01*
X0010733Y0014102D01*
X0010604Y0014184D01*
X0010477Y0014271D01*
X0010352Y0014360D01*
X0010230Y0014453D01*
X0010111Y0014549D01*
X0009993Y0014648D01*
X0009879Y0014749D01*
X0009767Y0014854D01*
X0009658Y0014962D01*
X0009552Y0015073D01*
X0009448Y0015186D01*
X0009348Y0015302D01*
X0009250Y0015420D01*
X0009156Y0015541D01*
X0009065Y0015664D01*
X0008977Y0015790D01*
X0008893Y0015918D01*
X0008811Y0016048D01*
X0008734Y0016180D01*
X0008659Y0016314D01*
X0008588Y0016450D01*
X0008521Y0016588D01*
X0008457Y0016728D01*
X0008397Y0016869D01*
X0008341Y0017011D01*
X0008288Y0017155D01*
X0008239Y0017301D01*
X0008194Y0017447D01*
X0008153Y0017595D01*
X0008116Y0017743D01*
X0008082Y0017893D01*
X0008052Y0018044D01*
X0008027Y0018195D01*
X0008005Y0018346D01*
X0007987Y0018499D01*
X0007973Y0018651D01*
X0007963Y0018804D01*
X0007957Y0018958D01*
X0007955Y0019111D01*
X0054771Y0118000D02*
X0054773Y0118081D01*
X0054779Y0118163D01*
X0054789Y0118244D01*
X0054803Y0118324D01*
X0054820Y0118403D01*
X0054842Y0118482D01*
X0054867Y0118559D01*
X0054896Y0118636D01*
X0054929Y0118710D01*
X0054966Y0118783D01*
X0055005Y0118854D01*
X0055049Y0118923D01*
X0055095Y0118990D01*
X0055145Y0119054D01*
X0055198Y0119116D01*
X0055254Y0119176D01*
X0055312Y0119232D01*
X0055374Y0119286D01*
X0055438Y0119337D01*
X0055504Y0119384D01*
X0055572Y0119428D01*
X0055643Y0119469D01*
X0055715Y0119506D01*
X0055790Y0119540D01*
X0055865Y0119570D01*
X0055943Y0119596D01*
X0056021Y0119619D01*
X0056100Y0119637D01*
X0056180Y0119652D01*
X0056261Y0119663D01*
X0056342Y0119670D01*
X0056424Y0119673D01*
X0056505Y0119672D01*
X0056586Y0119667D01*
X0056667Y0119658D01*
X0056748Y0119645D01*
X0056828Y0119628D01*
X0056906Y0119608D01*
X0056984Y0119583D01*
X0057061Y0119555D01*
X0057136Y0119523D01*
X0057209Y0119488D01*
X0057280Y0119449D01*
X0057350Y0119406D01*
X0057417Y0119361D01*
X0057483Y0119312D01*
X0057545Y0119260D01*
X0057605Y0119204D01*
X0057662Y0119146D01*
X0057717Y0119086D01*
X0057768Y0119022D01*
X0057816Y0118957D01*
X0057861Y0118889D01*
X0057903Y0118819D01*
X0057941Y0118747D01*
X0057976Y0118673D01*
X0058007Y0118598D01*
X0058034Y0118521D01*
X0058057Y0118443D01*
X0058077Y0118364D01*
X0058093Y0118284D01*
X0058105Y0118203D01*
X0058113Y0118122D01*
X0058117Y0118041D01*
X0058117Y0117959D01*
X0058113Y0117878D01*
X0058105Y0117797D01*
X0058093Y0117716D01*
X0058077Y0117636D01*
X0058057Y0117557D01*
X0058034Y0117479D01*
X0058007Y0117402D01*
X0057976Y0117327D01*
X0057941Y0117253D01*
X0057903Y0117181D01*
X0057861Y0117111D01*
X0057816Y0117043D01*
X0057768Y0116978D01*
X0057717Y0116914D01*
X0057662Y0116854D01*
X0057605Y0116796D01*
X0057545Y0116740D01*
X0057483Y0116688D01*
X0057417Y0116639D01*
X0057350Y0116594D01*
X0057281Y0116551D01*
X0057209Y0116512D01*
X0057136Y0116477D01*
X0057061Y0116445D01*
X0056984Y0116417D01*
X0056906Y0116392D01*
X0056828Y0116372D01*
X0056748Y0116355D01*
X0056667Y0116342D01*
X0056586Y0116333D01*
X0056505Y0116328D01*
X0056424Y0116327D01*
X0056342Y0116330D01*
X0056261Y0116337D01*
X0056180Y0116348D01*
X0056100Y0116363D01*
X0056021Y0116381D01*
X0055943Y0116404D01*
X0055865Y0116430D01*
X0055790Y0116460D01*
X0055715Y0116494D01*
X0055643Y0116531D01*
X0055572Y0116572D01*
X0055504Y0116616D01*
X0055438Y0116663D01*
X0055374Y0116714D01*
X0055312Y0116768D01*
X0055254Y0116824D01*
X0055198Y0116884D01*
X0055145Y0116946D01*
X0055095Y0117010D01*
X0055049Y0117077D01*
X0055005Y0117146D01*
X0054966Y0117217D01*
X0054929Y0117290D01*
X0054896Y0117364D01*
X0054867Y0117441D01*
X0054842Y0117518D01*
X0054820Y0117597D01*
X0054803Y0117676D01*
X0054789Y0117756D01*
X0054779Y0117837D01*
X0054773Y0117919D01*
X0054771Y0118000D01*
X0066583Y0118000D02*
X0066585Y0118081D01*
X0066591Y0118163D01*
X0066601Y0118244D01*
X0066615Y0118324D01*
X0066632Y0118403D01*
X0066654Y0118482D01*
X0066679Y0118559D01*
X0066708Y0118636D01*
X0066741Y0118710D01*
X0066778Y0118783D01*
X0066817Y0118854D01*
X0066861Y0118923D01*
X0066907Y0118990D01*
X0066957Y0119054D01*
X0067010Y0119116D01*
X0067066Y0119176D01*
X0067124Y0119232D01*
X0067186Y0119286D01*
X0067250Y0119337D01*
X0067316Y0119384D01*
X0067384Y0119428D01*
X0067455Y0119469D01*
X0067527Y0119506D01*
X0067602Y0119540D01*
X0067677Y0119570D01*
X0067755Y0119596D01*
X0067833Y0119619D01*
X0067912Y0119637D01*
X0067992Y0119652D01*
X0068073Y0119663D01*
X0068154Y0119670D01*
X0068236Y0119673D01*
X0068317Y0119672D01*
X0068398Y0119667D01*
X0068479Y0119658D01*
X0068560Y0119645D01*
X0068640Y0119628D01*
X0068718Y0119608D01*
X0068796Y0119583D01*
X0068873Y0119555D01*
X0068948Y0119523D01*
X0069021Y0119488D01*
X0069092Y0119449D01*
X0069162Y0119406D01*
X0069229Y0119361D01*
X0069295Y0119312D01*
X0069357Y0119260D01*
X0069417Y0119204D01*
X0069474Y0119146D01*
X0069529Y0119086D01*
X0069580Y0119022D01*
X0069628Y0118957D01*
X0069673Y0118889D01*
X0069715Y0118819D01*
X0069753Y0118747D01*
X0069788Y0118673D01*
X0069819Y0118598D01*
X0069846Y0118521D01*
X0069869Y0118443D01*
X0069889Y0118364D01*
X0069905Y0118284D01*
X0069917Y0118203D01*
X0069925Y0118122D01*
X0069929Y0118041D01*
X0069929Y0117959D01*
X0069925Y0117878D01*
X0069917Y0117797D01*
X0069905Y0117716D01*
X0069889Y0117636D01*
X0069869Y0117557D01*
X0069846Y0117479D01*
X0069819Y0117402D01*
X0069788Y0117327D01*
X0069753Y0117253D01*
X0069715Y0117181D01*
X0069673Y0117111D01*
X0069628Y0117043D01*
X0069580Y0116978D01*
X0069529Y0116914D01*
X0069474Y0116854D01*
X0069417Y0116796D01*
X0069357Y0116740D01*
X0069295Y0116688D01*
X0069229Y0116639D01*
X0069162Y0116594D01*
X0069093Y0116551D01*
X0069021Y0116512D01*
X0068948Y0116477D01*
X0068873Y0116445D01*
X0068796Y0116417D01*
X0068718Y0116392D01*
X0068640Y0116372D01*
X0068560Y0116355D01*
X0068479Y0116342D01*
X0068398Y0116333D01*
X0068317Y0116328D01*
X0068236Y0116327D01*
X0068154Y0116330D01*
X0068073Y0116337D01*
X0067992Y0116348D01*
X0067912Y0116363D01*
X0067833Y0116381D01*
X0067755Y0116404D01*
X0067677Y0116430D01*
X0067602Y0116460D01*
X0067527Y0116494D01*
X0067455Y0116531D01*
X0067384Y0116572D01*
X0067316Y0116616D01*
X0067250Y0116663D01*
X0067186Y0116714D01*
X0067124Y0116768D01*
X0067066Y0116824D01*
X0067010Y0116884D01*
X0066957Y0116946D01*
X0066907Y0117010D01*
X0066861Y0117077D01*
X0066817Y0117146D01*
X0066778Y0117217D01*
X0066741Y0117290D01*
X0066708Y0117364D01*
X0066679Y0117441D01*
X0066654Y0117518D01*
X0066632Y0117597D01*
X0066615Y0117676D01*
X0066601Y0117756D01*
X0066591Y0117837D01*
X0066585Y0117919D01*
X0066583Y0118000D01*
X0110317Y0019111D02*
X0110319Y0019264D01*
X0110325Y0019418D01*
X0110335Y0019571D01*
X0110349Y0019723D01*
X0110367Y0019876D01*
X0110389Y0020027D01*
X0110414Y0020178D01*
X0110444Y0020329D01*
X0110478Y0020479D01*
X0110515Y0020627D01*
X0110556Y0020775D01*
X0110601Y0020921D01*
X0110650Y0021067D01*
X0110703Y0021211D01*
X0110759Y0021353D01*
X0110819Y0021494D01*
X0110883Y0021634D01*
X0110950Y0021772D01*
X0111021Y0021908D01*
X0111096Y0022042D01*
X0111173Y0022174D01*
X0111255Y0022304D01*
X0111339Y0022432D01*
X0111427Y0022558D01*
X0111518Y0022681D01*
X0111612Y0022802D01*
X0111710Y0022920D01*
X0111810Y0023036D01*
X0111914Y0023149D01*
X0112020Y0023260D01*
X0112129Y0023368D01*
X0112241Y0023473D01*
X0112355Y0023574D01*
X0112473Y0023673D01*
X0112592Y0023769D01*
X0112714Y0023862D01*
X0112839Y0023951D01*
X0112966Y0024038D01*
X0113095Y0024120D01*
X0113226Y0024200D01*
X0113359Y0024276D01*
X0113494Y0024349D01*
X0113631Y0024418D01*
X0113770Y0024483D01*
X0113910Y0024545D01*
X0114052Y0024603D01*
X0114195Y0024658D01*
X0114340Y0024709D01*
X0114486Y0024756D01*
X0114633Y0024799D01*
X0114781Y0024838D01*
X0114930Y0024874D01*
X0115080Y0024905D01*
X0115231Y0024933D01*
X0115382Y0024957D01*
X0115535Y0024977D01*
X0115687Y0024993D01*
X0115840Y0025005D01*
X0115993Y0025013D01*
X0116146Y0025017D01*
X0116300Y0025017D01*
X0116453Y0025013D01*
X0116606Y0025005D01*
X0116759Y0024993D01*
X0116911Y0024977D01*
X0117064Y0024957D01*
X0117215Y0024933D01*
X0117366Y0024905D01*
X0117516Y0024874D01*
X0117665Y0024838D01*
X0117813Y0024799D01*
X0117960Y0024756D01*
X0118106Y0024709D01*
X0118251Y0024658D01*
X0118394Y0024603D01*
X0118536Y0024545D01*
X0118676Y0024483D01*
X0118815Y0024418D01*
X0118952Y0024349D01*
X0119087Y0024276D01*
X0119220Y0024200D01*
X0119351Y0024120D01*
X0119480Y0024038D01*
X0119607Y0023951D01*
X0119732Y0023862D01*
X0119854Y0023769D01*
X0119973Y0023673D01*
X0120091Y0023574D01*
X0120205Y0023473D01*
X0120317Y0023368D01*
X0120426Y0023260D01*
X0120532Y0023149D01*
X0120636Y0023036D01*
X0120736Y0022920D01*
X0120834Y0022802D01*
X0120928Y0022681D01*
X0121019Y0022558D01*
X0121107Y0022432D01*
X0121191Y0022304D01*
X0121273Y0022174D01*
X0121350Y0022042D01*
X0121425Y0021908D01*
X0121496Y0021772D01*
X0121563Y0021634D01*
X0121627Y0021494D01*
X0121687Y0021353D01*
X0121743Y0021211D01*
X0121796Y0021067D01*
X0121845Y0020921D01*
X0121890Y0020775D01*
X0121931Y0020627D01*
X0121968Y0020479D01*
X0122002Y0020329D01*
X0122032Y0020178D01*
X0122057Y0020027D01*
X0122079Y0019876D01*
X0122097Y0019723D01*
X0122111Y0019571D01*
X0122121Y0019418D01*
X0122127Y0019264D01*
X0122129Y0019111D01*
X0122127Y0018958D01*
X0122121Y0018804D01*
X0122111Y0018651D01*
X0122097Y0018499D01*
X0122079Y0018346D01*
X0122057Y0018195D01*
X0122032Y0018044D01*
X0122002Y0017893D01*
X0121968Y0017743D01*
X0121931Y0017595D01*
X0121890Y0017447D01*
X0121845Y0017301D01*
X0121796Y0017155D01*
X0121743Y0017011D01*
X0121687Y0016869D01*
X0121627Y0016728D01*
X0121563Y0016588D01*
X0121496Y0016450D01*
X0121425Y0016314D01*
X0121350Y0016180D01*
X0121273Y0016048D01*
X0121191Y0015918D01*
X0121107Y0015790D01*
X0121019Y0015664D01*
X0120928Y0015541D01*
X0120834Y0015420D01*
X0120736Y0015302D01*
X0120636Y0015186D01*
X0120532Y0015073D01*
X0120426Y0014962D01*
X0120317Y0014854D01*
X0120205Y0014749D01*
X0120091Y0014648D01*
X0119973Y0014549D01*
X0119854Y0014453D01*
X0119732Y0014360D01*
X0119607Y0014271D01*
X0119480Y0014184D01*
X0119351Y0014102D01*
X0119220Y0014022D01*
X0119087Y0013946D01*
X0118952Y0013873D01*
X0118815Y0013804D01*
X0118676Y0013739D01*
X0118536Y0013677D01*
X0118394Y0013619D01*
X0118251Y0013564D01*
X0118106Y0013513D01*
X0117960Y0013466D01*
X0117813Y0013423D01*
X0117665Y0013384D01*
X0117516Y0013348D01*
X0117366Y0013317D01*
X0117215Y0013289D01*
X0117064Y0013265D01*
X0116911Y0013245D01*
X0116759Y0013229D01*
X0116606Y0013217D01*
X0116453Y0013209D01*
X0116300Y0013205D01*
X0116146Y0013205D01*
X0115993Y0013209D01*
X0115840Y0013217D01*
X0115687Y0013229D01*
X0115535Y0013245D01*
X0115382Y0013265D01*
X0115231Y0013289D01*
X0115080Y0013317D01*
X0114930Y0013348D01*
X0114781Y0013384D01*
X0114633Y0013423D01*
X0114486Y0013466D01*
X0114340Y0013513D01*
X0114195Y0013564D01*
X0114052Y0013619D01*
X0113910Y0013677D01*
X0113770Y0013739D01*
X0113631Y0013804D01*
X0113494Y0013873D01*
X0113359Y0013946D01*
X0113226Y0014022D01*
X0113095Y0014102D01*
X0112966Y0014184D01*
X0112839Y0014271D01*
X0112714Y0014360D01*
X0112592Y0014453D01*
X0112473Y0014549D01*
X0112355Y0014648D01*
X0112241Y0014749D01*
X0112129Y0014854D01*
X0112020Y0014962D01*
X0111914Y0015073D01*
X0111810Y0015186D01*
X0111710Y0015302D01*
X0111612Y0015420D01*
X0111518Y0015541D01*
X0111427Y0015664D01*
X0111339Y0015790D01*
X0111255Y0015918D01*
X0111173Y0016048D01*
X0111096Y0016180D01*
X0111021Y0016314D01*
X0110950Y0016450D01*
X0110883Y0016588D01*
X0110819Y0016728D01*
X0110759Y0016869D01*
X0110703Y0017011D01*
X0110650Y0017155D01*
X0110601Y0017301D01*
X0110556Y0017447D01*
X0110515Y0017595D01*
X0110478Y0017743D01*
X0110444Y0017893D01*
X0110414Y0018044D01*
X0110389Y0018195D01*
X0110367Y0018346D01*
X0110349Y0018499D01*
X0110335Y0018651D01*
X0110325Y0018804D01*
X0110319Y0018958D01*
X0110317Y0019111D01*
D11*
X0025487Y0104422D03*
X0017613Y0104422D03*
D12*
X0008164Y0124894D03*
X0034936Y0124894D03*
D13*
X0026550Y0089926D03*
X0016550Y0089926D03*
X0104050Y0107426D03*
X0114050Y0107426D03*
D14*
X0108550Y0051206D03*
X0108550Y0047269D03*
X0108550Y0043331D03*
X0108550Y0039394D03*
D15*
X0123019Y0034276D03*
X0123019Y0056324D03*
D16*
X0096856Y0027000D03*
X0092919Y0027000D03*
X0088981Y0027000D03*
X0085044Y0027000D03*
D17*
X0079926Y0012531D03*
X0101974Y0012531D03*
D18*
X0098763Y0037587D02*
X0098763Y0040213D01*
X0098763Y0037587D02*
X0096137Y0037587D01*
X0096137Y0040213D01*
X0098763Y0040213D01*
X0098763Y0038461D02*
X0096137Y0038461D01*
X0096137Y0039335D02*
X0098763Y0039335D01*
X0098763Y0040209D02*
X0096137Y0040209D01*
X0098763Y0043587D02*
X0098763Y0046213D01*
X0098763Y0043587D02*
X0096137Y0043587D01*
X0096137Y0046213D01*
X0098763Y0046213D01*
X0098763Y0044461D02*
X0096137Y0044461D01*
X0096137Y0045335D02*
X0098763Y0045335D01*
X0098763Y0046209D02*
X0096137Y0046209D01*
X0093063Y0046213D02*
X0093063Y0043587D01*
X0090437Y0043587D01*
X0090437Y0046213D01*
X0093063Y0046213D01*
X0093063Y0044461D02*
X0090437Y0044461D01*
X0090437Y0045335D02*
X0093063Y0045335D01*
X0093063Y0046209D02*
X0090437Y0046209D01*
X0093063Y0040213D02*
X0093063Y0037587D01*
X0090437Y0037587D01*
X0090437Y0040213D01*
X0093063Y0040213D01*
X0093063Y0038461D02*
X0090437Y0038461D01*
X0090437Y0039335D02*
X0093063Y0039335D01*
X0093063Y0040209D02*
X0090437Y0040209D01*
X0090741Y0059098D02*
X0090741Y0061724D01*
X0093367Y0061724D01*
X0093367Y0059098D01*
X0090741Y0059098D01*
X0090741Y0059972D02*
X0093367Y0059972D01*
X0093367Y0060846D02*
X0090741Y0060846D01*
X0090741Y0061720D02*
X0093367Y0061720D01*
X0090741Y0065098D02*
X0090741Y0067724D01*
X0093367Y0067724D01*
X0093367Y0065098D01*
X0090741Y0065098D01*
X0090741Y0065972D02*
X0093367Y0065972D01*
X0093367Y0066846D02*
X0090741Y0066846D01*
X0090741Y0067720D02*
X0093367Y0067720D01*
X0085130Y0067724D02*
X0085130Y0065098D01*
X0085130Y0067724D02*
X0087756Y0067724D01*
X0087756Y0065098D01*
X0085130Y0065098D01*
X0085130Y0065972D02*
X0087756Y0065972D01*
X0087756Y0066846D02*
X0085130Y0066846D01*
X0085130Y0067720D02*
X0087756Y0067720D01*
X0083963Y0071287D02*
X0081337Y0071287D01*
X0081337Y0073913D01*
X0083963Y0073913D01*
X0083963Y0071287D01*
X0083963Y0072161D02*
X0081337Y0072161D01*
X0081337Y0073035D02*
X0083963Y0073035D01*
X0083963Y0073909D02*
X0081337Y0073909D01*
X0080737Y0077187D02*
X0080737Y0079813D01*
X0083363Y0079813D01*
X0083363Y0077187D01*
X0080737Y0077187D01*
X0080737Y0078061D02*
X0083363Y0078061D01*
X0083363Y0078935D02*
X0080737Y0078935D01*
X0080737Y0079809D02*
X0083363Y0079809D01*
X0080737Y0083187D02*
X0080737Y0085813D01*
X0083363Y0085813D01*
X0083363Y0083187D01*
X0080737Y0083187D01*
X0080737Y0084061D02*
X0083363Y0084061D01*
X0083363Y0084935D02*
X0080737Y0084935D01*
X0080737Y0085809D02*
X0083363Y0085809D01*
X0081237Y0091587D02*
X0081237Y0094213D01*
X0083863Y0094213D01*
X0083863Y0091587D01*
X0081237Y0091587D01*
X0081237Y0092461D02*
X0083863Y0092461D01*
X0083863Y0093335D02*
X0081237Y0093335D01*
X0081237Y0094209D02*
X0083863Y0094209D01*
X0081237Y0097587D02*
X0081237Y0100213D01*
X0083863Y0100213D01*
X0083863Y0097587D01*
X0081237Y0097587D01*
X0081237Y0098461D02*
X0083863Y0098461D01*
X0083863Y0099335D02*
X0081237Y0099335D01*
X0081237Y0100209D02*
X0083863Y0100209D01*
X0087037Y0100313D02*
X0087037Y0097687D01*
X0087037Y0100313D02*
X0089663Y0100313D01*
X0089663Y0097687D01*
X0087037Y0097687D01*
X0087037Y0098561D02*
X0089663Y0098561D01*
X0089663Y0099435D02*
X0087037Y0099435D01*
X0087037Y0100309D02*
X0089663Y0100309D01*
X0094837Y0100513D02*
X0094837Y0097887D01*
X0094837Y0100513D02*
X0097463Y0100513D01*
X0097463Y0097887D01*
X0094837Y0097887D01*
X0094837Y0098761D02*
X0097463Y0098761D01*
X0097463Y0099635D02*
X0094837Y0099635D01*
X0094837Y0100509D02*
X0097463Y0100509D01*
X0094837Y0094513D02*
X0094837Y0091887D01*
X0094837Y0094513D02*
X0097463Y0094513D01*
X0097463Y0091887D01*
X0094837Y0091887D01*
X0094837Y0092761D02*
X0097463Y0092761D01*
X0097463Y0093635D02*
X0094837Y0093635D01*
X0094837Y0094509D02*
X0097463Y0094509D01*
X0087037Y0094313D02*
X0087037Y0091687D01*
X0087037Y0094313D02*
X0089663Y0094313D01*
X0089663Y0091687D01*
X0087037Y0091687D01*
X0087037Y0092561D02*
X0089663Y0092561D01*
X0089663Y0093435D02*
X0087037Y0093435D01*
X0087037Y0094309D02*
X0089663Y0094309D01*
X0075637Y0094013D02*
X0075637Y0091387D01*
X0075637Y0094013D02*
X0078263Y0094013D01*
X0078263Y0091387D01*
X0075637Y0091387D01*
X0075637Y0092261D02*
X0078263Y0092261D01*
X0078263Y0093135D02*
X0075637Y0093135D01*
X0075637Y0094009D02*
X0078263Y0094009D01*
X0075637Y0097387D02*
X0075637Y0100013D01*
X0078263Y0100013D01*
X0078263Y0097387D01*
X0075637Y0097387D01*
X0075637Y0098261D02*
X0078263Y0098261D01*
X0078263Y0099135D02*
X0075637Y0099135D01*
X0075637Y0100009D02*
X0078263Y0100009D01*
X0077963Y0071287D02*
X0075337Y0071287D01*
X0075337Y0073913D01*
X0077963Y0073913D01*
X0077963Y0071287D01*
X0077963Y0072161D02*
X0075337Y0072161D01*
X0075337Y0073035D02*
X0077963Y0073035D01*
X0077963Y0073909D02*
X0075337Y0073909D01*
X0068663Y0070113D02*
X0068663Y0067487D01*
X0066037Y0067487D01*
X0066037Y0070113D01*
X0068663Y0070113D01*
X0068663Y0068361D02*
X0066037Y0068361D01*
X0066037Y0069235D02*
X0068663Y0069235D01*
X0068663Y0070109D02*
X0066037Y0070109D01*
X0068663Y0064113D02*
X0068663Y0061487D01*
X0066037Y0061487D01*
X0066037Y0064113D01*
X0068663Y0064113D01*
X0068663Y0062361D02*
X0066037Y0062361D01*
X0066037Y0063235D02*
X0068663Y0063235D01*
X0068663Y0064109D02*
X0066037Y0064109D01*
X0062863Y0064113D02*
X0060237Y0064113D01*
X0062863Y0064113D02*
X0062863Y0061487D01*
X0060237Y0061487D01*
X0060237Y0064113D01*
X0060237Y0062361D02*
X0062863Y0062361D01*
X0062863Y0063235D02*
X0060237Y0063235D01*
X0060237Y0064109D02*
X0062863Y0064109D01*
X0056863Y0064113D02*
X0054237Y0064113D01*
X0056863Y0064113D02*
X0056863Y0061487D01*
X0054237Y0061487D01*
X0054237Y0064113D01*
X0054237Y0062361D02*
X0056863Y0062361D01*
X0056863Y0063235D02*
X0054237Y0063235D01*
X0054237Y0064109D02*
X0056863Y0064109D01*
X0034363Y0067887D02*
X0034363Y0070513D01*
X0034363Y0067887D02*
X0031737Y0067887D01*
X0031737Y0070513D01*
X0034363Y0070513D01*
X0034363Y0068761D02*
X0031737Y0068761D01*
X0031737Y0069635D02*
X0034363Y0069635D01*
X0034363Y0070509D02*
X0031737Y0070509D01*
X0034363Y0073887D02*
X0034363Y0076513D01*
X0034363Y0073887D02*
X0031737Y0073887D01*
X0031737Y0076513D01*
X0034363Y0076513D01*
X0034363Y0074761D02*
X0031737Y0074761D01*
X0031737Y0075635D02*
X0034363Y0075635D01*
X0034363Y0076509D02*
X0031737Y0076509D01*
X0025837Y0076513D02*
X0025837Y0073887D01*
X0025837Y0076513D02*
X0028463Y0076513D01*
X0028463Y0073887D01*
X0025837Y0073887D01*
X0025837Y0074761D02*
X0028463Y0074761D01*
X0028463Y0075635D02*
X0025837Y0075635D01*
X0025837Y0076509D02*
X0028463Y0076509D01*
X0025837Y0070513D02*
X0025837Y0067887D01*
X0025837Y0070513D02*
X0028463Y0070513D01*
X0028463Y0067887D01*
X0025837Y0067887D01*
X0025837Y0068761D02*
X0028463Y0068761D01*
X0028463Y0069635D02*
X0025837Y0069635D01*
X0025837Y0070509D02*
X0028463Y0070509D01*
X0022563Y0071087D02*
X0019937Y0071087D01*
X0019937Y0073713D01*
X0022563Y0073713D01*
X0022563Y0071087D01*
X0022563Y0071961D02*
X0019937Y0071961D01*
X0019937Y0072835D02*
X0022563Y0072835D01*
X0022563Y0073709D02*
X0019937Y0073709D01*
X0016563Y0071087D02*
X0013937Y0071087D01*
X0013937Y0073713D01*
X0016563Y0073713D01*
X0016563Y0071087D01*
X0016563Y0071961D02*
X0013937Y0071961D01*
X0013937Y0072835D02*
X0016563Y0072835D01*
X0016563Y0073709D02*
X0013937Y0073709D01*
X0013937Y0068013D02*
X0016563Y0068013D01*
X0016563Y0065387D01*
X0013937Y0065387D01*
X0013937Y0068013D01*
X0013937Y0066261D02*
X0016563Y0066261D01*
X0016563Y0067135D02*
X0013937Y0067135D01*
X0013937Y0068009D02*
X0016563Y0068009D01*
X0019937Y0068013D02*
X0022563Y0068013D01*
X0022563Y0065387D01*
X0019937Y0065387D01*
X0019937Y0068013D01*
X0019937Y0066261D02*
X0022563Y0066261D01*
X0022563Y0067135D02*
X0019937Y0067135D01*
X0019937Y0068009D02*
X0022563Y0068009D01*
X0041137Y0095413D02*
X0043763Y0095413D01*
X0043763Y0092787D01*
X0041137Y0092787D01*
X0041137Y0095413D01*
X0041137Y0093661D02*
X0043763Y0093661D01*
X0043763Y0094535D02*
X0041137Y0094535D01*
X0041137Y0095409D02*
X0043763Y0095409D01*
X0043763Y0098587D02*
X0041137Y0098587D01*
X0041137Y0101213D01*
X0043763Y0101213D01*
X0043763Y0098587D01*
X0043763Y0099461D02*
X0041137Y0099461D01*
X0041137Y0100335D02*
X0043763Y0100335D01*
X0043763Y0101209D02*
X0041137Y0101209D01*
X0047137Y0098587D02*
X0049763Y0098587D01*
X0047137Y0098587D02*
X0047137Y0101213D01*
X0049763Y0101213D01*
X0049763Y0098587D01*
X0049763Y0099461D02*
X0047137Y0099461D01*
X0047137Y0100335D02*
X0049763Y0100335D01*
X0049763Y0101209D02*
X0047137Y0101209D01*
X0047137Y0095413D02*
X0049763Y0095413D01*
X0049763Y0092787D01*
X0047137Y0092787D01*
X0047137Y0095413D01*
X0047137Y0093661D02*
X0049763Y0093661D01*
X0049763Y0094535D02*
X0047137Y0094535D01*
X0047137Y0095409D02*
X0049763Y0095409D01*
X0085130Y0061724D02*
X0085130Y0059098D01*
X0085130Y0061724D02*
X0087756Y0061724D01*
X0087756Y0059098D01*
X0085130Y0059098D01*
X0085130Y0059972D02*
X0087756Y0059972D01*
X0087756Y0060846D02*
X0085130Y0060846D01*
X0085130Y0061720D02*
X0087756Y0061720D01*
X0103737Y0061487D02*
X0106363Y0061487D01*
X0103737Y0061487D02*
X0103737Y0064113D01*
X0106363Y0064113D01*
X0106363Y0061487D01*
X0106363Y0062361D02*
X0103737Y0062361D01*
X0103737Y0063235D02*
X0106363Y0063235D01*
X0106363Y0064109D02*
X0103737Y0064109D01*
X0103637Y0067287D02*
X0106263Y0067287D01*
X0103637Y0067287D02*
X0103637Y0069913D01*
X0106263Y0069913D01*
X0106263Y0067287D01*
X0106263Y0068161D02*
X0103637Y0068161D01*
X0103637Y0069035D02*
X0106263Y0069035D01*
X0106263Y0069909D02*
X0103637Y0069909D01*
X0109637Y0067287D02*
X0112263Y0067287D01*
X0109637Y0067287D02*
X0109637Y0069913D01*
X0112263Y0069913D01*
X0112263Y0067287D01*
X0112263Y0068161D02*
X0109637Y0068161D01*
X0109637Y0069035D02*
X0112263Y0069035D01*
X0112263Y0069909D02*
X0109637Y0069909D01*
X0109737Y0061487D02*
X0112363Y0061487D01*
X0109737Y0061487D02*
X0109737Y0064113D01*
X0112363Y0064113D01*
X0112363Y0061487D01*
X0112363Y0062361D02*
X0109737Y0062361D01*
X0109737Y0063235D02*
X0112363Y0063235D01*
X0112363Y0064109D02*
X0109737Y0064109D01*
X0109137Y0093113D02*
X0111763Y0093113D01*
X0111763Y0090487D01*
X0109137Y0090487D01*
X0109137Y0093113D01*
X0109137Y0091361D02*
X0111763Y0091361D01*
X0111763Y0092235D02*
X0109137Y0092235D01*
X0109137Y0093109D02*
X0111763Y0093109D01*
X0115137Y0093113D02*
X0117763Y0093113D01*
X0117763Y0090487D01*
X0115137Y0090487D01*
X0115137Y0093113D01*
X0115137Y0091361D02*
X0117763Y0091361D01*
X0117763Y0092235D02*
X0115137Y0092235D01*
X0115137Y0093109D02*
X0117763Y0093109D01*
X0064763Y0040813D02*
X0062137Y0040813D01*
X0064763Y0040813D02*
X0064763Y0038187D01*
X0062137Y0038187D01*
X0062137Y0040813D01*
X0062137Y0039061D02*
X0064763Y0039061D01*
X0064763Y0039935D02*
X0062137Y0039935D01*
X0062137Y0040809D02*
X0064763Y0040809D01*
X0058763Y0040813D02*
X0056137Y0040813D01*
X0058763Y0040813D02*
X0058763Y0038187D01*
X0056137Y0038187D01*
X0056137Y0040813D01*
X0056137Y0039061D02*
X0058763Y0039061D01*
X0058763Y0039935D02*
X0056137Y0039935D01*
X0056137Y0040809D02*
X0058763Y0040809D01*
D19*
X0089543Y0075847D03*
X0089543Y0077816D03*
X0089543Y0079784D03*
X0089543Y0081753D03*
X0101157Y0081753D03*
X0101157Y0079784D03*
X0101157Y0077816D03*
X0101157Y0075847D03*
D20*
X0098303Y0072993D03*
X0096334Y0072993D03*
X0094366Y0072993D03*
X0092397Y0072993D03*
X0092397Y0084607D03*
X0094366Y0084607D03*
X0096334Y0084607D03*
X0098303Y0084607D03*
D21*
X0095350Y0078800D03*
D22*
X0069450Y0095400D03*
X0059450Y0095400D03*
D23*
X0062350Y0106878D03*
X0072193Y0106878D03*
X0052507Y0106878D03*
X0052507Y0129122D03*
X0062350Y0129122D03*
X0072193Y0129122D03*
D24*
X0115425Y0069975D02*
X0117675Y0069975D01*
X0117675Y0067225D01*
X0115425Y0067225D01*
X0115425Y0069975D01*
X0115425Y0067974D02*
X0117675Y0067974D01*
X0117675Y0068723D02*
X0115425Y0068723D01*
X0115425Y0069472D02*
X0117675Y0069472D01*
X0121425Y0069975D02*
X0123675Y0069975D01*
X0123675Y0067225D01*
X0121425Y0067225D01*
X0121425Y0069975D01*
X0121425Y0067974D02*
X0123675Y0067974D01*
X0123675Y0068723D02*
X0121425Y0068723D01*
X0121425Y0069472D02*
X0123675Y0069472D01*
X0123675Y0064175D02*
X0121425Y0064175D01*
X0123675Y0064175D02*
X0123675Y0061425D01*
X0121425Y0061425D01*
X0121425Y0064175D01*
X0121425Y0062174D02*
X0123675Y0062174D01*
X0123675Y0062923D02*
X0121425Y0062923D01*
X0121425Y0063672D02*
X0123675Y0063672D01*
X0117675Y0064175D02*
X0115425Y0064175D01*
X0117675Y0064175D02*
X0117675Y0061425D01*
X0115425Y0061425D01*
X0115425Y0064175D01*
X0115425Y0062174D02*
X0117675Y0062174D01*
X0117675Y0062923D02*
X0115425Y0062923D01*
X0115425Y0063672D02*
X0117675Y0063672D01*
D25*
X0116550Y0062800D02*
X0111050Y0062800D01*
X0108100Y0063217D02*
X0108000Y0063217D01*
X0108000Y0064215D02*
X0108100Y0064215D01*
X0108100Y0064791D02*
X0108100Y0060809D01*
X0109059Y0059850D01*
X0113041Y0059850D01*
X0113907Y0060716D01*
X0114773Y0059850D01*
X0118327Y0059850D01*
X0119250Y0060773D01*
X0119250Y0064827D01*
X0118377Y0065700D01*
X0119250Y0066573D01*
X0119250Y0070627D01*
X0118327Y0071550D01*
X0114773Y0071550D01*
X0113857Y0070634D01*
X0112941Y0071550D01*
X0108959Y0071550D01*
X0108000Y0070591D01*
X0108000Y0066609D01*
X0108959Y0065650D01*
X0108959Y0065650D01*
X0108100Y0064791D01*
X0108000Y0064791D02*
X0107041Y0065750D01*
X0107041Y0065750D01*
X0107900Y0066609D01*
X0107900Y0070591D01*
X0106941Y0071550D01*
X0106650Y0071550D01*
X0106650Y0074804D01*
X0105654Y0075800D01*
X0105454Y0076000D01*
X0105729Y0076000D01*
X0106850Y0074879D01*
X0107729Y0074000D01*
X0120129Y0074000D01*
X0120150Y0073979D01*
X0120450Y0073679D01*
X0120450Y0071227D01*
X0119850Y0070627D01*
X0119850Y0066573D01*
X0120450Y0065973D01*
X0120450Y0065427D01*
X0119850Y0064827D01*
X0119850Y0060773D01*
X0120773Y0059850D01*
X0124327Y0059850D01*
X0125250Y0060773D01*
X0125250Y0064827D01*
X0124650Y0065427D01*
X0124650Y0065973D01*
X0125250Y0066573D01*
X0125250Y0070627D01*
X0124650Y0071227D01*
X0124650Y0080421D01*
X0123550Y0081521D01*
X0122671Y0082400D01*
X0106354Y0082400D01*
X0107250Y0083296D01*
X0107250Y0086196D01*
X0109904Y0088850D01*
X0112441Y0088850D01*
X0113400Y0089809D01*
X0113400Y0093791D01*
X0112452Y0094739D01*
X0113450Y0095737D01*
X0113450Y0100537D01*
X0113550Y0100637D01*
X0114513Y0101600D01*
X0116613Y0101600D01*
X0117550Y0102537D01*
X0117550Y0102537D01*
X0120050Y0105037D01*
X0120050Y0110863D01*
X0116650Y0114263D01*
X0116650Y0117911D01*
X0116450Y0118111D01*
X0116450Y0120100D01*
X0115700Y0120850D01*
X0113200Y0120850D01*
X0113150Y0120800D01*
X0113100Y0120850D01*
X0110600Y0120850D01*
X0110550Y0120800D01*
X0110500Y0120850D01*
X0108000Y0120850D01*
X0107950Y0120800D01*
X0107900Y0120850D01*
X0105400Y0120850D01*
X0104650Y0120100D01*
X0104650Y0113900D01*
X0105400Y0113150D01*
X0107900Y0113150D01*
X0107950Y0113200D01*
X0108000Y0113150D01*
X0110500Y0113150D01*
X0110550Y0113200D01*
X0110600Y0113150D01*
X0111137Y0113150D01*
X0108350Y0110363D01*
X0108350Y0105763D01*
X0105250Y0102663D01*
X0105250Y0097163D01*
X0098034Y0089947D01*
X0098034Y0090250D01*
X0098141Y0090250D01*
X0099100Y0091209D01*
X0099100Y0095191D01*
X0098141Y0096150D01*
X0094159Y0096150D01*
X0093850Y0095841D01*
X0093850Y0104604D01*
X0085354Y0113100D01*
X0066168Y0113100D01*
X0065172Y0112104D01*
X0063410Y0110342D01*
X0059884Y0110342D01*
X0059181Y0109639D01*
X0059181Y0104400D01*
X0052987Y0104400D01*
X0052050Y0103463D01*
X0052050Y0101500D01*
X0051400Y0101500D01*
X0051400Y0101891D01*
X0050441Y0102850D01*
X0046459Y0102850D01*
X0045500Y0101891D01*
X0045500Y0097909D01*
X0046409Y0097000D01*
X0045500Y0096091D01*
X0045500Y0092109D01*
X0046459Y0091150D01*
X0049137Y0091150D01*
X0049613Y0090674D01*
X0049613Y0088576D01*
X0048387Y0088576D01*
X0044987Y0085176D01*
X0044050Y0084238D01*
X0044050Y0067394D01*
X0043615Y0066959D01*
X0043606Y0066938D01*
X0043409Y0067135D01*
X0042527Y0067500D01*
X0041573Y0067500D01*
X0040691Y0067135D01*
X0040350Y0066794D01*
X0040350Y0067704D01*
X0038850Y0069204D01*
X0038850Y0069677D01*
X0038485Y0070559D01*
X0037809Y0071235D01*
X0036927Y0071600D01*
X0035973Y0071600D01*
X0035703Y0071488D01*
X0035041Y0072150D01*
X0031059Y0072150D01*
X0030100Y0071191D01*
X0029141Y0072150D01*
X0025159Y0072150D01*
X0024200Y0071191D01*
X0024200Y0067209D01*
X0025159Y0066250D01*
X0025226Y0066250D01*
X0025226Y0065623D01*
X0025592Y0064741D01*
X0025826Y0064506D01*
X0025826Y0062966D01*
X0025245Y0062385D01*
X0025245Y0060999D01*
X0026225Y0060020D01*
X0026753Y0060020D01*
X0026881Y0059892D01*
X0028372Y0059892D01*
X0028500Y0060020D01*
X0029028Y0060020D01*
X0030007Y0060999D01*
X0030007Y0062385D01*
X0029426Y0062966D01*
X0029426Y0064506D01*
X0029661Y0064741D01*
X0030026Y0065623D01*
X0030026Y0066577D01*
X0029863Y0066972D01*
X0030100Y0067209D01*
X0030100Y0071191D01*
X0030100Y0067209D01*
X0031059Y0066250D01*
X0035041Y0066250D01*
X0035703Y0066912D01*
X0035973Y0066800D01*
X0036446Y0066800D01*
X0036950Y0066296D01*
X0036950Y0063066D01*
X0036269Y0062385D01*
X0036269Y0060999D01*
X0036560Y0060708D01*
X0036269Y0060416D01*
X0036269Y0059031D01*
X0036560Y0058739D01*
X0036269Y0058448D01*
X0036269Y0057062D01*
X0036380Y0056951D01*
X0036150Y0056721D01*
X0036150Y0052879D01*
X0036329Y0052700D01*
X0036250Y0052621D01*
X0036250Y0030279D01*
X0037129Y0029400D01*
X0037229Y0029300D01*
X0045371Y0029300D01*
X0046250Y0030179D01*
X0046250Y0040721D01*
X0045371Y0041600D01*
X0043450Y0043521D01*
X0043450Y0051621D01*
X0043071Y0052000D01*
X0044029Y0052000D01*
X0047629Y0048400D01*
X0059471Y0048400D01*
X0060350Y0049279D01*
X0061105Y0050033D01*
X0064200Y0050058D01*
X0065235Y0050067D01*
X0066546Y0050077D01*
X0066546Y0045000D01*
X0063996Y0042450D01*
X0061459Y0042450D01*
X0060500Y0041491D01*
X0060500Y0037509D01*
X0061459Y0036550D01*
X0065441Y0036550D01*
X0066400Y0037509D01*
X0066400Y0040046D01*
X0069946Y0043592D01*
X0069946Y0050104D01*
X0071309Y0050115D01*
X0071309Y0050115D01*
X0077320Y0050164D01*
X0077115Y0049959D01*
X0076750Y0049077D01*
X0076750Y0048604D01*
X0071446Y0043300D01*
X0070973Y0043300D01*
X0070091Y0042935D01*
X0069415Y0042259D01*
X0069050Y0041377D01*
X0069050Y0040423D01*
X0069415Y0039541D01*
X0070091Y0038865D01*
X0070973Y0038500D01*
X0071927Y0038500D01*
X0072809Y0038865D01*
X0073485Y0039541D01*
X0073850Y0040423D01*
X0073850Y0040896D01*
X0079154Y0046200D01*
X0079627Y0046200D01*
X0080509Y0046565D01*
X0081185Y0047241D01*
X0081550Y0048123D01*
X0081550Y0049077D01*
X0081185Y0049959D01*
X0080951Y0050193D01*
X0090223Y0050268D01*
X0089715Y0049759D01*
X0089350Y0048877D01*
X0089350Y0047923D01*
X0089491Y0047582D01*
X0088800Y0046891D01*
X0088800Y0042909D01*
X0089759Y0041950D01*
X0093741Y0041950D01*
X0094600Y0042809D01*
X0095459Y0041950D01*
X0098237Y0041950D01*
X0098137Y0041850D01*
X0095459Y0041850D01*
X0094600Y0040991D01*
X0093741Y0041850D01*
X0089759Y0041850D01*
X0088800Y0040891D01*
X0088800Y0036909D01*
X0089759Y0035950D01*
X0091319Y0035950D01*
X0091319Y0034594D01*
X0090884Y0034159D01*
X0090519Y0033277D01*
X0090519Y0032323D01*
X0090884Y0031441D01*
X0091319Y0031006D01*
X0091319Y0030857D01*
X0091240Y0030857D01*
X0090950Y0030567D01*
X0090660Y0030857D01*
X0087303Y0030857D01*
X0086600Y0030155D01*
X0086600Y0027654D01*
X0086531Y0027487D01*
X0086531Y0021946D01*
X0086335Y0021750D01*
X0034363Y0021750D01*
X0033462Y0021377D01*
X0032773Y0020688D01*
X0032773Y0020688D01*
X0029535Y0017450D01*
X0027703Y0017450D01*
X0027000Y0016747D01*
X0027000Y0009253D01*
X0027453Y0008800D01*
X0020894Y0008800D01*
X0023522Y0011005D01*
X0025712Y0014798D01*
X0026472Y0019111D01*
X0025712Y0023424D01*
X0023522Y0027217D01*
X0023522Y0027217D01*
X0023522Y0027217D01*
X0021159Y0029200D01*
X0029271Y0029200D01*
X0030150Y0030079D01*
X0030150Y0052321D01*
X0030007Y0052464D01*
X0030007Y0052542D01*
X0029716Y0052834D01*
X0030007Y0053125D01*
X0030007Y0053195D01*
X0030150Y0053337D01*
X0030150Y0056463D01*
X0029779Y0056834D01*
X0030007Y0057062D01*
X0030007Y0058448D01*
X0029028Y0059428D01*
X0028500Y0059428D01*
X0028372Y0059555D01*
X0025140Y0059555D01*
X0023050Y0061646D01*
X0023050Y0063750D01*
X0023241Y0063750D01*
X0024200Y0064709D01*
X0024200Y0068691D01*
X0023341Y0069550D01*
X0024200Y0070409D01*
X0024200Y0074391D01*
X0023241Y0075350D01*
X0019259Y0075350D01*
X0018300Y0074391D01*
X0018300Y0070409D01*
X0019159Y0069550D01*
X0018300Y0068691D01*
X0018300Y0065713D01*
X0018250Y0065763D01*
X0018250Y0066246D01*
X0018200Y0066296D01*
X0018200Y0068691D01*
X0017241Y0069650D01*
X0014846Y0069650D01*
X0013200Y0071296D01*
X0013200Y0075004D01*
X0015596Y0077400D01*
X0030309Y0077400D01*
X0030100Y0077191D01*
X0030100Y0073209D01*
X0031059Y0072250D01*
X0035041Y0072250D01*
X0036000Y0073209D01*
X0036000Y0077191D01*
X0035041Y0078150D01*
X0034850Y0078150D01*
X0034850Y0078154D01*
X0044250Y0087554D01*
X0044250Y0091150D01*
X0044441Y0091150D01*
X0045400Y0092109D01*
X0045400Y0096091D01*
X0044441Y0097050D01*
X0040459Y0097050D01*
X0039500Y0096091D01*
X0039500Y0092109D01*
X0040459Y0091150D01*
X0040650Y0091150D01*
X0040650Y0089046D01*
X0032604Y0081000D01*
X0014104Y0081000D01*
X0009600Y0076496D01*
X0009600Y0069804D01*
X0010654Y0068750D01*
X0012300Y0067104D01*
X0012300Y0066313D01*
X0012287Y0066300D01*
X0011350Y0065363D01*
X0011350Y0041763D01*
X0010187Y0040600D01*
X0009250Y0039663D01*
X0009250Y0032237D01*
X0010050Y0031437D01*
X0010414Y0031073D01*
X0007556Y0030032D01*
X0004200Y0027217D01*
X0003550Y0026091D01*
X0003550Y0131784D01*
X0003815Y0131784D01*
X0003815Y0117705D01*
X0004518Y0117002D01*
X0011811Y0117002D01*
X0012514Y0117705D01*
X0012514Y0131784D01*
X0030586Y0131784D01*
X0030586Y0117705D01*
X0031289Y0117002D01*
X0038582Y0117002D01*
X0039285Y0117705D01*
X0039285Y0131784D01*
X0049339Y0131784D01*
X0049339Y0126361D01*
X0050042Y0125658D01*
X0054973Y0125658D01*
X0055676Y0126361D01*
X0055676Y0131784D01*
X0059181Y0131784D01*
X0059181Y0126361D01*
X0059884Y0125658D01*
X0064816Y0125658D01*
X0065518Y0126361D01*
X0065518Y0131784D01*
X0069024Y0131784D01*
X0069024Y0126361D01*
X0069727Y0125658D01*
X0074658Y0125658D01*
X0075361Y0126361D01*
X0075361Y0131784D01*
X0101913Y0131784D01*
X0101050Y0130921D01*
X0101050Y0124279D01*
X0101929Y0123400D01*
X0108571Y0123400D01*
X0109250Y0124079D01*
X0109929Y0123400D01*
X0116571Y0123400D01*
X0117450Y0124279D01*
X0117450Y0130921D01*
X0116587Y0131784D01*
X0126534Y0131784D01*
X0126534Y0026091D01*
X0125884Y0027217D01*
X0125884Y0027217D01*
X0125884Y0027217D01*
X0122529Y0030032D01*
X0118413Y0031530D01*
X0114033Y0031530D01*
X0109918Y0030032D01*
X0109918Y0030032D01*
X0109480Y0029665D01*
X0116727Y0036912D01*
X0117100Y0037813D01*
X0117100Y0041087D01*
X0116727Y0041988D01*
X0116038Y0042677D01*
X0116038Y0042677D01*
X0113996Y0044719D01*
X0113306Y0045409D01*
X0112407Y0045781D01*
X0112407Y0048947D01*
X0112117Y0049237D01*
X0112407Y0049527D01*
X0112407Y0052884D01*
X0111705Y0053587D01*
X0105395Y0053587D01*
X0104693Y0052884D01*
X0104693Y0051405D01*
X0100289Y0047002D01*
X0099680Y0047611D01*
X0099850Y0048023D01*
X0099850Y0048977D01*
X0099485Y0049859D01*
X0098809Y0050535D01*
X0097927Y0050900D01*
X0096973Y0050900D01*
X0096091Y0050535D01*
X0095415Y0049859D01*
X0095050Y0048977D01*
X0095050Y0048023D01*
X0095220Y0047611D01*
X0094600Y0046991D01*
X0094009Y0047582D01*
X0094150Y0047923D01*
X0094150Y0048877D01*
X0093785Y0049759D01*
X0093252Y0050292D01*
X0094262Y0050300D01*
X0095571Y0050300D01*
X0096056Y0050784D01*
X0096063Y0050787D01*
X0096072Y0050797D01*
X0096084Y0050802D01*
X0096522Y0051247D01*
X0098563Y0053287D01*
X0098566Y0053294D01*
X0101550Y0056279D01*
X0101550Y0058921D01*
X0100671Y0059800D01*
X0099771Y0060700D01*
X0097744Y0060700D01*
X0098285Y0061241D01*
X0098466Y0061679D01*
X0099146Y0061000D01*
X0102100Y0061000D01*
X0102100Y0060809D01*
X0103059Y0059850D01*
X0107041Y0059850D01*
X0108000Y0060809D01*
X0108000Y0064791D01*
X0107577Y0065214D02*
X0108523Y0065214D01*
X0108397Y0066212D02*
X0107503Y0066212D01*
X0107900Y0067211D02*
X0108000Y0067211D01*
X0108000Y0068209D02*
X0107900Y0068209D01*
X0107900Y0069208D02*
X0108000Y0069208D01*
X0108000Y0070206D02*
X0107900Y0070206D01*
X0107286Y0071205D02*
X0108614Y0071205D01*
X0106650Y0072203D02*
X0120450Y0072203D01*
X0120427Y0071205D02*
X0118673Y0071205D01*
X0119250Y0070206D02*
X0119850Y0070206D01*
X0119850Y0069208D02*
X0119250Y0069208D01*
X0119250Y0068209D02*
X0119850Y0068209D01*
X0119850Y0067211D02*
X0119250Y0067211D01*
X0118890Y0066212D02*
X0120210Y0066212D01*
X0120236Y0065214D02*
X0118864Y0065214D01*
X0119250Y0064215D02*
X0119850Y0064215D01*
X0119850Y0063217D02*
X0119250Y0063217D01*
X0119250Y0062218D02*
X0119850Y0062218D01*
X0119850Y0061220D02*
X0119250Y0061220D01*
X0118698Y0060221D02*
X0120402Y0060221D01*
X0124698Y0060221D02*
X0126534Y0060221D01*
X0126534Y0059223D02*
X0101249Y0059223D01*
X0101550Y0058224D02*
X0126534Y0058224D01*
X0126534Y0057226D02*
X0101550Y0057226D01*
X0101498Y0056227D02*
X0126534Y0056227D01*
X0126534Y0055229D02*
X0100500Y0055229D01*
X0099501Y0054230D02*
X0126534Y0054230D01*
X0126534Y0053232D02*
X0112060Y0053232D01*
X0112407Y0052233D02*
X0126534Y0052233D01*
X0126534Y0051234D02*
X0112407Y0051234D01*
X0112407Y0050236D02*
X0126534Y0050236D01*
X0126534Y0049237D02*
X0112118Y0049237D01*
X0112407Y0048239D02*
X0126534Y0048239D01*
X0126534Y0047240D02*
X0112407Y0047240D01*
X0112407Y0046242D02*
X0126534Y0046242D01*
X0126534Y0045243D02*
X0113471Y0045243D01*
X0114470Y0044245D02*
X0126534Y0044245D01*
X0126534Y0043246D02*
X0115468Y0043246D01*
X0116467Y0042248D02*
X0126534Y0042248D01*
X0126534Y0041249D02*
X0117033Y0041249D01*
X0117100Y0040251D02*
X0126534Y0040251D01*
X0126534Y0039252D02*
X0117100Y0039252D01*
X0117100Y0038254D02*
X0126534Y0038254D01*
X0126534Y0037255D02*
X0116869Y0037255D01*
X0116072Y0036257D02*
X0126534Y0036257D01*
X0126534Y0035258D02*
X0115073Y0035258D01*
X0114075Y0034260D02*
X0126534Y0034260D01*
X0126534Y0033261D02*
X0113076Y0033261D01*
X0112078Y0032263D02*
X0126534Y0032263D01*
X0126534Y0031264D02*
X0119144Y0031264D01*
X0121888Y0030266D02*
X0126534Y0030266D01*
X0126534Y0029267D02*
X0123441Y0029267D01*
X0124631Y0028269D02*
X0126534Y0028269D01*
X0126534Y0027270D02*
X0125821Y0027270D01*
X0126430Y0026272D02*
X0126534Y0026272D01*
X0113302Y0031264D02*
X0111079Y0031264D01*
X0110559Y0030266D02*
X0110081Y0030266D01*
X0106146Y0033261D02*
X0101600Y0033261D01*
X0101600Y0034187D02*
X0104250Y0036837D01*
X0104250Y0043537D01*
X0104693Y0043980D01*
X0104693Y0041653D01*
X0105395Y0040950D01*
X0107896Y0040950D01*
X0108063Y0040881D01*
X0110904Y0040881D01*
X0112200Y0039585D01*
X0112200Y0039315D01*
X0101600Y0028715D01*
X0101600Y0034187D01*
X0101673Y0034260D02*
X0107145Y0034260D01*
X0108144Y0035258D02*
X0102671Y0035258D01*
X0103670Y0036257D02*
X0109142Y0036257D01*
X0110141Y0037255D02*
X0104250Y0037255D01*
X0104250Y0038254D02*
X0111139Y0038254D01*
X0112138Y0039252D02*
X0104250Y0039252D01*
X0104250Y0040251D02*
X0111534Y0040251D01*
X0105096Y0041249D02*
X0104250Y0041249D01*
X0104250Y0042248D02*
X0104693Y0042248D01*
X0104693Y0043246D02*
X0104250Y0043246D01*
X0100528Y0047240D02*
X0100050Y0047240D01*
X0099850Y0048239D02*
X0101526Y0048239D01*
X0102525Y0049237D02*
X0099742Y0049237D01*
X0099108Y0050236D02*
X0103523Y0050236D01*
X0104522Y0051234D02*
X0096510Y0051234D01*
X0095792Y0050236D02*
X0093308Y0050236D01*
X0094001Y0049237D02*
X0095158Y0049237D01*
X0095050Y0048239D02*
X0094150Y0048239D01*
X0094350Y0047240D02*
X0094850Y0047240D01*
X0097508Y0052233D02*
X0104693Y0052233D01*
X0105040Y0053232D02*
X0098507Y0053232D01*
X0093057Y0056833D02*
X0092914Y0056689D01*
X0081190Y0056595D01*
X0081450Y0057223D01*
X0081450Y0058177D01*
X0081085Y0059059D01*
X0080750Y0059394D01*
X0080750Y0068296D01*
X0082104Y0069650D01*
X0084641Y0069650D01*
X0084843Y0069852D01*
X0084843Y0069361D01*
X0084452Y0069361D01*
X0083493Y0068402D01*
X0083493Y0064420D01*
X0084452Y0063461D01*
X0088434Y0063461D01*
X0089248Y0064276D01*
X0090063Y0063461D01*
X0092741Y0063461D01*
X0092841Y0063361D01*
X0090063Y0063361D01*
X0089248Y0062546D01*
X0088434Y0063361D01*
X0084452Y0063361D01*
X0083493Y0062402D01*
X0083493Y0058420D01*
X0084452Y0057461D01*
X0088434Y0057461D01*
X0089248Y0058276D01*
X0090063Y0057461D01*
X0092458Y0057461D01*
X0093057Y0056862D01*
X0093057Y0056833D01*
X0092694Y0057226D02*
X0081450Y0057226D01*
X0081431Y0058224D02*
X0083689Y0058224D01*
X0083493Y0059223D02*
X0080922Y0059223D01*
X0080750Y0060221D02*
X0083493Y0060221D01*
X0083493Y0061220D02*
X0080750Y0061220D01*
X0080750Y0062218D02*
X0083493Y0062218D01*
X0084308Y0063217D02*
X0080750Y0063217D01*
X0080750Y0064215D02*
X0083698Y0064215D01*
X0083493Y0065214D02*
X0080750Y0065214D01*
X0080750Y0066212D02*
X0083493Y0066212D01*
X0083493Y0067211D02*
X0080750Y0067211D01*
X0080750Y0068209D02*
X0083493Y0068209D01*
X0084299Y0069208D02*
X0081662Y0069208D01*
X0079050Y0069000D02*
X0082650Y0072600D01*
X0085897Y0075847D01*
X0089543Y0075847D01*
X0092416Y0075866D02*
X0092416Y0076845D01*
X0092450Y0076879D01*
X0092450Y0080721D01*
X0092416Y0080755D01*
X0092416Y0081734D01*
X0098284Y0081734D01*
X0098284Y0080755D01*
X0098150Y0080621D01*
X0098150Y0076879D01*
X0098284Y0076745D01*
X0098284Y0074799D01*
X0098911Y0074172D01*
X0098911Y0074159D01*
X0099350Y0073719D01*
X0102927Y0073719D01*
X0103250Y0073396D01*
X0103250Y0071550D01*
X0102959Y0071550D01*
X0102000Y0070591D01*
X0102000Y0066609D01*
X0102959Y0065650D01*
X0102959Y0065650D01*
X0102100Y0064791D01*
X0102100Y0064400D01*
X0100554Y0064400D01*
X0098034Y0066920D01*
X0098034Y0070771D01*
X0098085Y0070823D01*
X0098085Y0075163D01*
X0097382Y0075866D01*
X0092416Y0075866D01*
X0092416Y0076197D02*
X0098284Y0076197D01*
X0098284Y0075199D02*
X0098050Y0075199D01*
X0098085Y0074200D02*
X0098883Y0074200D01*
X0098085Y0073202D02*
X0103250Y0073202D01*
X0103250Y0072203D02*
X0098085Y0072203D01*
X0098085Y0071205D02*
X0102614Y0071205D01*
X0102000Y0070206D02*
X0098034Y0070206D01*
X0098034Y0069208D02*
X0102000Y0069208D01*
X0102000Y0068209D02*
X0098034Y0068209D01*
X0098034Y0067211D02*
X0102000Y0067211D01*
X0102397Y0066212D02*
X0098742Y0066212D01*
X0099740Y0065214D02*
X0102523Y0065214D01*
X0104950Y0062700D02*
X0099850Y0062700D01*
X0096334Y0066216D01*
X0096334Y0072993D01*
X0098150Y0077196D02*
X0092450Y0077196D01*
X0092450Y0078194D02*
X0098150Y0078194D01*
X0098150Y0079193D02*
X0092450Y0079193D01*
X0092450Y0080191D02*
X0098150Y0080191D01*
X0098284Y0081190D02*
X0092416Y0081190D01*
X0089543Y0081753D02*
X0087997Y0081753D01*
X0086050Y0083700D01*
X0086050Y0089400D01*
X0082550Y0092900D01*
X0083096Y0089950D02*
X0080559Y0089950D01*
X0079850Y0090659D01*
X0078941Y0089750D01*
X0074959Y0089750D01*
X0074000Y0090709D01*
X0074000Y0093246D01*
X0073546Y0093700D01*
X0073150Y0093700D01*
X0073150Y0091903D01*
X0072447Y0091200D01*
X0072250Y0091200D01*
X0072250Y0084660D01*
X0075610Y0081300D01*
X0079629Y0081300D01*
X0079929Y0081600D01*
X0085746Y0081600D01*
X0085346Y0082000D01*
X0084350Y0082996D01*
X0084350Y0088696D01*
X0083096Y0089950D01*
X0083868Y0089178D02*
X0072250Y0089178D01*
X0072250Y0090176D02*
X0074533Y0090176D01*
X0074000Y0091175D02*
X0072250Y0091175D01*
X0073150Y0092173D02*
X0074000Y0092173D01*
X0074000Y0093172D02*
X0073150Y0093172D01*
X0074250Y0095400D02*
X0069450Y0095400D01*
X0066150Y0099297D02*
X0066150Y0103463D01*
X0065507Y0104106D01*
X0065518Y0104117D01*
X0065518Y0107642D01*
X0067576Y0109700D01*
X0069085Y0109700D01*
X0069024Y0109639D01*
X0069024Y0104117D01*
X0069727Y0103414D01*
X0073252Y0103414D01*
X0075016Y0101650D01*
X0074959Y0101650D01*
X0074000Y0100691D01*
X0074000Y0097100D01*
X0073150Y0097100D01*
X0073150Y0098897D01*
X0072447Y0099600D01*
X0066453Y0099600D01*
X0066150Y0099297D01*
X0066150Y0100162D02*
X0074000Y0100162D01*
X0074000Y0099163D02*
X0072884Y0099163D01*
X0073150Y0098165D02*
X0074000Y0098165D01*
X0074000Y0097166D02*
X0073150Y0097166D01*
X0074250Y0095400D02*
X0076950Y0092700D01*
X0076404Y0095650D02*
X0076304Y0095750D01*
X0078941Y0095750D01*
X0079900Y0096709D01*
X0079900Y0100691D01*
X0078941Y0101650D01*
X0078650Y0101650D01*
X0078650Y0102825D01*
X0077654Y0103820D01*
X0075361Y0106114D01*
X0075361Y0109639D01*
X0075300Y0109700D01*
X0083946Y0109700D01*
X0090450Y0103196D01*
X0090450Y0095841D01*
X0090341Y0095950D01*
X0086359Y0095950D01*
X0085400Y0094991D01*
X0085400Y0094991D01*
X0084541Y0095850D01*
X0080559Y0095850D01*
X0079650Y0094941D01*
X0078941Y0095650D01*
X0076404Y0095650D01*
X0076950Y0098700D02*
X0076950Y0102120D01*
X0072193Y0106878D01*
X0069024Y0107151D02*
X0065518Y0107151D01*
X0065518Y0106153D02*
X0069024Y0106153D01*
X0069024Y0105154D02*
X0065518Y0105154D01*
X0065518Y0104156D02*
X0069024Y0104156D01*
X0066150Y0103157D02*
X0073509Y0103157D01*
X0074508Y0102159D02*
X0066150Y0102159D01*
X0066150Y0101160D02*
X0074469Y0101160D01*
X0077319Y0104156D02*
X0089490Y0104156D01*
X0090450Y0103157D02*
X0078318Y0103157D01*
X0078650Y0102159D02*
X0090450Y0102159D01*
X0090450Y0101160D02*
X0079431Y0101160D01*
X0079900Y0100162D02*
X0090450Y0100162D01*
X0090450Y0099163D02*
X0079900Y0099163D01*
X0079900Y0098165D02*
X0090450Y0098165D01*
X0090450Y0097166D02*
X0079900Y0097166D01*
X0079358Y0096168D02*
X0090450Y0096168D01*
X0088350Y0093000D02*
X0088350Y0090300D01*
X0092397Y0086253D01*
X0092397Y0084607D01*
X0094366Y0084607D02*
X0094366Y0087684D01*
X0092150Y0089900D01*
X0092150Y0103900D01*
X0084650Y0111400D01*
X0066872Y0111400D01*
X0062350Y0106878D01*
X0066026Y0108150D02*
X0069024Y0108150D01*
X0069024Y0109148D02*
X0067024Y0109148D01*
X0064213Y0111145D02*
X0028655Y0111145D01*
X0028655Y0110147D02*
X0059689Y0110147D01*
X0059181Y0109148D02*
X0028655Y0109148D01*
X0028655Y0108150D02*
X0059181Y0108150D01*
X0059181Y0107151D02*
X0028655Y0107151D01*
X0028655Y0106153D02*
X0059181Y0106153D01*
X0059181Y0105154D02*
X0028655Y0105154D01*
X0028655Y0105135D02*
X0028655Y0113974D01*
X0027953Y0114677D01*
X0023021Y0114677D01*
X0022319Y0113974D01*
X0022319Y0105135D01*
X0022287Y0105059D01*
X0022287Y0092439D01*
X0021650Y0090901D01*
X0021650Y0088951D01*
X0022396Y0087150D01*
X0023774Y0085772D01*
X0025575Y0085026D01*
X0027525Y0085026D01*
X0029326Y0085772D01*
X0030704Y0087150D01*
X0031450Y0088951D01*
X0031450Y0090901D01*
X0030704Y0092702D01*
X0029326Y0094080D01*
X0028687Y0094345D01*
X0028687Y0105059D01*
X0028655Y0105135D01*
X0028687Y0104156D02*
X0052743Y0104156D01*
X0052050Y0103157D02*
X0028687Y0103157D01*
X0028687Y0102159D02*
X0045768Y0102159D01*
X0045500Y0101160D02*
X0028687Y0101160D01*
X0028687Y0100162D02*
X0045500Y0100162D01*
X0045500Y0099163D02*
X0028687Y0099163D01*
X0028687Y0098165D02*
X0045500Y0098165D01*
X0046243Y0097166D02*
X0028687Y0097166D01*
X0028687Y0096168D02*
X0039577Y0096168D01*
X0039500Y0095169D02*
X0028687Y0095169D01*
X0029107Y0094170D02*
X0039500Y0094170D01*
X0039500Y0093172D02*
X0030234Y0093172D01*
X0030923Y0092173D02*
X0039500Y0092173D01*
X0040434Y0091175D02*
X0031336Y0091175D01*
X0031450Y0090176D02*
X0040650Y0090176D01*
X0040650Y0089178D02*
X0031450Y0089178D01*
X0031130Y0088179D02*
X0039784Y0088179D01*
X0038785Y0087181D02*
X0030717Y0087181D01*
X0029736Y0086182D02*
X0037787Y0086182D01*
X0036788Y0085184D02*
X0027906Y0085184D01*
X0025194Y0085184D02*
X0003550Y0085184D01*
X0003550Y0086182D02*
X0023364Y0086182D01*
X0022383Y0087181D02*
X0003550Y0087181D01*
X0003550Y0088179D02*
X0021970Y0088179D01*
X0021650Y0089178D02*
X0003550Y0089178D01*
X0003550Y0090176D02*
X0021650Y0090176D01*
X0021764Y0091175D02*
X0003550Y0091175D01*
X0003550Y0092173D02*
X0022177Y0092173D01*
X0022287Y0093172D02*
X0003550Y0093172D01*
X0003550Y0094170D02*
X0022287Y0094170D01*
X0022287Y0095169D02*
X0003550Y0095169D01*
X0003550Y0096168D02*
X0022287Y0096168D01*
X0022287Y0097166D02*
X0003550Y0097166D01*
X0003550Y0098165D02*
X0022287Y0098165D01*
X0022287Y0099163D02*
X0003550Y0099163D01*
X0003550Y0100162D02*
X0022287Y0100162D01*
X0022287Y0101160D02*
X0003550Y0101160D01*
X0003550Y0102159D02*
X0022287Y0102159D01*
X0022287Y0103157D02*
X0003550Y0103157D01*
X0003550Y0104156D02*
X0022287Y0104156D01*
X0022319Y0105154D02*
X0003550Y0105154D01*
X0003550Y0106153D02*
X0022319Y0106153D01*
X0022319Y0107151D02*
X0003550Y0107151D01*
X0003550Y0108150D02*
X0022319Y0108150D01*
X0022319Y0109148D02*
X0003550Y0109148D01*
X0003550Y0110147D02*
X0022319Y0110147D01*
X0022319Y0111145D02*
X0003550Y0111145D01*
X0003550Y0112144D02*
X0022319Y0112144D01*
X0022319Y0113142D02*
X0003550Y0113142D01*
X0003550Y0114141D02*
X0022485Y0114141D01*
X0028489Y0114141D02*
X0104650Y0114141D01*
X0104650Y0115139D02*
X0069641Y0115139D01*
X0070053Y0115310D02*
X0068887Y0114827D01*
X0067624Y0114827D01*
X0066458Y0115310D01*
X0065565Y0116203D01*
X0065082Y0117369D01*
X0065082Y0118631D01*
X0065565Y0119797D01*
X0066458Y0120690D01*
X0067624Y0121173D01*
X0068887Y0121173D01*
X0070053Y0120690D01*
X0070946Y0119797D01*
X0071429Y0118631D01*
X0071429Y0117369D01*
X0070946Y0116203D01*
X0070053Y0115310D01*
X0070881Y0116138D02*
X0104650Y0116138D01*
X0104650Y0117136D02*
X0071332Y0117136D01*
X0071429Y0118135D02*
X0104650Y0118135D01*
X0104650Y0119133D02*
X0071221Y0119133D01*
X0070611Y0120132D02*
X0104682Y0120132D01*
X0101203Y0124126D02*
X0039285Y0124126D01*
X0039285Y0125124D02*
X0101050Y0125124D01*
X0101050Y0126123D02*
X0075123Y0126123D01*
X0075361Y0127121D02*
X0101050Y0127121D01*
X0101050Y0128120D02*
X0075361Y0128120D01*
X0075361Y0129118D02*
X0101050Y0129118D01*
X0101050Y0130117D02*
X0075361Y0130117D01*
X0075361Y0131115D02*
X0101244Y0131115D01*
X0116418Y0120132D02*
X0126534Y0120132D01*
X0126534Y0121130D02*
X0068990Y0121130D01*
X0067521Y0121130D02*
X0057179Y0121130D01*
X0057076Y0121173D02*
X0055813Y0121173D01*
X0054647Y0120690D01*
X0053754Y0119797D01*
X0053271Y0118631D01*
X0053271Y0117369D01*
X0053754Y0116203D01*
X0054647Y0115310D01*
X0055813Y0114827D01*
X0057076Y0114827D01*
X0058242Y0115310D01*
X0059135Y0116203D01*
X0059618Y0117369D01*
X0059618Y0118631D01*
X0059135Y0119797D01*
X0058242Y0120690D01*
X0057076Y0121173D01*
X0055710Y0121130D02*
X0039285Y0121130D01*
X0039285Y0120132D02*
X0054089Y0120132D01*
X0053479Y0119133D02*
X0039285Y0119133D01*
X0039285Y0118135D02*
X0053271Y0118135D01*
X0053368Y0117136D02*
X0038717Y0117136D01*
X0039285Y0122129D02*
X0126534Y0122129D01*
X0126534Y0123127D02*
X0039285Y0123127D01*
X0039285Y0126123D02*
X0049577Y0126123D01*
X0049339Y0127121D02*
X0039285Y0127121D01*
X0039285Y0128120D02*
X0049339Y0128120D01*
X0049339Y0129118D02*
X0039285Y0129118D01*
X0039285Y0130117D02*
X0049339Y0130117D01*
X0049339Y0131115D02*
X0039285Y0131115D01*
X0030586Y0131115D02*
X0012514Y0131115D01*
X0012514Y0130117D02*
X0030586Y0130117D01*
X0030586Y0129118D02*
X0012514Y0129118D01*
X0012514Y0128120D02*
X0030586Y0128120D01*
X0030586Y0127121D02*
X0012514Y0127121D01*
X0012514Y0126123D02*
X0030586Y0126123D01*
X0030586Y0125124D02*
X0012514Y0125124D01*
X0012514Y0124126D02*
X0030586Y0124126D01*
X0030586Y0123127D02*
X0012514Y0123127D01*
X0012514Y0122129D02*
X0030586Y0122129D01*
X0030586Y0121130D02*
X0012514Y0121130D01*
X0012514Y0120132D02*
X0030586Y0120132D01*
X0030586Y0119133D02*
X0012514Y0119133D01*
X0012514Y0118135D02*
X0030586Y0118135D01*
X0031154Y0117136D02*
X0011945Y0117136D01*
X0004383Y0117136D02*
X0003550Y0117136D01*
X0003550Y0116138D02*
X0053819Y0116138D01*
X0055059Y0115139D02*
X0003550Y0115139D01*
X0003550Y0118135D02*
X0003815Y0118135D01*
X0003815Y0119133D02*
X0003550Y0119133D01*
X0003550Y0120132D02*
X0003815Y0120132D01*
X0003815Y0121130D02*
X0003550Y0121130D01*
X0003550Y0122129D02*
X0003815Y0122129D01*
X0003815Y0123127D02*
X0003550Y0123127D01*
X0003550Y0124126D02*
X0003815Y0124126D01*
X0003815Y0125124D02*
X0003550Y0125124D01*
X0003550Y0126123D02*
X0003815Y0126123D01*
X0003815Y0127121D02*
X0003550Y0127121D01*
X0003550Y0128120D02*
X0003815Y0128120D01*
X0003815Y0129118D02*
X0003550Y0129118D01*
X0003550Y0130117D02*
X0003815Y0130117D01*
X0003815Y0131115D02*
X0003550Y0131115D01*
X0028655Y0113142D02*
X0111129Y0113142D01*
X0110131Y0112144D02*
X0086310Y0112144D01*
X0087309Y0111145D02*
X0109132Y0111145D01*
X0108350Y0110147D02*
X0088307Y0110147D01*
X0089306Y0109148D02*
X0108350Y0109148D01*
X0108350Y0108150D02*
X0090305Y0108150D01*
X0091303Y0107151D02*
X0108350Y0107151D01*
X0108350Y0106153D02*
X0092302Y0106153D01*
X0093300Y0105154D02*
X0107741Y0105154D01*
X0106743Y0104156D02*
X0093850Y0104156D01*
X0093850Y0103157D02*
X0105744Y0103157D01*
X0105250Y0102159D02*
X0093850Y0102159D01*
X0093850Y0101160D02*
X0105250Y0101160D01*
X0105250Y0100162D02*
X0093850Y0100162D01*
X0093850Y0099163D02*
X0105250Y0099163D01*
X0105250Y0098165D02*
X0093850Y0098165D01*
X0093850Y0097166D02*
X0105250Y0097166D01*
X0104255Y0096168D02*
X0093850Y0096168D01*
X0096150Y0093200D02*
X0096334Y0093016D01*
X0096334Y0084607D01*
X0101157Y0081753D02*
X0103303Y0081753D01*
X0105550Y0084000D01*
X0105550Y0086900D01*
X0110450Y0091800D01*
X0113400Y0092173D02*
X0126534Y0092173D01*
X0126534Y0091175D02*
X0113400Y0091175D01*
X0113400Y0090176D02*
X0126534Y0090176D01*
X0126534Y0089178D02*
X0112769Y0089178D01*
X0109234Y0088179D02*
X0126534Y0088179D01*
X0126534Y0087181D02*
X0108235Y0087181D01*
X0107250Y0086182D02*
X0126534Y0086182D01*
X0126534Y0085184D02*
X0107250Y0085184D01*
X0107250Y0084185D02*
X0126534Y0084185D01*
X0126534Y0083187D02*
X0107141Y0083187D01*
X0109300Y0083900D02*
X0109300Y0086900D01*
X0113800Y0086900D01*
X0113800Y0083900D01*
X0109300Y0083900D01*
X0109300Y0084899D02*
X0113800Y0084899D01*
X0113800Y0085898D02*
X0109300Y0085898D01*
X0109300Y0086897D02*
X0113800Y0086897D01*
X0113400Y0093172D02*
X0126534Y0093172D01*
X0126534Y0094170D02*
X0113020Y0094170D01*
X0112882Y0095169D02*
X0126534Y0095169D01*
X0126534Y0096168D02*
X0113450Y0096168D01*
X0113450Y0097166D02*
X0126534Y0097166D01*
X0126534Y0098165D02*
X0113450Y0098165D01*
X0113450Y0099163D02*
X0126534Y0099163D01*
X0126534Y0100162D02*
X0113450Y0100162D01*
X0114073Y0101160D02*
X0126534Y0101160D01*
X0126534Y0102159D02*
X0117171Y0102159D01*
X0118170Y0103157D02*
X0126534Y0103157D01*
X0126534Y0104156D02*
X0119168Y0104156D01*
X0120050Y0105154D02*
X0126534Y0105154D01*
X0126534Y0106153D02*
X0120050Y0106153D01*
X0120050Y0107151D02*
X0126534Y0107151D01*
X0126534Y0108150D02*
X0120050Y0108150D01*
X0120050Y0109148D02*
X0126534Y0109148D01*
X0126534Y0110147D02*
X0120050Y0110147D01*
X0119768Y0111145D02*
X0126534Y0111145D01*
X0126534Y0112144D02*
X0118769Y0112144D01*
X0117771Y0113142D02*
X0126534Y0113142D01*
X0126534Y0114141D02*
X0116772Y0114141D01*
X0116650Y0115139D02*
X0126534Y0115139D01*
X0126534Y0116138D02*
X0116650Y0116138D01*
X0116650Y0117136D02*
X0126534Y0117136D01*
X0126534Y0118135D02*
X0116450Y0118135D01*
X0116450Y0119133D02*
X0126534Y0119133D01*
X0126534Y0124126D02*
X0117297Y0124126D01*
X0117450Y0125124D02*
X0126534Y0125124D01*
X0126534Y0126123D02*
X0117450Y0126123D01*
X0117450Y0127121D02*
X0126534Y0127121D01*
X0126534Y0128120D02*
X0117450Y0128120D01*
X0117450Y0129118D02*
X0126534Y0129118D01*
X0126534Y0130117D02*
X0117450Y0130117D01*
X0117256Y0131115D02*
X0126534Y0131115D01*
X0117650Y0100750D02*
X0114650Y0100750D01*
X0117650Y0100750D02*
X0117650Y0096250D01*
X0114650Y0096250D01*
X0114650Y0100750D01*
X0114650Y0097249D02*
X0117650Y0097249D01*
X0117650Y0098248D02*
X0114650Y0098248D01*
X0114650Y0099247D02*
X0117650Y0099247D01*
X0117650Y0100246D02*
X0114650Y0100246D01*
X0110650Y0100750D02*
X0107650Y0100750D01*
X0110650Y0100750D02*
X0110650Y0096250D01*
X0107650Y0096250D01*
X0107650Y0100750D01*
X0107650Y0097249D02*
X0110650Y0097249D01*
X0110650Y0098248D02*
X0107650Y0098248D01*
X0107650Y0099247D02*
X0110650Y0099247D01*
X0110650Y0100246D02*
X0107650Y0100246D01*
X0103256Y0095169D02*
X0099100Y0095169D01*
X0099100Y0094170D02*
X0102258Y0094170D01*
X0101259Y0093172D02*
X0099100Y0093172D01*
X0099100Y0092173D02*
X0100261Y0092173D01*
X0099262Y0091175D02*
X0099066Y0091175D01*
X0098264Y0090176D02*
X0098034Y0090176D01*
X0085578Y0095169D02*
X0085222Y0095169D01*
X0080333Y0090176D02*
X0079367Y0090176D01*
X0079422Y0095169D02*
X0079878Y0095169D01*
X0084350Y0088179D02*
X0072250Y0088179D01*
X0072250Y0087181D02*
X0084350Y0087181D01*
X0084350Y0086182D02*
X0072250Y0086182D01*
X0072250Y0085184D02*
X0084350Y0085184D01*
X0084350Y0084185D02*
X0072724Y0084185D01*
X0073723Y0083187D02*
X0084350Y0083187D01*
X0085157Y0082188D02*
X0074721Y0082188D01*
X0070796Y0078194D02*
X0047250Y0078194D01*
X0047250Y0077196D02*
X0071794Y0077196D01*
X0072793Y0076197D02*
X0047250Y0076197D01*
X0047250Y0075199D02*
X0066296Y0075199D01*
X0065840Y0075010D02*
X0066755Y0075389D01*
X0067745Y0075389D01*
X0068660Y0075010D01*
X0069360Y0074310D01*
X0069739Y0073395D01*
X0069739Y0072405D01*
X0069431Y0071660D01*
X0070300Y0070791D01*
X0070300Y0066809D01*
X0069341Y0065850D01*
X0065359Y0065850D01*
X0064400Y0066809D01*
X0064400Y0069487D01*
X0064063Y0069824D01*
X0060681Y0069824D01*
X0060681Y0069254D01*
X0059978Y0068551D01*
X0059112Y0068551D01*
X0059112Y0064099D01*
X0058500Y0063487D01*
X0058500Y0060809D01*
X0057541Y0059850D01*
X0053559Y0059850D01*
X0052600Y0060809D01*
X0052600Y0064791D01*
X0053004Y0065194D01*
X0052591Y0065365D01*
X0052294Y0065662D01*
X0052285Y0065641D01*
X0051609Y0064965D01*
X0050727Y0064600D01*
X0049773Y0064600D01*
X0048891Y0064965D01*
X0048215Y0065641D01*
X0048050Y0066040D01*
X0048050Y0065123D01*
X0047685Y0064241D01*
X0047009Y0063565D01*
X0046127Y0063200D01*
X0045173Y0063200D01*
X0044291Y0063565D01*
X0044094Y0063762D01*
X0044085Y0063741D01*
X0043750Y0063406D01*
X0043750Y0061200D01*
X0043927Y0061200D01*
X0044809Y0060835D01*
X0045485Y0060159D01*
X0045850Y0059277D01*
X0045850Y0058323D01*
X0045551Y0057600D01*
X0045583Y0057600D01*
X0046087Y0057688D01*
X0046213Y0057600D01*
X0060371Y0057600D01*
X0060971Y0057000D01*
X0061534Y0056437D01*
X0064148Y0056458D01*
X0064148Y0056458D01*
X0065183Y0056466D01*
X0065183Y0056466D01*
X0066406Y0056476D01*
X0066456Y0056477D01*
X0068857Y0056496D01*
X0071257Y0056515D01*
X0071257Y0056515D01*
X0076924Y0056561D01*
X0076650Y0057223D01*
X0076650Y0058177D01*
X0077015Y0059059D01*
X0077350Y0059394D01*
X0077350Y0069704D01*
X0078346Y0070700D01*
X0079700Y0072054D01*
X0079700Y0074591D01*
X0080609Y0075500D01*
X0080329Y0075500D01*
X0080279Y0075550D01*
X0080059Y0075550D01*
X0079909Y0075700D01*
X0073893Y0075700D01*
X0072864Y0076126D01*
X0067864Y0081126D01*
X0067076Y0081914D01*
X0066650Y0082943D01*
X0066650Y0090337D01*
X0061688Y0085376D01*
X0060681Y0085376D01*
X0060681Y0084805D01*
X0059978Y0084102D01*
X0050322Y0084102D01*
X0049619Y0084805D01*
X0049619Y0085282D01*
X0047250Y0082913D01*
X0047250Y0067394D01*
X0047685Y0066959D01*
X0047850Y0066560D01*
X0047850Y0067477D01*
X0048215Y0068359D01*
X0048891Y0069035D01*
X0049613Y0069334D01*
X0049613Y0072087D01*
X0049619Y0072093D01*
X0049619Y0073595D01*
X0050322Y0074298D01*
X0053679Y0074298D01*
X0054363Y0073614D01*
X0055047Y0074298D01*
X0059978Y0074298D01*
X0060681Y0073595D01*
X0060681Y0073024D01*
X0064063Y0073024D01*
X0064761Y0073024D01*
X0064761Y0073395D01*
X0065140Y0074310D01*
X0065840Y0075010D01*
X0065095Y0074200D02*
X0060075Y0074200D01*
X0060681Y0073202D02*
X0064761Y0073202D01*
X0068204Y0075199D02*
X0080308Y0075199D01*
X0079700Y0074200D02*
X0069405Y0074200D01*
X0069739Y0073202D02*
X0079700Y0073202D01*
X0079700Y0072203D02*
X0069655Y0072203D01*
X0069886Y0071205D02*
X0078851Y0071205D01*
X0077852Y0070206D02*
X0070300Y0070206D01*
X0070300Y0069208D02*
X0077350Y0069208D01*
X0077350Y0068209D02*
X0070300Y0068209D01*
X0070300Y0067211D02*
X0077350Y0067211D01*
X0077350Y0066212D02*
X0069703Y0066212D01*
X0064997Y0066212D02*
X0059112Y0066212D01*
X0059112Y0065214D02*
X0077350Y0065214D01*
X0077350Y0064215D02*
X0059112Y0064215D01*
X0058500Y0063217D02*
X0077350Y0063217D01*
X0077350Y0062218D02*
X0058500Y0062218D01*
X0058500Y0061220D02*
X0077350Y0061220D01*
X0077350Y0060221D02*
X0057912Y0060221D01*
X0060746Y0057226D02*
X0076650Y0057226D01*
X0076669Y0058224D02*
X0045809Y0058224D01*
X0045850Y0059223D02*
X0077178Y0059223D01*
X0079050Y0057700D02*
X0079050Y0069000D01*
X0088578Y0063217D02*
X0089919Y0063217D01*
X0089309Y0064215D02*
X0089188Y0064215D01*
X0089197Y0058224D02*
X0089300Y0058224D01*
X0090192Y0050236D02*
X0086303Y0050236D01*
X0089350Y0048239D02*
X0081550Y0048239D01*
X0081484Y0049237D02*
X0089499Y0049237D01*
X0089150Y0047240D02*
X0081185Y0047240D01*
X0079729Y0046242D02*
X0088800Y0046242D01*
X0088800Y0045243D02*
X0078198Y0045243D01*
X0077199Y0044245D02*
X0088800Y0044245D01*
X0088800Y0043246D02*
X0076201Y0043246D01*
X0075202Y0042248D02*
X0089461Y0042248D01*
X0089159Y0041249D02*
X0074204Y0041249D01*
X0073779Y0040251D02*
X0088800Y0040251D01*
X0088800Y0039252D02*
X0073196Y0039252D01*
X0071450Y0040900D02*
X0079150Y0048600D01*
X0076816Y0049237D02*
X0069946Y0049237D01*
X0069946Y0048239D02*
X0076385Y0048239D01*
X0075386Y0047240D02*
X0069946Y0047240D01*
X0069946Y0046242D02*
X0074388Y0046242D01*
X0073389Y0045243D02*
X0069946Y0045243D01*
X0069946Y0044245D02*
X0072391Y0044245D01*
X0070843Y0043246D02*
X0069601Y0043246D01*
X0069411Y0042248D02*
X0068602Y0042248D01*
X0069050Y0041249D02*
X0067604Y0041249D01*
X0066605Y0040251D02*
X0069121Y0040251D01*
X0069704Y0039252D02*
X0066400Y0039252D01*
X0066400Y0038254D02*
X0088800Y0038254D01*
X0088800Y0037255D02*
X0066146Y0037255D01*
X0063450Y0039500D02*
X0068246Y0044296D01*
X0068246Y0050700D01*
X0068246Y0050871D01*
X0068246Y0050909D01*
X0070647Y0053310D01*
X0068246Y0053291D02*
X0068246Y0050871D01*
X0065845Y0053272D01*
X0065235Y0050067D02*
X0065235Y0050067D01*
X0064200Y0050058D02*
X0064200Y0050058D01*
X0066546Y0049237D02*
X0060309Y0049237D01*
X0059200Y0047700D02*
X0059200Y0044700D01*
X0054700Y0044700D01*
X0054700Y0047700D01*
X0059200Y0047700D01*
X0059200Y0045699D02*
X0054700Y0045699D01*
X0054700Y0046698D02*
X0059200Y0046698D01*
X0059200Y0047697D02*
X0054700Y0047697D01*
X0052809Y0042935D02*
X0051927Y0043300D01*
X0050973Y0043300D01*
X0050091Y0042935D01*
X0049415Y0042259D01*
X0049050Y0041377D01*
X0049050Y0040423D01*
X0049415Y0039541D01*
X0050091Y0038865D01*
X0050973Y0038500D01*
X0051927Y0038500D01*
X0052809Y0038865D01*
X0053144Y0039200D01*
X0054500Y0039200D01*
X0054500Y0037509D01*
X0055459Y0036550D01*
X0059441Y0036550D01*
X0060400Y0037509D01*
X0060400Y0041491D01*
X0059441Y0042450D01*
X0056904Y0042450D01*
X0056754Y0042600D01*
X0053144Y0042600D01*
X0052809Y0042935D01*
X0052057Y0043246D02*
X0064792Y0043246D01*
X0065791Y0044245D02*
X0043450Y0044245D01*
X0043450Y0045243D02*
X0066546Y0045243D01*
X0066546Y0046242D02*
X0043450Y0046242D01*
X0043450Y0047240D02*
X0066546Y0047240D01*
X0066546Y0048239D02*
X0043450Y0048239D01*
X0043450Y0049237D02*
X0046791Y0049237D01*
X0045793Y0050236D02*
X0043450Y0050236D01*
X0043450Y0051234D02*
X0044794Y0051234D01*
X0051600Y0051700D02*
X0051600Y0054700D01*
X0051600Y0051700D02*
X0047100Y0051700D01*
X0047100Y0054700D01*
X0051600Y0054700D01*
X0051600Y0052699D02*
X0047100Y0052699D01*
X0047100Y0053698D02*
X0051600Y0053698D01*
X0051600Y0054697D02*
X0047100Y0054697D01*
X0043450Y0058800D02*
X0042405Y0057755D01*
X0038650Y0057755D01*
X0040058Y0057755D01*
X0040174Y0059724D02*
X0038650Y0059724D01*
X0038650Y0061692D02*
X0038650Y0067000D01*
X0036450Y0069200D01*
X0033050Y0069200D01*
X0030100Y0069208D02*
X0030100Y0069208D01*
X0030100Y0070206D02*
X0030100Y0070206D01*
X0030086Y0071205D02*
X0030114Y0071205D01*
X0030107Y0073202D02*
X0024200Y0073202D01*
X0024200Y0074200D02*
X0030100Y0074200D01*
X0030100Y0075199D02*
X0023392Y0075199D01*
X0024200Y0072203D02*
X0044050Y0072203D01*
X0044050Y0071205D02*
X0037839Y0071205D01*
X0038631Y0070206D02*
X0044050Y0070206D01*
X0044050Y0069208D02*
X0038850Y0069208D01*
X0039845Y0068209D02*
X0044050Y0068209D01*
X0043867Y0067211D02*
X0043226Y0067211D01*
X0042050Y0065100D02*
X0042050Y0061600D01*
X0040174Y0059724D01*
X0043750Y0061220D02*
X0052600Y0061220D01*
X0052600Y0062218D02*
X0043750Y0062218D01*
X0043750Y0063217D02*
X0045132Y0063217D01*
X0046168Y0063217D02*
X0052600Y0063217D01*
X0052600Y0064215D02*
X0047659Y0064215D01*
X0048050Y0065214D02*
X0048642Y0065214D01*
X0047850Y0067211D02*
X0047433Y0067211D01*
X0047250Y0068209D02*
X0048153Y0068209D01*
X0047250Y0069208D02*
X0049308Y0069208D01*
X0049613Y0070206D02*
X0047250Y0070206D01*
X0047250Y0071205D02*
X0049613Y0071205D01*
X0049619Y0072203D02*
X0047250Y0072203D01*
X0047250Y0073202D02*
X0049619Y0073202D01*
X0050225Y0074200D02*
X0047250Y0074200D01*
X0044050Y0074200D02*
X0036000Y0074200D01*
X0035993Y0073202D02*
X0044050Y0073202D01*
X0044050Y0075199D02*
X0036000Y0075199D01*
X0036000Y0076197D02*
X0044050Y0076197D01*
X0044050Y0077196D02*
X0035995Y0077196D01*
X0034890Y0078194D02*
X0044050Y0078194D01*
X0044050Y0079193D02*
X0035888Y0079193D01*
X0036887Y0080191D02*
X0044050Y0080191D01*
X0044050Y0081190D02*
X0037885Y0081190D01*
X0038884Y0082188D02*
X0044050Y0082188D01*
X0044050Y0083187D02*
X0039882Y0083187D01*
X0040881Y0084185D02*
X0044050Y0084185D01*
X0044996Y0085184D02*
X0041879Y0085184D01*
X0042878Y0086182D02*
X0045994Y0086182D01*
X0046993Y0087181D02*
X0043876Y0087181D01*
X0044250Y0088179D02*
X0047991Y0088179D01*
X0049613Y0089178D02*
X0044250Y0089178D01*
X0044250Y0090176D02*
X0049613Y0090176D01*
X0046434Y0091175D02*
X0044466Y0091175D01*
X0045400Y0092173D02*
X0045500Y0092173D01*
X0045500Y0093172D02*
X0045400Y0093172D01*
X0045400Y0094170D02*
X0045500Y0094170D01*
X0045500Y0095169D02*
X0045400Y0095169D01*
X0045323Y0096168D02*
X0045577Y0096168D01*
X0051132Y0102159D02*
X0052050Y0102159D01*
X0057830Y0115139D02*
X0066870Y0115139D01*
X0065630Y0116138D02*
X0059070Y0116138D01*
X0059521Y0117136D02*
X0065179Y0117136D01*
X0065082Y0118135D02*
X0059618Y0118135D01*
X0059410Y0119133D02*
X0065290Y0119133D01*
X0065900Y0120132D02*
X0058800Y0120132D01*
X0059420Y0126123D02*
X0055438Y0126123D01*
X0055676Y0127121D02*
X0059181Y0127121D01*
X0059181Y0128120D02*
X0055676Y0128120D01*
X0055676Y0129118D02*
X0059181Y0129118D01*
X0059181Y0130117D02*
X0055676Y0130117D01*
X0055676Y0131115D02*
X0059181Y0131115D01*
X0065518Y0131115D02*
X0069024Y0131115D01*
X0069024Y0130117D02*
X0065518Y0130117D01*
X0065518Y0129118D02*
X0069024Y0129118D01*
X0069024Y0128120D02*
X0065518Y0128120D01*
X0065518Y0127121D02*
X0069024Y0127121D01*
X0069262Y0126123D02*
X0065280Y0126123D01*
X0065212Y0112144D02*
X0028655Y0112144D01*
X0049521Y0085184D02*
X0049619Y0085184D01*
X0050239Y0084185D02*
X0048523Y0084185D01*
X0047524Y0083187D02*
X0066650Y0083187D01*
X0066650Y0084185D02*
X0060061Y0084185D01*
X0060681Y0085184D02*
X0066650Y0085184D01*
X0066650Y0086182D02*
X0062495Y0086182D01*
X0063494Y0087181D02*
X0066650Y0087181D01*
X0066650Y0088179D02*
X0064492Y0088179D01*
X0065491Y0089178D02*
X0066650Y0089178D01*
X0066650Y0090176D02*
X0066489Y0090176D01*
X0066963Y0082188D02*
X0047250Y0082188D01*
X0047250Y0081190D02*
X0067800Y0081190D01*
X0068799Y0080191D02*
X0047250Y0080191D01*
X0047250Y0079193D02*
X0069797Y0079193D01*
X0064400Y0069208D02*
X0060634Y0069208D01*
X0059112Y0068209D02*
X0064400Y0068209D01*
X0064400Y0067211D02*
X0059112Y0067211D01*
X0052957Y0065214D02*
X0051858Y0065214D01*
X0053188Y0060221D02*
X0045423Y0060221D01*
X0040874Y0067211D02*
X0040350Y0067211D01*
X0036950Y0066212D02*
X0030026Y0066212D01*
X0030100Y0067211D02*
X0030100Y0067211D01*
X0030100Y0068209D02*
X0030100Y0068209D01*
X0029857Y0065214D02*
X0036950Y0065214D01*
X0036950Y0064215D02*
X0029426Y0064215D01*
X0029426Y0063217D02*
X0036950Y0063217D01*
X0036269Y0062218D02*
X0030007Y0062218D01*
X0030007Y0061220D02*
X0036269Y0061220D01*
X0036269Y0060221D02*
X0029229Y0060221D01*
X0029233Y0059223D02*
X0036269Y0059223D01*
X0036269Y0058224D02*
X0030007Y0058224D01*
X0030007Y0057226D02*
X0036269Y0057226D01*
X0036150Y0056227D02*
X0030150Y0056227D01*
X0030150Y0055229D02*
X0036150Y0055229D01*
X0036150Y0054230D02*
X0030150Y0054230D01*
X0030044Y0053232D02*
X0036150Y0053232D01*
X0036250Y0052233D02*
X0030150Y0052233D01*
X0030150Y0051234D02*
X0036250Y0051234D01*
X0036250Y0050236D02*
X0030150Y0050236D01*
X0030150Y0049237D02*
X0036250Y0049237D01*
X0036250Y0048239D02*
X0030150Y0048239D01*
X0030150Y0047240D02*
X0036250Y0047240D01*
X0036250Y0046242D02*
X0030150Y0046242D01*
X0030150Y0045243D02*
X0036250Y0045243D01*
X0036250Y0044245D02*
X0030150Y0044245D01*
X0030150Y0043246D02*
X0036250Y0043246D01*
X0036250Y0042248D02*
X0030150Y0042248D01*
X0030150Y0041249D02*
X0036250Y0041249D01*
X0036250Y0040251D02*
X0030150Y0040251D01*
X0030150Y0039252D02*
X0036250Y0039252D01*
X0036250Y0038254D02*
X0030150Y0038254D01*
X0030150Y0037255D02*
X0036250Y0037255D01*
X0036250Y0036257D02*
X0030150Y0036257D01*
X0030150Y0035258D02*
X0036250Y0035258D01*
X0036250Y0034260D02*
X0030150Y0034260D01*
X0030150Y0033261D02*
X0036250Y0033261D01*
X0036250Y0032263D02*
X0030150Y0032263D01*
X0030150Y0031264D02*
X0036250Y0031264D01*
X0036263Y0030266D02*
X0030150Y0030266D01*
X0029339Y0029267D02*
X0086600Y0029267D01*
X0086600Y0028269D02*
X0022268Y0028269D01*
X0023458Y0027270D02*
X0086531Y0027270D01*
X0086531Y0026272D02*
X0024068Y0026272D01*
X0024644Y0025273D02*
X0086531Y0025273D01*
X0086531Y0024275D02*
X0025220Y0024275D01*
X0025712Y0023424D02*
X0025712Y0023424D01*
X0025738Y0023276D02*
X0086531Y0023276D01*
X0086531Y0022278D02*
X0025914Y0022278D01*
X0026090Y0021279D02*
X0033364Y0021279D01*
X0032366Y0020281D02*
X0026266Y0020281D01*
X0026442Y0019282D02*
X0031367Y0019282D01*
X0030369Y0018284D02*
X0026326Y0018284D01*
X0026150Y0017285D02*
X0027538Y0017285D01*
X0027000Y0016287D02*
X0025974Y0016287D01*
X0025798Y0015288D02*
X0027000Y0015288D01*
X0027000Y0014290D02*
X0025418Y0014290D01*
X0025712Y0014798D02*
X0025712Y0014798D01*
X0024842Y0013291D02*
X0027000Y0013291D01*
X0027000Y0012293D02*
X0024265Y0012293D01*
X0023689Y0011294D02*
X0027000Y0011294D01*
X0027000Y0010296D02*
X0022676Y0010296D01*
X0023522Y0011005D02*
X0023522Y0011005D01*
X0021486Y0009297D02*
X0027000Y0009297D01*
X0035447Y0008800D02*
X0035900Y0009253D01*
X0035900Y0016747D01*
X0035831Y0016816D01*
X0035865Y0016850D01*
X0049116Y0016850D01*
X0048929Y0016773D01*
X0047677Y0015521D01*
X0047000Y0013885D01*
X0047000Y0012115D01*
X0047677Y0010479D01*
X0048929Y0009227D01*
X0049961Y0008800D01*
X0035447Y0008800D01*
X0035900Y0009297D02*
X0048860Y0009297D01*
X0047861Y0010296D02*
X0035900Y0010296D01*
X0035900Y0011294D02*
X0047340Y0011294D01*
X0047000Y0012293D02*
X0035900Y0012293D01*
X0035900Y0013291D02*
X0047000Y0013291D01*
X0047168Y0014290D02*
X0035900Y0014290D01*
X0035900Y0015288D02*
X0047581Y0015288D01*
X0048443Y0016287D02*
X0035900Y0016287D01*
X0046250Y0030266D02*
X0086712Y0030266D01*
X0090543Y0032263D02*
X0046250Y0032263D01*
X0046250Y0033261D02*
X0090519Y0033261D01*
X0090984Y0034260D02*
X0046250Y0034260D01*
X0046250Y0035258D02*
X0091319Y0035258D01*
X0089452Y0036257D02*
X0046250Y0036257D01*
X0046250Y0037255D02*
X0054754Y0037255D01*
X0054500Y0038254D02*
X0046250Y0038254D01*
X0046250Y0039252D02*
X0049704Y0039252D01*
X0049121Y0040251D02*
X0046250Y0040251D01*
X0045722Y0041249D02*
X0049050Y0041249D01*
X0049411Y0042248D02*
X0044723Y0042248D01*
X0043725Y0043246D02*
X0050843Y0043246D01*
X0051450Y0040900D02*
X0056050Y0040900D01*
X0057450Y0039500D01*
X0060400Y0039252D02*
X0060500Y0039252D01*
X0060500Y0038254D02*
X0060400Y0038254D01*
X0060146Y0037255D02*
X0060754Y0037255D01*
X0060500Y0040251D02*
X0060400Y0040251D01*
X0060400Y0041249D02*
X0060500Y0041249D01*
X0061257Y0042248D02*
X0059643Y0042248D01*
X0051600Y0044700D02*
X0051600Y0047700D01*
X0051600Y0044700D02*
X0047100Y0044700D01*
X0047100Y0047700D01*
X0051600Y0047700D01*
X0051600Y0045699D02*
X0047100Y0045699D01*
X0047100Y0046698D02*
X0051600Y0046698D01*
X0051600Y0047697D02*
X0047100Y0047697D01*
X0038650Y0049881D02*
X0038650Y0038500D01*
X0041650Y0035500D01*
X0046250Y0031264D02*
X0091060Y0031264D01*
X0094341Y0041249D02*
X0094859Y0041249D01*
X0095161Y0042248D02*
X0094039Y0042248D01*
X0101600Y0032263D02*
X0105148Y0032263D01*
X0104149Y0031264D02*
X0101600Y0031264D01*
X0101600Y0030266D02*
X0103151Y0030266D01*
X0102152Y0029267D02*
X0101600Y0029267D01*
X0103995Y0021280D02*
X0103612Y0019111D01*
X0104373Y0014798D01*
X0104373Y0014798D01*
X0106563Y0011005D01*
X0109190Y0008800D01*
X0072939Y0008800D01*
X0073971Y0009227D01*
X0075223Y0010479D01*
X0075900Y0012115D01*
X0075900Y0013885D01*
X0075223Y0015521D01*
X0073971Y0016773D01*
X0073784Y0016850D01*
X0098063Y0016850D01*
X0099037Y0016850D01*
X0099938Y0017223D01*
X0103995Y0021280D01*
X0103994Y0021279D02*
X0103995Y0021279D01*
X0103818Y0020281D02*
X0102995Y0020281D01*
X0103642Y0019282D02*
X0101997Y0019282D01*
X0100998Y0018284D02*
X0103758Y0018284D01*
X0103612Y0019111D02*
X0103612Y0019111D01*
X0103934Y0017285D02*
X0100000Y0017285D01*
X0104110Y0016287D02*
X0074457Y0016287D01*
X0075319Y0015288D02*
X0104286Y0015288D01*
X0104666Y0014290D02*
X0075732Y0014290D01*
X0075900Y0013291D02*
X0105243Y0013291D01*
X0105819Y0012293D02*
X0075900Y0012293D01*
X0075560Y0011294D02*
X0106396Y0011294D01*
X0106563Y0011005D02*
X0106563Y0011005D01*
X0106563Y0011005D01*
X0107408Y0010296D02*
X0075039Y0010296D01*
X0074040Y0009297D02*
X0108598Y0009297D01*
X0069961Y0008800D02*
X0062939Y0008800D01*
X0063971Y0009227D01*
X0065223Y0010479D01*
X0065900Y0012115D01*
X0065900Y0013885D01*
X0065223Y0015521D01*
X0063971Y0016773D01*
X0063784Y0016850D01*
X0069116Y0016850D01*
X0068929Y0016773D01*
X0067677Y0015521D01*
X0067000Y0013885D01*
X0067000Y0012115D01*
X0067677Y0010479D01*
X0068929Y0009227D01*
X0069961Y0008800D01*
X0068860Y0009297D02*
X0064040Y0009297D01*
X0065039Y0010296D02*
X0067861Y0010296D01*
X0067340Y0011294D02*
X0065560Y0011294D01*
X0065900Y0012293D02*
X0067000Y0012293D01*
X0067000Y0013291D02*
X0065900Y0013291D01*
X0065732Y0014290D02*
X0067168Y0014290D01*
X0067581Y0015288D02*
X0065319Y0015288D01*
X0064457Y0016287D02*
X0068443Y0016287D01*
X0059961Y0008800D02*
X0052939Y0008800D01*
X0053971Y0009227D01*
X0055223Y0010479D01*
X0055900Y0012115D01*
X0055900Y0013885D01*
X0055223Y0015521D01*
X0053971Y0016773D01*
X0053784Y0016850D01*
X0059116Y0016850D01*
X0058929Y0016773D01*
X0057677Y0015521D01*
X0057000Y0013885D01*
X0057000Y0012115D01*
X0057677Y0010479D01*
X0058929Y0009227D01*
X0059961Y0008800D01*
X0058860Y0009297D02*
X0054040Y0009297D01*
X0055039Y0010296D02*
X0057861Y0010296D01*
X0057340Y0011294D02*
X0055560Y0011294D01*
X0055900Y0012293D02*
X0057000Y0012293D01*
X0057000Y0013291D02*
X0055900Y0013291D01*
X0055732Y0014290D02*
X0057168Y0014290D01*
X0057581Y0015288D02*
X0055319Y0015288D01*
X0054457Y0016287D02*
X0058443Y0016287D01*
X0027626Y0038799D02*
X0024327Y0035500D01*
X0027626Y0038799D02*
X0027626Y0049881D01*
X0027626Y0051850D01*
X0026024Y0060221D02*
X0024474Y0060221D01*
X0025245Y0061220D02*
X0023476Y0061220D01*
X0023050Y0062218D02*
X0025245Y0062218D01*
X0025826Y0063217D02*
X0023050Y0063217D01*
X0023706Y0064215D02*
X0025826Y0064215D01*
X0025396Y0065214D02*
X0024200Y0065214D01*
X0024200Y0066212D02*
X0025226Y0066212D01*
X0024200Y0067211D02*
X0024200Y0067211D01*
X0024200Y0068209D02*
X0024200Y0068209D01*
X0024200Y0069208D02*
X0023683Y0069208D01*
X0023997Y0070206D02*
X0024200Y0070206D01*
X0024200Y0071205D02*
X0024214Y0071205D01*
X0018817Y0069208D02*
X0017683Y0069208D01*
X0018200Y0068209D02*
X0018300Y0068209D01*
X0018300Y0067211D02*
X0018200Y0067211D01*
X0018250Y0066212D02*
X0018300Y0066212D01*
X0018503Y0070206D02*
X0014289Y0070206D01*
X0013291Y0071205D02*
X0018300Y0071205D01*
X0018300Y0072203D02*
X0013200Y0072203D01*
X0013200Y0073202D02*
X0018300Y0073202D01*
X0018300Y0074200D02*
X0013200Y0074200D01*
X0013394Y0075199D02*
X0019108Y0075199D01*
X0015391Y0077196D02*
X0030105Y0077196D01*
X0030100Y0076197D02*
X0014393Y0076197D01*
X0012297Y0079193D02*
X0003550Y0079193D01*
X0003550Y0080191D02*
X0013296Y0080191D01*
X0011299Y0078194D02*
X0003550Y0078194D01*
X0003550Y0077196D02*
X0010300Y0077196D01*
X0009600Y0076197D02*
X0003550Y0076197D01*
X0003550Y0075199D02*
X0009600Y0075199D01*
X0009600Y0074200D02*
X0003550Y0074200D01*
X0003550Y0073202D02*
X0009600Y0073202D01*
X0009600Y0072203D02*
X0003550Y0072203D01*
X0003550Y0071205D02*
X0009600Y0071205D01*
X0009600Y0070206D02*
X0003550Y0070206D01*
X0003550Y0069208D02*
X0010197Y0069208D01*
X0011195Y0068209D02*
X0003550Y0068209D01*
X0003550Y0067211D02*
X0012194Y0067211D01*
X0012287Y0066300D02*
X0012287Y0066300D01*
X0012199Y0066212D02*
X0003550Y0066212D01*
X0003550Y0065214D02*
X0011350Y0065214D01*
X0011350Y0064215D02*
X0003550Y0064215D01*
X0003550Y0063217D02*
X0011350Y0063217D01*
X0011350Y0062218D02*
X0003550Y0062218D01*
X0003550Y0061220D02*
X0011350Y0061220D01*
X0011350Y0060221D02*
X0003550Y0060221D01*
X0003550Y0059223D02*
X0011350Y0059223D01*
X0011350Y0058224D02*
X0003550Y0058224D01*
X0003550Y0057226D02*
X0011350Y0057226D01*
X0011350Y0056227D02*
X0003550Y0056227D01*
X0003550Y0055229D02*
X0011350Y0055229D01*
X0011350Y0054230D02*
X0003550Y0054230D01*
X0003550Y0053232D02*
X0011350Y0053232D01*
X0011350Y0052233D02*
X0003550Y0052233D01*
X0003550Y0051234D02*
X0011350Y0051234D01*
X0011350Y0050236D02*
X0003550Y0050236D01*
X0003550Y0049237D02*
X0011350Y0049237D01*
X0011350Y0048239D02*
X0003550Y0048239D01*
X0003550Y0047240D02*
X0011350Y0047240D01*
X0011350Y0046242D02*
X0003550Y0046242D01*
X0003550Y0045243D02*
X0011350Y0045243D01*
X0011350Y0044245D02*
X0003550Y0044245D01*
X0003550Y0043246D02*
X0011350Y0043246D01*
X0011350Y0042248D02*
X0003550Y0042248D01*
X0003550Y0041249D02*
X0010837Y0041249D01*
X0009838Y0040251D02*
X0003550Y0040251D01*
X0003550Y0039252D02*
X0009250Y0039252D01*
X0009250Y0038254D02*
X0003550Y0038254D01*
X0003550Y0037255D02*
X0009250Y0037255D01*
X0009250Y0036257D02*
X0003550Y0036257D01*
X0003550Y0035258D02*
X0009250Y0035258D01*
X0009250Y0034260D02*
X0003550Y0034260D01*
X0003550Y0033261D02*
X0009250Y0033261D01*
X0009250Y0032263D02*
X0003550Y0032263D01*
X0003550Y0031264D02*
X0010223Y0031264D01*
X0008196Y0030266D02*
X0003550Y0030266D01*
X0003550Y0029267D02*
X0006644Y0029267D01*
X0007556Y0030032D02*
X0007556Y0030032D01*
X0005454Y0028269D02*
X0003550Y0028269D01*
X0003550Y0027270D02*
X0004264Y0027270D01*
X0004200Y0027217D02*
X0004200Y0027217D01*
X0003655Y0026272D02*
X0003550Y0026272D01*
X0007850Y0042050D02*
X0010850Y0042050D01*
X0007850Y0042050D02*
X0007850Y0046550D01*
X0010850Y0046550D01*
X0010850Y0042050D01*
X0010850Y0043049D02*
X0007850Y0043049D01*
X0007850Y0044048D02*
X0010850Y0044048D01*
X0010850Y0045047D02*
X0007850Y0045047D01*
X0007850Y0046046D02*
X0010850Y0046046D01*
X0014850Y0042050D02*
X0017850Y0042050D01*
X0014850Y0042050D02*
X0014850Y0046550D01*
X0017850Y0046550D01*
X0017850Y0042050D01*
X0017850Y0043049D02*
X0014850Y0043049D01*
X0014850Y0044048D02*
X0017850Y0044048D01*
X0017850Y0045047D02*
X0014850Y0045047D01*
X0014850Y0046046D02*
X0017850Y0046046D01*
X0017950Y0049750D02*
X0014950Y0049750D01*
X0014950Y0054250D01*
X0017950Y0054250D01*
X0017950Y0049750D01*
X0017950Y0050749D02*
X0014950Y0050749D01*
X0014950Y0051748D02*
X0017950Y0051748D01*
X0017950Y0052747D02*
X0014950Y0052747D01*
X0014950Y0053746D02*
X0017950Y0053746D01*
X0017950Y0057350D02*
X0014950Y0057350D01*
X0014950Y0061850D01*
X0017950Y0061850D01*
X0017950Y0057350D01*
X0017950Y0058349D02*
X0014950Y0058349D01*
X0014950Y0059348D02*
X0017950Y0059348D01*
X0017950Y0060347D02*
X0014950Y0060347D01*
X0014950Y0061346D02*
X0017950Y0061346D01*
X0010950Y0057350D02*
X0007950Y0057350D01*
X0007950Y0061850D01*
X0010950Y0061850D01*
X0010950Y0057350D01*
X0010950Y0058349D02*
X0007950Y0058349D01*
X0007950Y0059348D02*
X0010950Y0059348D01*
X0010950Y0060347D02*
X0007950Y0060347D01*
X0007950Y0061346D02*
X0010950Y0061346D01*
X0010950Y0049750D02*
X0007950Y0049750D01*
X0007950Y0054250D01*
X0010950Y0054250D01*
X0010950Y0049750D01*
X0010950Y0050749D02*
X0007950Y0050749D01*
X0007950Y0051748D02*
X0010950Y0051748D01*
X0010950Y0052747D02*
X0007950Y0052747D01*
X0007950Y0053746D02*
X0010950Y0053746D01*
X0003550Y0081190D02*
X0032794Y0081190D01*
X0033793Y0082188D02*
X0003550Y0082188D01*
X0003550Y0083187D02*
X0034791Y0083187D01*
X0035790Y0084185D02*
X0003550Y0084185D01*
X0038650Y0051850D02*
X0038650Y0049881D01*
X0059200Y0051700D02*
X0059200Y0054700D01*
X0059200Y0051700D02*
X0054700Y0051700D01*
X0054700Y0054700D01*
X0059200Y0054700D01*
X0059200Y0052699D02*
X0054700Y0052699D01*
X0054700Y0053698D02*
X0059200Y0053698D01*
X0059200Y0054697D02*
X0054700Y0054697D01*
X0054949Y0074200D02*
X0053776Y0074200D01*
X0076321Y0105154D02*
X0088492Y0105154D01*
X0087493Y0106153D02*
X0075361Y0106153D01*
X0075361Y0107151D02*
X0086495Y0107151D01*
X0085496Y0108150D02*
X0075361Y0108150D01*
X0075361Y0109148D02*
X0084498Y0109148D01*
X0065172Y0112104D02*
X0065172Y0112104D01*
X0101157Y0075847D02*
X0103203Y0075847D01*
X0104950Y0074100D01*
X0104950Y0068600D01*
X0106650Y0073202D02*
X0120450Y0073202D01*
X0124650Y0073202D02*
X0126534Y0073202D01*
X0126534Y0074200D02*
X0124650Y0074200D01*
X0124650Y0075199D02*
X0126534Y0075199D01*
X0126534Y0076197D02*
X0124650Y0076197D01*
X0124650Y0077196D02*
X0126534Y0077196D01*
X0126534Y0078194D02*
X0124650Y0078194D01*
X0124650Y0079193D02*
X0126534Y0079193D01*
X0126534Y0080191D02*
X0124650Y0080191D01*
X0123881Y0081190D02*
X0126534Y0081190D01*
X0126534Y0082188D02*
X0122883Y0082188D01*
X0124650Y0072203D02*
X0126534Y0072203D01*
X0126534Y0071205D02*
X0124673Y0071205D01*
X0125250Y0070206D02*
X0126534Y0070206D01*
X0126534Y0069208D02*
X0125250Y0069208D01*
X0125250Y0068209D02*
X0126534Y0068209D01*
X0126534Y0067211D02*
X0125250Y0067211D01*
X0124890Y0066212D02*
X0126534Y0066212D01*
X0126534Y0065214D02*
X0124864Y0065214D01*
X0125250Y0064215D02*
X0126534Y0064215D01*
X0126534Y0063217D02*
X0125250Y0063217D01*
X0125250Y0062218D02*
X0126534Y0062218D01*
X0126534Y0061220D02*
X0125250Y0061220D01*
X0116550Y0068600D02*
X0110950Y0068600D01*
X0113286Y0071205D02*
X0114427Y0071205D01*
X0107528Y0074200D02*
X0106650Y0074200D01*
X0106530Y0075199D02*
X0106255Y0075199D01*
X0109300Y0076900D02*
X0109300Y0079900D01*
X0113800Y0079900D01*
X0113800Y0076900D01*
X0109300Y0076900D01*
X0109300Y0077899D02*
X0113800Y0077899D01*
X0113800Y0078898D02*
X0109300Y0078898D01*
X0109300Y0079897D02*
X0113800Y0079897D01*
X0108100Y0062218D02*
X0108000Y0062218D01*
X0108000Y0061220D02*
X0108100Y0061220D01*
X0108688Y0060221D02*
X0107412Y0060221D01*
X0104950Y0062700D02*
X0105050Y0062800D01*
X0102688Y0060221D02*
X0100250Y0060221D01*
X0098926Y0061220D02*
X0098264Y0061220D01*
X0113412Y0060221D02*
X0114402Y0060221D01*
D26*
X0033138Y0055787D03*
D27*
X0028335Y0055787D02*
X0026917Y0055787D01*
X0028335Y0055787D02*
X0028335Y0055787D01*
X0026917Y0055787D01*
X0026917Y0055787D01*
X0026917Y0057755D02*
X0028335Y0057755D01*
X0028335Y0057755D01*
X0026917Y0057755D01*
X0026917Y0057755D01*
X0026917Y0059724D02*
X0028335Y0059724D01*
X0028335Y0059724D01*
X0026917Y0059724D01*
X0026917Y0059724D01*
X0026917Y0061692D02*
X0028335Y0061692D01*
X0026917Y0061692D02*
X0026917Y0061692D01*
X0028335Y0061692D01*
X0028335Y0061692D01*
X0028335Y0053818D02*
X0026917Y0053818D01*
X0028335Y0053818D02*
X0028335Y0053818D01*
X0026917Y0053818D01*
X0026917Y0053818D01*
X0026917Y0051850D02*
X0028335Y0051850D01*
X0028335Y0051850D01*
X0026917Y0051850D01*
X0026917Y0051850D01*
X0026917Y0049881D02*
X0028335Y0049881D01*
X0026917Y0049881D02*
X0026917Y0049881D01*
X0028335Y0049881D01*
X0028335Y0049881D01*
X0037941Y0049881D02*
X0039359Y0049881D01*
X0037941Y0049881D02*
X0037941Y0049881D01*
X0039359Y0049881D01*
X0039359Y0049881D01*
X0039359Y0051850D02*
X0037941Y0051850D01*
X0039359Y0051850D02*
X0039359Y0051850D01*
X0037941Y0051850D01*
X0037941Y0051850D01*
X0037941Y0053818D02*
X0039359Y0053818D01*
X0039359Y0053818D01*
X0037941Y0053818D01*
X0037941Y0053818D01*
X0037941Y0055787D02*
X0039359Y0055787D01*
X0039359Y0055787D01*
X0037941Y0055787D01*
X0037941Y0055787D01*
X0037941Y0057755D02*
X0039359Y0057755D01*
X0039359Y0057755D01*
X0037941Y0057755D01*
X0037941Y0057755D01*
X0037941Y0059724D02*
X0039359Y0059724D01*
X0039359Y0059724D01*
X0037941Y0059724D01*
X0037941Y0059724D01*
X0037941Y0061692D02*
X0039359Y0061692D01*
X0037941Y0061692D02*
X0037941Y0061692D01*
X0039359Y0061692D01*
X0039359Y0061692D01*
D28*
X0035855Y0062873D03*
X0034044Y0062873D03*
X0032233Y0062873D03*
X0030422Y0062873D03*
X0030422Y0048700D03*
X0032233Y0048700D03*
X0034044Y0048700D03*
X0035855Y0048700D03*
D29*
X0041650Y0035500D03*
X0024327Y0035500D03*
D30*
X0031450Y0013000D03*
D31*
X0041450Y0013000D03*
X0051450Y0013000D03*
X0061450Y0013000D03*
X0071450Y0013000D03*
D32*
X0103330Y0119570D02*
X0104770Y0119570D01*
X0104770Y0114430D01*
X0103330Y0114430D01*
X0103330Y0119570D01*
X0103330Y0114589D02*
X0104770Y0114589D01*
X0104770Y0114748D02*
X0103330Y0114748D01*
X0103330Y0114907D02*
X0104770Y0114907D01*
X0104770Y0115066D02*
X0103330Y0115066D01*
X0103330Y0115225D02*
X0104770Y0115225D01*
X0104770Y0115384D02*
X0103330Y0115384D01*
X0103330Y0115543D02*
X0104770Y0115543D01*
X0104770Y0115702D02*
X0103330Y0115702D01*
X0103330Y0115861D02*
X0104770Y0115861D01*
X0104770Y0116020D02*
X0103330Y0116020D01*
X0103330Y0116179D02*
X0104770Y0116179D01*
X0104770Y0116338D02*
X0103330Y0116338D01*
X0103330Y0116497D02*
X0104770Y0116497D01*
X0104770Y0116656D02*
X0103330Y0116656D01*
X0103330Y0116815D02*
X0104770Y0116815D01*
X0104770Y0116974D02*
X0103330Y0116974D01*
X0103330Y0117133D02*
X0104770Y0117133D01*
X0104770Y0117292D02*
X0103330Y0117292D01*
X0103330Y0117451D02*
X0104770Y0117451D01*
X0104770Y0117610D02*
X0103330Y0117610D01*
X0103330Y0117769D02*
X0104770Y0117769D01*
X0104770Y0117928D02*
X0103330Y0117928D01*
X0103330Y0118087D02*
X0104770Y0118087D01*
X0104770Y0118246D02*
X0103330Y0118246D01*
X0103330Y0118405D02*
X0104770Y0118405D01*
X0104770Y0118564D02*
X0103330Y0118564D01*
X0103330Y0118723D02*
X0104770Y0118723D01*
X0104770Y0118882D02*
X0103330Y0118882D01*
X0103330Y0119041D02*
X0104770Y0119041D01*
X0104770Y0119200D02*
X0103330Y0119200D01*
X0103330Y0119359D02*
X0104770Y0119359D01*
X0104770Y0119518D02*
X0103330Y0119518D01*
X0105930Y0119570D02*
X0107370Y0119570D01*
X0107370Y0114430D01*
X0105930Y0114430D01*
X0105930Y0119570D01*
X0105930Y0114589D02*
X0107370Y0114589D01*
X0107370Y0114748D02*
X0105930Y0114748D01*
X0105930Y0114907D02*
X0107370Y0114907D01*
X0107370Y0115066D02*
X0105930Y0115066D01*
X0105930Y0115225D02*
X0107370Y0115225D01*
X0107370Y0115384D02*
X0105930Y0115384D01*
X0105930Y0115543D02*
X0107370Y0115543D01*
X0107370Y0115702D02*
X0105930Y0115702D01*
X0105930Y0115861D02*
X0107370Y0115861D01*
X0107370Y0116020D02*
X0105930Y0116020D01*
X0105930Y0116179D02*
X0107370Y0116179D01*
X0107370Y0116338D02*
X0105930Y0116338D01*
X0105930Y0116497D02*
X0107370Y0116497D01*
X0107370Y0116656D02*
X0105930Y0116656D01*
X0105930Y0116815D02*
X0107370Y0116815D01*
X0107370Y0116974D02*
X0105930Y0116974D01*
X0105930Y0117133D02*
X0107370Y0117133D01*
X0107370Y0117292D02*
X0105930Y0117292D01*
X0105930Y0117451D02*
X0107370Y0117451D01*
X0107370Y0117610D02*
X0105930Y0117610D01*
X0105930Y0117769D02*
X0107370Y0117769D01*
X0107370Y0117928D02*
X0105930Y0117928D01*
X0105930Y0118087D02*
X0107370Y0118087D01*
X0107370Y0118246D02*
X0105930Y0118246D01*
X0105930Y0118405D02*
X0107370Y0118405D01*
X0107370Y0118564D02*
X0105930Y0118564D01*
X0105930Y0118723D02*
X0107370Y0118723D01*
X0107370Y0118882D02*
X0105930Y0118882D01*
X0105930Y0119041D02*
X0107370Y0119041D01*
X0107370Y0119200D02*
X0105930Y0119200D01*
X0105930Y0119359D02*
X0107370Y0119359D01*
X0107370Y0119518D02*
X0105930Y0119518D01*
X0108530Y0119570D02*
X0109970Y0119570D01*
X0109970Y0114430D01*
X0108530Y0114430D01*
X0108530Y0119570D01*
X0108530Y0114589D02*
X0109970Y0114589D01*
X0109970Y0114748D02*
X0108530Y0114748D01*
X0108530Y0114907D02*
X0109970Y0114907D01*
X0109970Y0115066D02*
X0108530Y0115066D01*
X0108530Y0115225D02*
X0109970Y0115225D01*
X0109970Y0115384D02*
X0108530Y0115384D01*
X0108530Y0115543D02*
X0109970Y0115543D01*
X0109970Y0115702D02*
X0108530Y0115702D01*
X0108530Y0115861D02*
X0109970Y0115861D01*
X0109970Y0116020D02*
X0108530Y0116020D01*
X0108530Y0116179D02*
X0109970Y0116179D01*
X0109970Y0116338D02*
X0108530Y0116338D01*
X0108530Y0116497D02*
X0109970Y0116497D01*
X0109970Y0116656D02*
X0108530Y0116656D01*
X0108530Y0116815D02*
X0109970Y0116815D01*
X0109970Y0116974D02*
X0108530Y0116974D01*
X0108530Y0117133D02*
X0109970Y0117133D01*
X0109970Y0117292D02*
X0108530Y0117292D01*
X0108530Y0117451D02*
X0109970Y0117451D01*
X0109970Y0117610D02*
X0108530Y0117610D01*
X0108530Y0117769D02*
X0109970Y0117769D01*
X0109970Y0117928D02*
X0108530Y0117928D01*
X0108530Y0118087D02*
X0109970Y0118087D01*
X0109970Y0118246D02*
X0108530Y0118246D01*
X0108530Y0118405D02*
X0109970Y0118405D01*
X0109970Y0118564D02*
X0108530Y0118564D01*
X0108530Y0118723D02*
X0109970Y0118723D01*
X0109970Y0118882D02*
X0108530Y0118882D01*
X0108530Y0119041D02*
X0109970Y0119041D01*
X0109970Y0119200D02*
X0108530Y0119200D01*
X0108530Y0119359D02*
X0109970Y0119359D01*
X0109970Y0119518D02*
X0108530Y0119518D01*
X0111130Y0119570D02*
X0112570Y0119570D01*
X0112570Y0114430D01*
X0111130Y0114430D01*
X0111130Y0119570D01*
X0111130Y0114589D02*
X0112570Y0114589D01*
X0112570Y0114748D02*
X0111130Y0114748D01*
X0111130Y0114907D02*
X0112570Y0114907D01*
X0112570Y0115066D02*
X0111130Y0115066D01*
X0111130Y0115225D02*
X0112570Y0115225D01*
X0112570Y0115384D02*
X0111130Y0115384D01*
X0111130Y0115543D02*
X0112570Y0115543D01*
X0112570Y0115702D02*
X0111130Y0115702D01*
X0111130Y0115861D02*
X0112570Y0115861D01*
X0112570Y0116020D02*
X0111130Y0116020D01*
X0111130Y0116179D02*
X0112570Y0116179D01*
X0112570Y0116338D02*
X0111130Y0116338D01*
X0111130Y0116497D02*
X0112570Y0116497D01*
X0112570Y0116656D02*
X0111130Y0116656D01*
X0111130Y0116815D02*
X0112570Y0116815D01*
X0112570Y0116974D02*
X0111130Y0116974D01*
X0111130Y0117133D02*
X0112570Y0117133D01*
X0112570Y0117292D02*
X0111130Y0117292D01*
X0111130Y0117451D02*
X0112570Y0117451D01*
X0112570Y0117610D02*
X0111130Y0117610D01*
X0111130Y0117769D02*
X0112570Y0117769D01*
X0112570Y0117928D02*
X0111130Y0117928D01*
X0111130Y0118087D02*
X0112570Y0118087D01*
X0112570Y0118246D02*
X0111130Y0118246D01*
X0111130Y0118405D02*
X0112570Y0118405D01*
X0112570Y0118564D02*
X0111130Y0118564D01*
X0111130Y0118723D02*
X0112570Y0118723D01*
X0112570Y0118882D02*
X0111130Y0118882D01*
X0111130Y0119041D02*
X0112570Y0119041D01*
X0112570Y0119200D02*
X0111130Y0119200D01*
X0111130Y0119359D02*
X0112570Y0119359D01*
X0112570Y0119518D02*
X0111130Y0119518D01*
X0113730Y0119570D02*
X0115170Y0119570D01*
X0115170Y0114430D01*
X0113730Y0114430D01*
X0113730Y0119570D01*
X0113730Y0114589D02*
X0115170Y0114589D01*
X0115170Y0114748D02*
X0113730Y0114748D01*
X0113730Y0114907D02*
X0115170Y0114907D01*
X0115170Y0115066D02*
X0113730Y0115066D01*
X0113730Y0115225D02*
X0115170Y0115225D01*
X0115170Y0115384D02*
X0113730Y0115384D01*
X0113730Y0115543D02*
X0115170Y0115543D01*
X0115170Y0115702D02*
X0113730Y0115702D01*
X0113730Y0115861D02*
X0115170Y0115861D01*
X0115170Y0116020D02*
X0113730Y0116020D01*
X0113730Y0116179D02*
X0115170Y0116179D01*
X0115170Y0116338D02*
X0113730Y0116338D01*
X0113730Y0116497D02*
X0115170Y0116497D01*
X0115170Y0116656D02*
X0113730Y0116656D01*
X0113730Y0116815D02*
X0115170Y0116815D01*
X0115170Y0116974D02*
X0113730Y0116974D01*
X0113730Y0117133D02*
X0115170Y0117133D01*
X0115170Y0117292D02*
X0113730Y0117292D01*
X0113730Y0117451D02*
X0115170Y0117451D01*
X0115170Y0117610D02*
X0113730Y0117610D01*
X0113730Y0117769D02*
X0115170Y0117769D01*
X0115170Y0117928D02*
X0113730Y0117928D01*
X0113730Y0118087D02*
X0115170Y0118087D01*
X0115170Y0118246D02*
X0113730Y0118246D01*
X0113730Y0118405D02*
X0115170Y0118405D01*
X0115170Y0118564D02*
X0113730Y0118564D01*
X0113730Y0118723D02*
X0115170Y0118723D01*
X0115170Y0118882D02*
X0113730Y0118882D01*
X0113730Y0119041D02*
X0115170Y0119041D01*
X0115170Y0119200D02*
X0113730Y0119200D01*
X0113730Y0119359D02*
X0115170Y0119359D01*
X0115170Y0119518D02*
X0113730Y0119518D01*
D33*
X0115950Y0130300D02*
X0110550Y0130300D01*
X0115950Y0130300D02*
X0115950Y0124900D01*
X0110550Y0124900D01*
X0110550Y0130300D01*
X0110550Y0125499D02*
X0115950Y0125499D01*
X0115950Y0126098D02*
X0110550Y0126098D01*
X0110550Y0126697D02*
X0115950Y0126697D01*
X0115950Y0127296D02*
X0110550Y0127296D01*
X0110550Y0127895D02*
X0115950Y0127895D01*
X0115950Y0128494D02*
X0110550Y0128494D01*
X0110550Y0129093D02*
X0115950Y0129093D01*
X0115950Y0129692D02*
X0110550Y0129692D01*
X0110550Y0130291D02*
X0115950Y0130291D01*
X0107950Y0130300D02*
X0102550Y0130300D01*
X0107950Y0130300D02*
X0107950Y0124900D01*
X0102550Y0124900D01*
X0102550Y0130300D01*
X0102550Y0125499D02*
X0107950Y0125499D01*
X0107950Y0126098D02*
X0102550Y0126098D01*
X0102550Y0126697D02*
X0107950Y0126697D01*
X0107950Y0127296D02*
X0102550Y0127296D01*
X0102550Y0127895D02*
X0107950Y0127895D01*
X0107950Y0128494D02*
X0102550Y0128494D01*
X0102550Y0129093D02*
X0107950Y0129093D01*
X0107950Y0129692D02*
X0102550Y0129692D01*
X0102550Y0130291D02*
X0107950Y0130291D01*
X0105250Y0080900D02*
X0122050Y0080900D01*
X0123150Y0079800D01*
X0123150Y0074600D01*
X0121650Y0074600D01*
X0120750Y0075500D01*
X0108350Y0075500D01*
X0106350Y0077500D01*
X0099696Y0077500D01*
X0099696Y0080000D01*
X0104350Y0080000D01*
X0105250Y0080900D01*
X0104668Y0080318D02*
X0122632Y0080318D01*
X0123150Y0079720D02*
X0099696Y0079720D01*
X0099696Y0079121D02*
X0123150Y0079121D01*
X0123150Y0078523D02*
X0099696Y0078523D01*
X0099696Y0077924D02*
X0123150Y0077924D01*
X0123150Y0077326D02*
X0106524Y0077326D01*
X0107123Y0076727D02*
X0123150Y0076727D01*
X0123150Y0076129D02*
X0107721Y0076129D01*
X0108320Y0075530D02*
X0123150Y0075530D01*
X0123150Y0074932D02*
X0121318Y0074932D01*
X0100050Y0058300D02*
X0100050Y0056900D01*
X0094950Y0051800D01*
X0091950Y0051800D01*
X0091250Y0052500D01*
X0091250Y0054100D01*
X0092250Y0055100D01*
X0093450Y0055100D01*
X0097550Y0059200D01*
X0099150Y0059200D01*
X0100050Y0058300D01*
X0100050Y0058173D02*
X0096523Y0058173D01*
X0095925Y0057575D02*
X0100050Y0057575D01*
X0100050Y0056976D02*
X0095326Y0056976D01*
X0094728Y0056378D02*
X0099528Y0056378D01*
X0098929Y0055779D02*
X0094129Y0055779D01*
X0093531Y0055181D02*
X0098331Y0055181D01*
X0097732Y0054582D02*
X0091732Y0054582D01*
X0091250Y0053984D02*
X0097134Y0053984D01*
X0096535Y0053385D02*
X0091250Y0053385D01*
X0091250Y0052787D02*
X0095937Y0052787D01*
X0095338Y0052188D02*
X0091562Y0052188D01*
X0097122Y0058772D02*
X0099578Y0058772D01*
X0084650Y0077000D02*
X0080950Y0077000D01*
X0080250Y0077700D01*
X0080250Y0079800D01*
X0080550Y0080100D01*
X0090950Y0080100D01*
X0090950Y0077500D01*
X0085150Y0077500D01*
X0084650Y0077000D01*
X0084976Y0077326D02*
X0080624Y0077326D01*
X0080250Y0077924D02*
X0090950Y0077924D01*
X0090950Y0078523D02*
X0080250Y0078523D01*
X0080250Y0079121D02*
X0090950Y0079121D01*
X0090950Y0079720D02*
X0080250Y0079720D01*
X0061646Y0083039D02*
X0061646Y0084023D01*
X0048654Y0084023D01*
X0048654Y0083039D01*
X0051311Y0083039D01*
X0051311Y0075361D01*
X0048654Y0075361D01*
X0048654Y0074377D01*
X0061646Y0074377D01*
X0061646Y0075361D01*
X0058989Y0075361D01*
X0058989Y0083039D01*
X0061646Y0083039D01*
X0061646Y0083311D02*
X0048654Y0083311D01*
X0048654Y0083909D02*
X0061646Y0083909D01*
X0058989Y0082712D02*
X0051311Y0082712D01*
X0051311Y0082114D02*
X0058989Y0082114D01*
X0058989Y0081515D02*
X0051311Y0081515D01*
X0051311Y0080917D02*
X0058989Y0080917D01*
X0058989Y0080318D02*
X0051311Y0080318D01*
X0051311Y0079720D02*
X0058989Y0079720D01*
X0058989Y0079121D02*
X0051311Y0079121D01*
X0051311Y0078523D02*
X0058989Y0078523D01*
X0058989Y0077924D02*
X0051311Y0077924D01*
X0051311Y0077326D02*
X0058989Y0077326D01*
X0058989Y0076727D02*
X0051311Y0076727D01*
X0051311Y0076129D02*
X0058989Y0076129D01*
X0058989Y0075530D02*
X0051311Y0075530D01*
X0048654Y0074932D02*
X0061646Y0074932D01*
X0059750Y0056100D02*
X0060350Y0055500D01*
X0060350Y0051400D01*
X0058850Y0049900D01*
X0048250Y0049900D01*
X0044650Y0053500D01*
X0037650Y0053500D01*
X0037650Y0056100D01*
X0059750Y0056100D01*
X0060071Y0055779D02*
X0037650Y0055779D01*
X0037650Y0055181D02*
X0060350Y0055181D01*
X0060350Y0054582D02*
X0037650Y0054582D01*
X0037650Y0053984D02*
X0060350Y0053984D01*
X0060350Y0053385D02*
X0044765Y0053385D01*
X0045363Y0052787D02*
X0060350Y0052787D01*
X0060350Y0052188D02*
X0045962Y0052188D01*
X0046560Y0051590D02*
X0060350Y0051590D01*
X0059941Y0050991D02*
X0047159Y0050991D01*
X0047757Y0050393D02*
X0059343Y0050393D01*
X0044750Y0040100D02*
X0044750Y0030800D01*
X0037850Y0030800D01*
X0037750Y0030900D01*
X0037750Y0052000D01*
X0040950Y0052000D01*
X0041950Y0051000D01*
X0041950Y0042900D01*
X0044750Y0040100D01*
X0044632Y0040218D02*
X0037750Y0040218D01*
X0037750Y0039620D02*
X0044750Y0039620D01*
X0044750Y0039021D02*
X0037750Y0039021D01*
X0037750Y0038423D02*
X0044750Y0038423D01*
X0044750Y0037824D02*
X0037750Y0037824D01*
X0037750Y0037226D02*
X0044750Y0037226D01*
X0044750Y0036627D02*
X0037750Y0036627D01*
X0037750Y0036029D02*
X0044750Y0036029D01*
X0044750Y0035430D02*
X0037750Y0035430D01*
X0037750Y0034832D02*
X0044750Y0034832D01*
X0044750Y0034233D02*
X0037750Y0034233D01*
X0037750Y0033634D02*
X0044750Y0033634D01*
X0044750Y0033036D02*
X0037750Y0033036D01*
X0037750Y0032437D02*
X0044750Y0032437D01*
X0044750Y0031839D02*
X0037750Y0031839D01*
X0037750Y0031240D02*
X0044750Y0031240D01*
X0044033Y0040817D02*
X0037750Y0040817D01*
X0037750Y0041415D02*
X0043435Y0041415D01*
X0042836Y0042014D02*
X0037750Y0042014D01*
X0037750Y0042612D02*
X0042238Y0042612D01*
X0041950Y0043211D02*
X0037750Y0043211D01*
X0037750Y0043809D02*
X0041950Y0043809D01*
X0041950Y0044408D02*
X0037750Y0044408D01*
X0037750Y0045006D02*
X0041950Y0045006D01*
X0041950Y0045605D02*
X0037750Y0045605D01*
X0037750Y0046203D02*
X0041950Y0046203D01*
X0041950Y0046802D02*
X0037750Y0046802D01*
X0037750Y0047400D02*
X0041950Y0047400D01*
X0041950Y0047999D02*
X0037750Y0047999D01*
X0037750Y0048597D02*
X0041950Y0048597D01*
X0041950Y0049196D02*
X0037750Y0049196D01*
X0037750Y0049794D02*
X0041950Y0049794D01*
X0041950Y0050393D02*
X0037750Y0050393D01*
X0037750Y0050991D02*
X0041950Y0050991D01*
X0041360Y0051590D02*
X0037750Y0051590D01*
X0028650Y0051590D02*
X0025140Y0051590D01*
X0025550Y0052000D02*
X0024650Y0051100D01*
X0024650Y0043400D01*
X0021450Y0040200D01*
X0021450Y0030700D01*
X0028650Y0030700D01*
X0028650Y0051700D01*
X0028350Y0052000D01*
X0025550Y0052000D01*
X0024650Y0050991D02*
X0028650Y0050991D01*
X0028650Y0050393D02*
X0024650Y0050393D01*
X0024650Y0049794D02*
X0028650Y0049794D01*
X0028650Y0049196D02*
X0024650Y0049196D01*
X0024650Y0048597D02*
X0028650Y0048597D01*
X0028650Y0047999D02*
X0024650Y0047999D01*
X0024650Y0047400D02*
X0028650Y0047400D01*
X0028650Y0046802D02*
X0024650Y0046802D01*
X0024650Y0046203D02*
X0028650Y0046203D01*
X0028650Y0045605D02*
X0024650Y0045605D01*
X0024650Y0045006D02*
X0028650Y0045006D01*
X0028650Y0044408D02*
X0024650Y0044408D01*
X0024650Y0043809D02*
X0028650Y0043809D01*
X0028650Y0043211D02*
X0024461Y0043211D01*
X0023862Y0042612D02*
X0028650Y0042612D01*
X0028650Y0042014D02*
X0023264Y0042014D01*
X0022665Y0041415D02*
X0028650Y0041415D01*
X0028650Y0040817D02*
X0022067Y0040817D01*
X0021468Y0040218D02*
X0028650Y0040218D01*
X0028650Y0039620D02*
X0021450Y0039620D01*
X0021450Y0039021D02*
X0028650Y0039021D01*
X0028650Y0038423D02*
X0021450Y0038423D01*
X0021450Y0037824D02*
X0028650Y0037824D01*
X0028650Y0037226D02*
X0021450Y0037226D01*
X0021450Y0036627D02*
X0028650Y0036627D01*
X0028650Y0036029D02*
X0021450Y0036029D01*
X0021450Y0035430D02*
X0028650Y0035430D01*
X0028650Y0034832D02*
X0021450Y0034832D01*
X0021450Y0034233D02*
X0028650Y0034233D01*
X0028650Y0033634D02*
X0021450Y0033634D01*
X0021450Y0033036D02*
X0028650Y0033036D01*
X0028650Y0032437D02*
X0021450Y0032437D01*
X0021450Y0031839D02*
X0028650Y0031839D01*
X0028650Y0031240D02*
X0021450Y0031240D01*
D34*
X0098950Y0117000D03*
X0099550Y0117000D03*
X0099950Y0117000D03*
X0118550Y0117000D03*
X0119050Y0117000D03*
X0119550Y0117000D03*
D35*
X0123050Y0126600D03*
X0123050Y0127700D03*
X0123050Y0128600D03*
X0095450Y0128600D03*
X0095450Y0127600D03*
X0095450Y0126600D03*
D36*
X0059087Y0086976D03*
X0057512Y0086976D03*
X0055937Y0086976D03*
X0054363Y0086976D03*
X0052788Y0086976D03*
X0051213Y0086976D03*
X0051213Y0071424D03*
X0052788Y0071424D03*
X0054363Y0071424D03*
X0055937Y0071424D03*
X0057512Y0071424D03*
X0059087Y0071424D03*
D37*
X0055150Y0079200D03*
D38*
X0050622Y0074869D03*
X0050622Y0083531D03*
X0059678Y0083531D03*
X0059678Y0074869D03*
D39*
X0059450Y0095400D02*
X0059450Y0097500D01*
X0062150Y0100200D01*
X0026550Y0089926D02*
X0025487Y0090989D01*
X0025487Y0104422D01*
X0017613Y0104422D02*
X0017613Y0090989D01*
X0016550Y0089926D01*
X0056950Y0053200D02*
X0063538Y0053253D01*
X0065845Y0053272D01*
X0068246Y0053291D01*
X0070647Y0053310D01*
X0094250Y0053500D01*
X0095850Y0055100D01*
X0111550Y0078400D02*
X0119150Y0078400D01*
X0016350Y0044300D02*
X0016350Y0038500D01*
X0016550Y0038300D01*
D40*
X0016550Y0038300D03*
X0015250Y0036000D03*
X0013250Y0037900D03*
X0014250Y0040300D03*
X0018150Y0040600D03*
X0018250Y0036000D03*
X0016650Y0033600D03*
X0014150Y0033500D03*
X0012250Y0035300D03*
X0005050Y0036300D03*
X0005050Y0033300D03*
X0005050Y0030300D03*
X0005050Y0039300D03*
X0007050Y0064300D03*
X0007050Y0067300D03*
X0007050Y0070300D03*
X0010050Y0067300D03*
X0010050Y0064300D03*
X0007050Y0073300D03*
X0007050Y0076300D03*
X0007050Y0079300D03*
X0007050Y0082300D03*
X0007050Y0085300D03*
X0010050Y0085300D03*
X0010050Y0082300D03*
X0010050Y0079300D03*
X0016050Y0083300D03*
X0020050Y0083300D03*
X0024050Y0083300D03*
X0028050Y0083300D03*
X0032050Y0083300D03*
X0038050Y0090300D03*
X0038050Y0093300D03*
X0048050Y0081200D03*
X0052050Y0082300D03*
X0052050Y0079300D03*
X0052050Y0075300D03*
X0048050Y0075300D03*
X0056050Y0075300D03*
X0056050Y0079300D03*
X0056050Y0082300D03*
X0063050Y0082300D03*
X0063050Y0079300D03*
X0063050Y0075300D03*
X0061050Y0068300D03*
X0053950Y0067400D03*
X0050250Y0067000D03*
X0045650Y0065600D03*
X0042050Y0065100D03*
X0036450Y0069200D03*
X0037450Y0073600D03*
X0027626Y0066100D03*
X0031050Y0060300D03*
X0031050Y0057300D03*
X0031050Y0054300D03*
X0031050Y0051300D03*
X0034050Y0051300D03*
X0034050Y0054300D03*
X0034050Y0057300D03*
X0034050Y0060300D03*
X0043450Y0058800D03*
X0044250Y0047800D03*
X0051450Y0040900D03*
X0057050Y0035300D03*
X0057050Y0032300D03*
X0057050Y0029300D03*
X0057050Y0026300D03*
X0057050Y0023300D03*
X0056450Y0015800D03*
X0056550Y0009800D03*
X0066550Y0009900D03*
X0066450Y0015900D03*
X0066050Y0024300D03*
X0066050Y0027300D03*
X0066050Y0030300D03*
X0066050Y0033300D03*
X0068050Y0037300D03*
X0071450Y0040900D03*
X0065650Y0046100D03*
X0064450Y0048500D03*
X0064250Y0043800D03*
X0076050Y0034300D03*
X0076050Y0028300D03*
X0086050Y0013300D03*
X0089050Y0013300D03*
X0092050Y0013300D03*
X0095050Y0013300D03*
X0092919Y0032800D03*
X0096856Y0035200D03*
X0104050Y0034300D03*
X0114650Y0038300D03*
X0122350Y0040900D03*
X0122350Y0044900D03*
X0122350Y0048900D03*
X0122350Y0052900D03*
X0118350Y0052900D03*
X0114350Y0052900D03*
X0105350Y0057900D03*
X0102350Y0054900D03*
X0099350Y0051900D03*
X0097450Y0048500D03*
X0093550Y0053400D03*
X0095850Y0055100D03*
X0098050Y0057200D03*
X0096250Y0062600D03*
X0100050Y0068300D03*
X0097050Y0077300D03*
X0094050Y0077300D03*
X0094050Y0080300D03*
X0097050Y0080300D03*
X0088200Y0071050D03*
X0081850Y0062800D03*
X0079050Y0057700D03*
X0075350Y0062900D03*
X0071950Y0062800D03*
X0071650Y0072200D03*
X0071750Y0075500D03*
X0063050Y0085300D03*
X0074550Y0086700D03*
X0068350Y0101900D03*
X0067350Y0106900D03*
X0081050Y0108100D03*
X0081050Y0104100D03*
X0085050Y0104100D03*
X0090050Y0111300D03*
X0090050Y0114300D03*
X0090050Y0117300D03*
X0090050Y0120300D03*
X0090050Y0123300D03*
X0090050Y0126300D03*
X0090050Y0129300D03*
X0087050Y0129300D03*
X0084050Y0129300D03*
X0081050Y0129300D03*
X0078050Y0129300D03*
X0074050Y0122300D03*
X0070050Y0122300D03*
X0066050Y0122300D03*
X0062050Y0122300D03*
X0058050Y0122300D03*
X0054050Y0122300D03*
X0050050Y0122300D03*
X0047050Y0129300D03*
X0044050Y0129300D03*
X0041050Y0129300D03*
X0028050Y0125300D03*
X0028050Y0121300D03*
X0028050Y0117300D03*
X0024050Y0125300D03*
X0020050Y0125300D03*
X0016050Y0125300D03*
X0016050Y0121300D03*
X0016050Y0117300D03*
X0016950Y0076500D03*
X0033050Y0043300D03*
X0032050Y0040300D03*
X0032050Y0037300D03*
X0032050Y0034300D03*
X0044050Y0027500D03*
X0047550Y0029300D03*
X0047950Y0033700D03*
X0079150Y0048600D03*
X0085050Y0048300D03*
X0085050Y0044300D03*
X0091750Y0048400D03*
X0117050Y0076700D03*
X0119150Y0078400D03*
X0116650Y0079700D03*
X0121650Y0079600D03*
X0121550Y0076700D03*
X0120050Y0085300D03*
X0117050Y0085300D03*
X0123050Y0085300D03*
X0124050Y0091300D03*
X0124050Y0095300D03*
X0124050Y0099300D03*
X0124050Y0103300D03*
X0101050Y0102300D03*
X0101050Y0098300D03*
X0101050Y0094300D03*
X0097050Y0111300D03*
X0093350Y0113900D03*
X0086050Y0114300D03*
X0086050Y0119300D03*
X0086050Y0124300D03*
D41*
X0107173Y0102323D02*
X0112973Y0102323D01*
X0113771Y0103121D02*
X0107971Y0103121D01*
X0108770Y0103920D02*
X0116670Y0103920D01*
X0115950Y0103200D02*
X0113850Y0103200D01*
X0111850Y0101200D01*
X0111850Y0096400D01*
X0110850Y0095400D01*
X0108650Y0095400D01*
X0100050Y0086800D01*
X0100050Y0084900D01*
X0099050Y0083900D01*
X0098050Y0083900D01*
X0098050Y0087700D01*
X0106850Y0096500D01*
X0106850Y0102000D01*
X0109950Y0105100D01*
X0109950Y0109700D01*
X0113750Y0113500D01*
X0115150Y0113500D01*
X0118450Y0110200D01*
X0118450Y0105700D01*
X0115950Y0103200D01*
X0117468Y0104718D02*
X0109568Y0104718D01*
X0109950Y0105517D02*
X0118267Y0105517D01*
X0118450Y0106315D02*
X0109950Y0106315D01*
X0109950Y0107114D02*
X0118450Y0107114D01*
X0118450Y0107912D02*
X0109950Y0107912D01*
X0109950Y0108711D02*
X0118450Y0108711D01*
X0118450Y0109509D02*
X0109950Y0109509D01*
X0110558Y0110308D02*
X0118342Y0110308D01*
X0117544Y0111106D02*
X0111356Y0111106D01*
X0112155Y0111905D02*
X0116745Y0111905D01*
X0115947Y0112703D02*
X0112953Y0112703D01*
X0112174Y0101524D02*
X0106850Y0101524D01*
X0106850Y0100726D02*
X0111850Y0100726D01*
X0111850Y0099927D02*
X0106850Y0099927D01*
X0106850Y0099129D02*
X0111850Y0099129D01*
X0111850Y0098330D02*
X0106850Y0098330D01*
X0106850Y0097532D02*
X0111850Y0097532D01*
X0111850Y0096733D02*
X0106850Y0096733D01*
X0106285Y0095935D02*
X0111385Y0095935D01*
X0108386Y0095136D02*
X0105486Y0095136D01*
X0104688Y0094338D02*
X0107588Y0094338D01*
X0106789Y0093539D02*
X0103889Y0093539D01*
X0103091Y0092741D02*
X0105991Y0092741D01*
X0105192Y0091942D02*
X0102292Y0091942D01*
X0101494Y0091144D02*
X0104394Y0091144D01*
X0103595Y0090345D02*
X0100695Y0090345D01*
X0099897Y0089547D02*
X0102797Y0089547D01*
X0101998Y0088748D02*
X0099098Y0088748D01*
X0098300Y0087950D02*
X0101200Y0087950D01*
X0100401Y0087151D02*
X0098050Y0087151D01*
X0098050Y0086353D02*
X0100050Y0086353D01*
X0100050Y0085554D02*
X0098050Y0085554D01*
X0098050Y0084756D02*
X0099906Y0084756D01*
X0099107Y0083957D02*
X0098050Y0083957D01*
X0094366Y0072993D02*
X0094366Y0068723D01*
X0092054Y0066411D01*
X0095865Y0062600D01*
X0096250Y0062600D01*
X0088200Y0071050D02*
X0086443Y0069293D01*
X0086443Y0066411D01*
X0088200Y0071050D02*
X0090143Y0072993D01*
X0092397Y0072993D01*
X0106756Y0051206D02*
X0100950Y0045400D01*
X0100950Y0042400D01*
X0097450Y0038900D01*
X0096856Y0038306D01*
X0098756Y0038306D01*
X0096856Y0038306D02*
X0096856Y0035200D01*
X0096856Y0027000D01*
X0092919Y0027000D02*
X0092919Y0024331D01*
X0094750Y0022500D01*
X0098250Y0022500D01*
X0100000Y0024250D01*
X0100000Y0034850D01*
X0102650Y0037500D01*
X0102650Y0044200D01*
X0105719Y0047269D01*
X0108550Y0047269D01*
X0108550Y0051206D02*
X0106756Y0051206D01*
X0097450Y0048500D02*
X0097450Y0044900D01*
X0091750Y0044900D02*
X0091750Y0048400D01*
X0091750Y0038900D02*
X0092919Y0037731D01*
X0092919Y0032800D01*
X0092919Y0027000D01*
X0055550Y0062800D02*
X0057512Y0064762D01*
X0057512Y0071424D01*
X0059087Y0071424D02*
X0064726Y0071424D01*
X0067350Y0068800D01*
X0056050Y0075300D02*
X0054363Y0073613D01*
X0054363Y0071424D01*
X0052788Y0071424D02*
X0052788Y0068562D01*
X0053950Y0067400D01*
X0051213Y0067963D02*
X0050250Y0067000D01*
X0051213Y0067963D02*
X0051213Y0071424D01*
X0045650Y0065600D02*
X0045650Y0083576D01*
X0049050Y0086976D01*
X0050050Y0086976D01*
X0050050Y0086976D01*
X0051213Y0086976D01*
X0051213Y0091337D01*
X0048450Y0094100D01*
X0048450Y0099900D02*
X0051750Y0099900D01*
X0054363Y0097287D01*
X0054363Y0086976D01*
X0057512Y0086976D02*
X0057512Y0093462D01*
X0059450Y0095400D01*
X0056950Y0095136D02*
X0062150Y0095136D01*
X0062150Y0094338D02*
X0056950Y0094338D01*
X0056950Y0093539D02*
X0062150Y0093539D01*
X0062150Y0092741D02*
X0056950Y0092741D01*
X0056950Y0092600D02*
X0056950Y0097800D01*
X0053650Y0101100D01*
X0053650Y0102800D01*
X0064550Y0102800D01*
X0064550Y0099400D01*
X0062150Y0097000D01*
X0062150Y0092600D01*
X0056950Y0092600D01*
X0056950Y0095935D02*
X0062150Y0095935D01*
X0062150Y0096733D02*
X0056950Y0096733D01*
X0056950Y0097532D02*
X0062682Y0097532D01*
X0063480Y0098330D02*
X0056420Y0098330D01*
X0055621Y0099129D02*
X0064279Y0099129D01*
X0064550Y0099927D02*
X0054823Y0099927D01*
X0054024Y0100726D02*
X0064550Y0100726D01*
X0064550Y0101524D02*
X0053650Y0101524D01*
X0053650Y0102323D02*
X0064550Y0102323D01*
X0069450Y0095400D02*
X0061026Y0086976D01*
X0059087Y0086976D01*
X0028295Y0056055D02*
X0028550Y0055800D01*
X0028550Y0054000D01*
X0028250Y0053700D01*
X0024750Y0053700D01*
X0022750Y0051700D01*
X0022750Y0044000D01*
X0019950Y0041200D01*
X0019950Y0033100D01*
X0018950Y0032100D01*
X0011650Y0032100D01*
X0010850Y0032900D01*
X0010850Y0039000D01*
X0012950Y0041100D01*
X0012950Y0064700D01*
X0013850Y0065600D01*
X0016150Y0065600D01*
X0019050Y0062700D01*
X0019050Y0060000D01*
X0022650Y0056400D01*
X0023346Y0056400D01*
X0023691Y0056055D01*
X0028295Y0056055D01*
X0028341Y0056009D02*
X0012950Y0056009D01*
X0012950Y0055211D02*
X0028550Y0055211D01*
X0028550Y0054412D02*
X0012950Y0054412D01*
X0012950Y0053614D02*
X0024664Y0053614D01*
X0023865Y0052815D02*
X0012950Y0052815D01*
X0012950Y0052017D02*
X0023067Y0052017D01*
X0022750Y0051218D02*
X0012950Y0051218D01*
X0012950Y0050420D02*
X0022750Y0050420D01*
X0022750Y0049621D02*
X0012950Y0049621D01*
X0012950Y0048823D02*
X0022750Y0048823D01*
X0022750Y0048024D02*
X0012950Y0048024D01*
X0012950Y0047226D02*
X0022750Y0047226D01*
X0022750Y0046427D02*
X0012950Y0046427D01*
X0012950Y0045629D02*
X0022750Y0045629D01*
X0022750Y0044830D02*
X0012950Y0044830D01*
X0012950Y0044032D02*
X0022750Y0044032D01*
X0021983Y0043233D02*
X0012950Y0043233D01*
X0012950Y0042434D02*
X0021184Y0042434D01*
X0020386Y0041636D02*
X0012950Y0041636D01*
X0012687Y0040837D02*
X0019950Y0040837D01*
X0019950Y0040039D02*
X0011889Y0040039D01*
X0011090Y0039240D02*
X0019950Y0039240D01*
X0019950Y0038442D02*
X0010850Y0038442D01*
X0010850Y0037643D02*
X0019950Y0037643D01*
X0019950Y0036845D02*
X0010850Y0036845D01*
X0010850Y0036046D02*
X0019950Y0036046D01*
X0019950Y0035248D02*
X0010850Y0035248D01*
X0010850Y0034449D02*
X0019950Y0034449D01*
X0019950Y0033651D02*
X0010850Y0033651D01*
X0010898Y0032852D02*
X0019702Y0032852D01*
X0022242Y0056808D02*
X0012950Y0056808D01*
X0012950Y0057606D02*
X0021444Y0057606D01*
X0020645Y0058405D02*
X0012950Y0058405D01*
X0012950Y0059203D02*
X0019847Y0059203D01*
X0019050Y0060002D02*
X0012950Y0060002D01*
X0012950Y0060800D02*
X0019050Y0060800D01*
X0019050Y0061599D02*
X0012950Y0061599D01*
X0012950Y0062397D02*
X0019050Y0062397D01*
X0018554Y0063196D02*
X0012950Y0063196D01*
X0012950Y0063994D02*
X0017756Y0063994D01*
X0016957Y0064793D02*
X0013043Y0064793D01*
X0013841Y0065591D02*
X0016159Y0065591D01*
D42*
X0016450Y0065500D02*
X0015250Y0066700D01*
X0011400Y0070550D01*
X0011400Y0075750D01*
X0014850Y0079200D01*
X0032050Y0079200D01*
X0032150Y0079200D01*
X0033050Y0078300D01*
X0033050Y0079200D01*
X0033350Y0079200D01*
X0042450Y0088300D01*
X0042450Y0094100D01*
X0033050Y0079200D02*
X0032150Y0079200D01*
X0033050Y0078300D02*
X0033050Y0075200D01*
X0027150Y0069200D02*
X0027626Y0068724D01*
X0027626Y0066100D01*
X0027626Y0061692D01*
X0027626Y0057755D02*
X0024395Y0057755D01*
X0021250Y0060900D01*
X0021250Y0066700D01*
X0021250Y0072400D01*
X0016950Y0076500D02*
X0015250Y0074800D01*
X0015250Y0072400D01*
X0016450Y0065500D02*
X0016450Y0059600D01*
X0016450Y0052000D01*
X0016450Y0044400D01*
X0016350Y0044300D01*
X0016450Y0052000D02*
X0018268Y0053818D01*
X0027626Y0053818D01*
X0027626Y0055787D02*
X0020263Y0055787D01*
X0016450Y0059600D01*
X0038650Y0055787D02*
X0045663Y0055787D01*
X0049350Y0053200D01*
X0047632Y0053818D01*
X0038650Y0053818D01*
X0067250Y0068900D02*
X0067350Y0068800D01*
X0067250Y0068900D02*
X0067250Y0072900D01*
X0082050Y0078500D02*
X0083334Y0079784D01*
X0089543Y0079784D01*
X0089543Y0077816D02*
X0082734Y0077816D01*
X0098303Y0084607D02*
X0098303Y0087653D01*
X0109150Y0098500D01*
X0110166Y0079784D02*
X0101157Y0079784D01*
X0101157Y0077816D02*
X0110966Y0077816D01*
X0111550Y0078400D02*
X0110166Y0079784D01*
X0092054Y0060411D02*
X0094857Y0057607D01*
X0094857Y0056093D01*
X0095850Y0055100D01*
X0094857Y0057607D02*
X0097643Y0057607D01*
X0098050Y0057200D01*
X0092054Y0060411D02*
X0086443Y0060411D01*
D43*
X0082734Y0077816D02*
X0082050Y0078500D01*
X0110966Y0077816D02*
X0111550Y0078400D01*
X0119150Y0078400D02*
X0122550Y0075000D01*
X0122550Y0068600D01*
X0122550Y0062800D01*
X0114050Y0107426D02*
X0114450Y0107826D01*
X0114231Y0107607D02*
X0114050Y0107426D01*
D44*
X0109150Y0102526D01*
X0109150Y0098500D01*
X0082050Y0078500D02*
X0074450Y0078500D01*
X0069450Y0083500D01*
X0069450Y0095400D01*
D45*
X0108550Y0043331D02*
X0111919Y0043331D01*
X0114650Y0040600D01*
X0114650Y0038300D01*
X0102800Y0026450D01*
X0102800Y0023550D01*
X0098550Y0019300D01*
X0090550Y0019300D01*
X0088981Y0020869D01*
X0088981Y0020931D01*
X0087350Y0019300D01*
X0088850Y0019300D01*
X0088981Y0019431D01*
X0088981Y0020869D01*
X0088981Y0020931D02*
X0088981Y0027000D01*
X0088850Y0019300D02*
X0090550Y0019300D01*
X0087350Y0019300D02*
X0034850Y0019300D01*
X0031450Y0015900D01*
X0031450Y0013000D01*
D46*
X0114450Y0107826D02*
X0114450Y0117000D01*
D47*
X0067250Y0072900D03*
X0057550Y0099300D03*
X0056150Y0101700D03*
X0059150Y0101700D03*
X0062150Y0100200D03*
M02*
