G75*
%MOIN*%
%OFA0B0*%
%FSLAX25Y25*%
%IPPOS*%
%LPD*%
%AMOC8*
5,1,8,0,0,1.08239X$1,22.5*
%
%ADD10C,0.00000*%
%ADD11C,0.07400*%
%ADD12R,0.02500X0.05000*%
%ADD13R,0.06500X0.06500*%
%ADD14C,0.06500*%
%ADD15C,0.04756*%
%ADD16C,0.05000*%
%ADD17C,0.03500*%
%ADD18C,0.01000*%
%ADD19C,0.03200*%
%ADD20C,0.02400*%
%ADD21C,0.00800*%
%ADD22C,0.04000*%
%ADD23C,0.00600*%
%ADD24C,0.02578*%
%ADD25C,0.01200*%
D10*
X0002050Y0007300D02*
X0002050Y0133284D01*
X0128034Y0133284D01*
X0128034Y0007300D01*
X0002050Y0007300D01*
X0007955Y0019111D02*
X0007957Y0019264D01*
X0007963Y0019418D01*
X0007973Y0019571D01*
X0007987Y0019723D01*
X0008005Y0019876D01*
X0008027Y0020027D01*
X0008052Y0020178D01*
X0008082Y0020329D01*
X0008116Y0020479D01*
X0008153Y0020627D01*
X0008194Y0020775D01*
X0008239Y0020921D01*
X0008288Y0021067D01*
X0008341Y0021211D01*
X0008397Y0021353D01*
X0008457Y0021494D01*
X0008521Y0021634D01*
X0008588Y0021772D01*
X0008659Y0021908D01*
X0008734Y0022042D01*
X0008811Y0022174D01*
X0008893Y0022304D01*
X0008977Y0022432D01*
X0009065Y0022558D01*
X0009156Y0022681D01*
X0009250Y0022802D01*
X0009348Y0022920D01*
X0009448Y0023036D01*
X0009552Y0023149D01*
X0009658Y0023260D01*
X0009767Y0023368D01*
X0009879Y0023473D01*
X0009993Y0023574D01*
X0010111Y0023673D01*
X0010230Y0023769D01*
X0010352Y0023862D01*
X0010477Y0023951D01*
X0010604Y0024038D01*
X0010733Y0024120D01*
X0010864Y0024200D01*
X0010997Y0024276D01*
X0011132Y0024349D01*
X0011269Y0024418D01*
X0011408Y0024483D01*
X0011548Y0024545D01*
X0011690Y0024603D01*
X0011833Y0024658D01*
X0011978Y0024709D01*
X0012124Y0024756D01*
X0012271Y0024799D01*
X0012419Y0024838D01*
X0012568Y0024874D01*
X0012718Y0024905D01*
X0012869Y0024933D01*
X0013020Y0024957D01*
X0013173Y0024977D01*
X0013325Y0024993D01*
X0013478Y0025005D01*
X0013631Y0025013D01*
X0013784Y0025017D01*
X0013938Y0025017D01*
X0014091Y0025013D01*
X0014244Y0025005D01*
X0014397Y0024993D01*
X0014549Y0024977D01*
X0014702Y0024957D01*
X0014853Y0024933D01*
X0015004Y0024905D01*
X0015154Y0024874D01*
X0015303Y0024838D01*
X0015451Y0024799D01*
X0015598Y0024756D01*
X0015744Y0024709D01*
X0015889Y0024658D01*
X0016032Y0024603D01*
X0016174Y0024545D01*
X0016314Y0024483D01*
X0016453Y0024418D01*
X0016590Y0024349D01*
X0016725Y0024276D01*
X0016858Y0024200D01*
X0016989Y0024120D01*
X0017118Y0024038D01*
X0017245Y0023951D01*
X0017370Y0023862D01*
X0017492Y0023769D01*
X0017611Y0023673D01*
X0017729Y0023574D01*
X0017843Y0023473D01*
X0017955Y0023368D01*
X0018064Y0023260D01*
X0018170Y0023149D01*
X0018274Y0023036D01*
X0018374Y0022920D01*
X0018472Y0022802D01*
X0018566Y0022681D01*
X0018657Y0022558D01*
X0018745Y0022432D01*
X0018829Y0022304D01*
X0018911Y0022174D01*
X0018988Y0022042D01*
X0019063Y0021908D01*
X0019134Y0021772D01*
X0019201Y0021634D01*
X0019265Y0021494D01*
X0019325Y0021353D01*
X0019381Y0021211D01*
X0019434Y0021067D01*
X0019483Y0020921D01*
X0019528Y0020775D01*
X0019569Y0020627D01*
X0019606Y0020479D01*
X0019640Y0020329D01*
X0019670Y0020178D01*
X0019695Y0020027D01*
X0019717Y0019876D01*
X0019735Y0019723D01*
X0019749Y0019571D01*
X0019759Y0019418D01*
X0019765Y0019264D01*
X0019767Y0019111D01*
X0019765Y0018958D01*
X0019759Y0018804D01*
X0019749Y0018651D01*
X0019735Y0018499D01*
X0019717Y0018346D01*
X0019695Y0018195D01*
X0019670Y0018044D01*
X0019640Y0017893D01*
X0019606Y0017743D01*
X0019569Y0017595D01*
X0019528Y0017447D01*
X0019483Y0017301D01*
X0019434Y0017155D01*
X0019381Y0017011D01*
X0019325Y0016869D01*
X0019265Y0016728D01*
X0019201Y0016588D01*
X0019134Y0016450D01*
X0019063Y0016314D01*
X0018988Y0016180D01*
X0018911Y0016048D01*
X0018829Y0015918D01*
X0018745Y0015790D01*
X0018657Y0015664D01*
X0018566Y0015541D01*
X0018472Y0015420D01*
X0018374Y0015302D01*
X0018274Y0015186D01*
X0018170Y0015073D01*
X0018064Y0014962D01*
X0017955Y0014854D01*
X0017843Y0014749D01*
X0017729Y0014648D01*
X0017611Y0014549D01*
X0017492Y0014453D01*
X0017370Y0014360D01*
X0017245Y0014271D01*
X0017118Y0014184D01*
X0016989Y0014102D01*
X0016858Y0014022D01*
X0016725Y0013946D01*
X0016590Y0013873D01*
X0016453Y0013804D01*
X0016314Y0013739D01*
X0016174Y0013677D01*
X0016032Y0013619D01*
X0015889Y0013564D01*
X0015744Y0013513D01*
X0015598Y0013466D01*
X0015451Y0013423D01*
X0015303Y0013384D01*
X0015154Y0013348D01*
X0015004Y0013317D01*
X0014853Y0013289D01*
X0014702Y0013265D01*
X0014549Y0013245D01*
X0014397Y0013229D01*
X0014244Y0013217D01*
X0014091Y0013209D01*
X0013938Y0013205D01*
X0013784Y0013205D01*
X0013631Y0013209D01*
X0013478Y0013217D01*
X0013325Y0013229D01*
X0013173Y0013245D01*
X0013020Y0013265D01*
X0012869Y0013289D01*
X0012718Y0013317D01*
X0012568Y0013348D01*
X0012419Y0013384D01*
X0012271Y0013423D01*
X0012124Y0013466D01*
X0011978Y0013513D01*
X0011833Y0013564D01*
X0011690Y0013619D01*
X0011548Y0013677D01*
X0011408Y0013739D01*
X0011269Y0013804D01*
X0011132Y0013873D01*
X0010997Y0013946D01*
X0010864Y0014022D01*
X0010733Y0014102D01*
X0010604Y0014184D01*
X0010477Y0014271D01*
X0010352Y0014360D01*
X0010230Y0014453D01*
X0010111Y0014549D01*
X0009993Y0014648D01*
X0009879Y0014749D01*
X0009767Y0014854D01*
X0009658Y0014962D01*
X0009552Y0015073D01*
X0009448Y0015186D01*
X0009348Y0015302D01*
X0009250Y0015420D01*
X0009156Y0015541D01*
X0009065Y0015664D01*
X0008977Y0015790D01*
X0008893Y0015918D01*
X0008811Y0016048D01*
X0008734Y0016180D01*
X0008659Y0016314D01*
X0008588Y0016450D01*
X0008521Y0016588D01*
X0008457Y0016728D01*
X0008397Y0016869D01*
X0008341Y0017011D01*
X0008288Y0017155D01*
X0008239Y0017301D01*
X0008194Y0017447D01*
X0008153Y0017595D01*
X0008116Y0017743D01*
X0008082Y0017893D01*
X0008052Y0018044D01*
X0008027Y0018195D01*
X0008005Y0018346D01*
X0007987Y0018499D01*
X0007973Y0018651D01*
X0007963Y0018804D01*
X0007957Y0018958D01*
X0007955Y0019111D01*
X0054771Y0118000D02*
X0054773Y0118081D01*
X0054779Y0118163D01*
X0054789Y0118244D01*
X0054803Y0118324D01*
X0054820Y0118403D01*
X0054842Y0118482D01*
X0054867Y0118559D01*
X0054896Y0118636D01*
X0054929Y0118710D01*
X0054966Y0118783D01*
X0055005Y0118854D01*
X0055049Y0118923D01*
X0055095Y0118990D01*
X0055145Y0119054D01*
X0055198Y0119116D01*
X0055254Y0119176D01*
X0055312Y0119232D01*
X0055374Y0119286D01*
X0055438Y0119337D01*
X0055504Y0119384D01*
X0055572Y0119428D01*
X0055643Y0119469D01*
X0055715Y0119506D01*
X0055790Y0119540D01*
X0055865Y0119570D01*
X0055943Y0119596D01*
X0056021Y0119619D01*
X0056100Y0119637D01*
X0056180Y0119652D01*
X0056261Y0119663D01*
X0056342Y0119670D01*
X0056424Y0119673D01*
X0056505Y0119672D01*
X0056586Y0119667D01*
X0056667Y0119658D01*
X0056748Y0119645D01*
X0056828Y0119628D01*
X0056906Y0119608D01*
X0056984Y0119583D01*
X0057061Y0119555D01*
X0057136Y0119523D01*
X0057209Y0119488D01*
X0057280Y0119449D01*
X0057350Y0119406D01*
X0057417Y0119361D01*
X0057483Y0119312D01*
X0057545Y0119260D01*
X0057605Y0119204D01*
X0057662Y0119146D01*
X0057717Y0119086D01*
X0057768Y0119022D01*
X0057816Y0118957D01*
X0057861Y0118889D01*
X0057903Y0118819D01*
X0057941Y0118747D01*
X0057976Y0118673D01*
X0058007Y0118598D01*
X0058034Y0118521D01*
X0058057Y0118443D01*
X0058077Y0118364D01*
X0058093Y0118284D01*
X0058105Y0118203D01*
X0058113Y0118122D01*
X0058117Y0118041D01*
X0058117Y0117959D01*
X0058113Y0117878D01*
X0058105Y0117797D01*
X0058093Y0117716D01*
X0058077Y0117636D01*
X0058057Y0117557D01*
X0058034Y0117479D01*
X0058007Y0117402D01*
X0057976Y0117327D01*
X0057941Y0117253D01*
X0057903Y0117181D01*
X0057861Y0117111D01*
X0057816Y0117043D01*
X0057768Y0116978D01*
X0057717Y0116914D01*
X0057662Y0116854D01*
X0057605Y0116796D01*
X0057545Y0116740D01*
X0057483Y0116688D01*
X0057417Y0116639D01*
X0057350Y0116594D01*
X0057281Y0116551D01*
X0057209Y0116512D01*
X0057136Y0116477D01*
X0057061Y0116445D01*
X0056984Y0116417D01*
X0056906Y0116392D01*
X0056828Y0116372D01*
X0056748Y0116355D01*
X0056667Y0116342D01*
X0056586Y0116333D01*
X0056505Y0116328D01*
X0056424Y0116327D01*
X0056342Y0116330D01*
X0056261Y0116337D01*
X0056180Y0116348D01*
X0056100Y0116363D01*
X0056021Y0116381D01*
X0055943Y0116404D01*
X0055865Y0116430D01*
X0055790Y0116460D01*
X0055715Y0116494D01*
X0055643Y0116531D01*
X0055572Y0116572D01*
X0055504Y0116616D01*
X0055438Y0116663D01*
X0055374Y0116714D01*
X0055312Y0116768D01*
X0055254Y0116824D01*
X0055198Y0116884D01*
X0055145Y0116946D01*
X0055095Y0117010D01*
X0055049Y0117077D01*
X0055005Y0117146D01*
X0054966Y0117217D01*
X0054929Y0117290D01*
X0054896Y0117364D01*
X0054867Y0117441D01*
X0054842Y0117518D01*
X0054820Y0117597D01*
X0054803Y0117676D01*
X0054789Y0117756D01*
X0054779Y0117837D01*
X0054773Y0117919D01*
X0054771Y0118000D01*
X0066583Y0118000D02*
X0066585Y0118081D01*
X0066591Y0118163D01*
X0066601Y0118244D01*
X0066615Y0118324D01*
X0066632Y0118403D01*
X0066654Y0118482D01*
X0066679Y0118559D01*
X0066708Y0118636D01*
X0066741Y0118710D01*
X0066778Y0118783D01*
X0066817Y0118854D01*
X0066861Y0118923D01*
X0066907Y0118990D01*
X0066957Y0119054D01*
X0067010Y0119116D01*
X0067066Y0119176D01*
X0067124Y0119232D01*
X0067186Y0119286D01*
X0067250Y0119337D01*
X0067316Y0119384D01*
X0067384Y0119428D01*
X0067455Y0119469D01*
X0067527Y0119506D01*
X0067602Y0119540D01*
X0067677Y0119570D01*
X0067755Y0119596D01*
X0067833Y0119619D01*
X0067912Y0119637D01*
X0067992Y0119652D01*
X0068073Y0119663D01*
X0068154Y0119670D01*
X0068236Y0119673D01*
X0068317Y0119672D01*
X0068398Y0119667D01*
X0068479Y0119658D01*
X0068560Y0119645D01*
X0068640Y0119628D01*
X0068718Y0119608D01*
X0068796Y0119583D01*
X0068873Y0119555D01*
X0068948Y0119523D01*
X0069021Y0119488D01*
X0069092Y0119449D01*
X0069162Y0119406D01*
X0069229Y0119361D01*
X0069295Y0119312D01*
X0069357Y0119260D01*
X0069417Y0119204D01*
X0069474Y0119146D01*
X0069529Y0119086D01*
X0069580Y0119022D01*
X0069628Y0118957D01*
X0069673Y0118889D01*
X0069715Y0118819D01*
X0069753Y0118747D01*
X0069788Y0118673D01*
X0069819Y0118598D01*
X0069846Y0118521D01*
X0069869Y0118443D01*
X0069889Y0118364D01*
X0069905Y0118284D01*
X0069917Y0118203D01*
X0069925Y0118122D01*
X0069929Y0118041D01*
X0069929Y0117959D01*
X0069925Y0117878D01*
X0069917Y0117797D01*
X0069905Y0117716D01*
X0069889Y0117636D01*
X0069869Y0117557D01*
X0069846Y0117479D01*
X0069819Y0117402D01*
X0069788Y0117327D01*
X0069753Y0117253D01*
X0069715Y0117181D01*
X0069673Y0117111D01*
X0069628Y0117043D01*
X0069580Y0116978D01*
X0069529Y0116914D01*
X0069474Y0116854D01*
X0069417Y0116796D01*
X0069357Y0116740D01*
X0069295Y0116688D01*
X0069229Y0116639D01*
X0069162Y0116594D01*
X0069093Y0116551D01*
X0069021Y0116512D01*
X0068948Y0116477D01*
X0068873Y0116445D01*
X0068796Y0116417D01*
X0068718Y0116392D01*
X0068640Y0116372D01*
X0068560Y0116355D01*
X0068479Y0116342D01*
X0068398Y0116333D01*
X0068317Y0116328D01*
X0068236Y0116327D01*
X0068154Y0116330D01*
X0068073Y0116337D01*
X0067992Y0116348D01*
X0067912Y0116363D01*
X0067833Y0116381D01*
X0067755Y0116404D01*
X0067677Y0116430D01*
X0067602Y0116460D01*
X0067527Y0116494D01*
X0067455Y0116531D01*
X0067384Y0116572D01*
X0067316Y0116616D01*
X0067250Y0116663D01*
X0067186Y0116714D01*
X0067124Y0116768D01*
X0067066Y0116824D01*
X0067010Y0116884D01*
X0066957Y0116946D01*
X0066907Y0117010D01*
X0066861Y0117077D01*
X0066817Y0117146D01*
X0066778Y0117217D01*
X0066741Y0117290D01*
X0066708Y0117364D01*
X0066679Y0117441D01*
X0066654Y0117518D01*
X0066632Y0117597D01*
X0066615Y0117676D01*
X0066601Y0117756D01*
X0066591Y0117837D01*
X0066585Y0117919D01*
X0066583Y0118000D01*
X0110317Y0019111D02*
X0110319Y0019264D01*
X0110325Y0019418D01*
X0110335Y0019571D01*
X0110349Y0019723D01*
X0110367Y0019876D01*
X0110389Y0020027D01*
X0110414Y0020178D01*
X0110444Y0020329D01*
X0110478Y0020479D01*
X0110515Y0020627D01*
X0110556Y0020775D01*
X0110601Y0020921D01*
X0110650Y0021067D01*
X0110703Y0021211D01*
X0110759Y0021353D01*
X0110819Y0021494D01*
X0110883Y0021634D01*
X0110950Y0021772D01*
X0111021Y0021908D01*
X0111096Y0022042D01*
X0111173Y0022174D01*
X0111255Y0022304D01*
X0111339Y0022432D01*
X0111427Y0022558D01*
X0111518Y0022681D01*
X0111612Y0022802D01*
X0111710Y0022920D01*
X0111810Y0023036D01*
X0111914Y0023149D01*
X0112020Y0023260D01*
X0112129Y0023368D01*
X0112241Y0023473D01*
X0112355Y0023574D01*
X0112473Y0023673D01*
X0112592Y0023769D01*
X0112714Y0023862D01*
X0112839Y0023951D01*
X0112966Y0024038D01*
X0113095Y0024120D01*
X0113226Y0024200D01*
X0113359Y0024276D01*
X0113494Y0024349D01*
X0113631Y0024418D01*
X0113770Y0024483D01*
X0113910Y0024545D01*
X0114052Y0024603D01*
X0114195Y0024658D01*
X0114340Y0024709D01*
X0114486Y0024756D01*
X0114633Y0024799D01*
X0114781Y0024838D01*
X0114930Y0024874D01*
X0115080Y0024905D01*
X0115231Y0024933D01*
X0115382Y0024957D01*
X0115535Y0024977D01*
X0115687Y0024993D01*
X0115840Y0025005D01*
X0115993Y0025013D01*
X0116146Y0025017D01*
X0116300Y0025017D01*
X0116453Y0025013D01*
X0116606Y0025005D01*
X0116759Y0024993D01*
X0116911Y0024977D01*
X0117064Y0024957D01*
X0117215Y0024933D01*
X0117366Y0024905D01*
X0117516Y0024874D01*
X0117665Y0024838D01*
X0117813Y0024799D01*
X0117960Y0024756D01*
X0118106Y0024709D01*
X0118251Y0024658D01*
X0118394Y0024603D01*
X0118536Y0024545D01*
X0118676Y0024483D01*
X0118815Y0024418D01*
X0118952Y0024349D01*
X0119087Y0024276D01*
X0119220Y0024200D01*
X0119351Y0024120D01*
X0119480Y0024038D01*
X0119607Y0023951D01*
X0119732Y0023862D01*
X0119854Y0023769D01*
X0119973Y0023673D01*
X0120091Y0023574D01*
X0120205Y0023473D01*
X0120317Y0023368D01*
X0120426Y0023260D01*
X0120532Y0023149D01*
X0120636Y0023036D01*
X0120736Y0022920D01*
X0120834Y0022802D01*
X0120928Y0022681D01*
X0121019Y0022558D01*
X0121107Y0022432D01*
X0121191Y0022304D01*
X0121273Y0022174D01*
X0121350Y0022042D01*
X0121425Y0021908D01*
X0121496Y0021772D01*
X0121563Y0021634D01*
X0121627Y0021494D01*
X0121687Y0021353D01*
X0121743Y0021211D01*
X0121796Y0021067D01*
X0121845Y0020921D01*
X0121890Y0020775D01*
X0121931Y0020627D01*
X0121968Y0020479D01*
X0122002Y0020329D01*
X0122032Y0020178D01*
X0122057Y0020027D01*
X0122079Y0019876D01*
X0122097Y0019723D01*
X0122111Y0019571D01*
X0122121Y0019418D01*
X0122127Y0019264D01*
X0122129Y0019111D01*
X0122127Y0018958D01*
X0122121Y0018804D01*
X0122111Y0018651D01*
X0122097Y0018499D01*
X0122079Y0018346D01*
X0122057Y0018195D01*
X0122032Y0018044D01*
X0122002Y0017893D01*
X0121968Y0017743D01*
X0121931Y0017595D01*
X0121890Y0017447D01*
X0121845Y0017301D01*
X0121796Y0017155D01*
X0121743Y0017011D01*
X0121687Y0016869D01*
X0121627Y0016728D01*
X0121563Y0016588D01*
X0121496Y0016450D01*
X0121425Y0016314D01*
X0121350Y0016180D01*
X0121273Y0016048D01*
X0121191Y0015918D01*
X0121107Y0015790D01*
X0121019Y0015664D01*
X0120928Y0015541D01*
X0120834Y0015420D01*
X0120736Y0015302D01*
X0120636Y0015186D01*
X0120532Y0015073D01*
X0120426Y0014962D01*
X0120317Y0014854D01*
X0120205Y0014749D01*
X0120091Y0014648D01*
X0119973Y0014549D01*
X0119854Y0014453D01*
X0119732Y0014360D01*
X0119607Y0014271D01*
X0119480Y0014184D01*
X0119351Y0014102D01*
X0119220Y0014022D01*
X0119087Y0013946D01*
X0118952Y0013873D01*
X0118815Y0013804D01*
X0118676Y0013739D01*
X0118536Y0013677D01*
X0118394Y0013619D01*
X0118251Y0013564D01*
X0118106Y0013513D01*
X0117960Y0013466D01*
X0117813Y0013423D01*
X0117665Y0013384D01*
X0117516Y0013348D01*
X0117366Y0013317D01*
X0117215Y0013289D01*
X0117064Y0013265D01*
X0116911Y0013245D01*
X0116759Y0013229D01*
X0116606Y0013217D01*
X0116453Y0013209D01*
X0116300Y0013205D01*
X0116146Y0013205D01*
X0115993Y0013209D01*
X0115840Y0013217D01*
X0115687Y0013229D01*
X0115535Y0013245D01*
X0115382Y0013265D01*
X0115231Y0013289D01*
X0115080Y0013317D01*
X0114930Y0013348D01*
X0114781Y0013384D01*
X0114633Y0013423D01*
X0114486Y0013466D01*
X0114340Y0013513D01*
X0114195Y0013564D01*
X0114052Y0013619D01*
X0113910Y0013677D01*
X0113770Y0013739D01*
X0113631Y0013804D01*
X0113494Y0013873D01*
X0113359Y0013946D01*
X0113226Y0014022D01*
X0113095Y0014102D01*
X0112966Y0014184D01*
X0112839Y0014271D01*
X0112714Y0014360D01*
X0112592Y0014453D01*
X0112473Y0014549D01*
X0112355Y0014648D01*
X0112241Y0014749D01*
X0112129Y0014854D01*
X0112020Y0014962D01*
X0111914Y0015073D01*
X0111810Y0015186D01*
X0111710Y0015302D01*
X0111612Y0015420D01*
X0111518Y0015541D01*
X0111427Y0015664D01*
X0111339Y0015790D01*
X0111255Y0015918D01*
X0111173Y0016048D01*
X0111096Y0016180D01*
X0111021Y0016314D01*
X0110950Y0016450D01*
X0110883Y0016588D01*
X0110819Y0016728D01*
X0110759Y0016869D01*
X0110703Y0017011D01*
X0110650Y0017155D01*
X0110601Y0017301D01*
X0110556Y0017447D01*
X0110515Y0017595D01*
X0110478Y0017743D01*
X0110444Y0017893D01*
X0110414Y0018044D01*
X0110389Y0018195D01*
X0110367Y0018346D01*
X0110349Y0018499D01*
X0110335Y0018651D01*
X0110325Y0018804D01*
X0110319Y0018958D01*
X0110317Y0019111D01*
D11*
X0114050Y0107426D03*
X0104050Y0107426D03*
X0026550Y0089926D03*
X0016550Y0089926D03*
D12*
X0083284Y0067270D03*
X0086484Y0067270D03*
X0086454Y0058370D03*
X0083254Y0058370D03*
X0091350Y0043100D03*
X0094550Y0043100D03*
X0097750Y0043100D03*
D13*
X0031450Y0013000D03*
D14*
X0041450Y0013000D03*
X0051450Y0013000D03*
X0061450Y0013000D03*
X0071450Y0013000D03*
D15*
X0098950Y0117000D03*
X0099550Y0117000D03*
X0099950Y0117000D03*
X0118550Y0117000D03*
X0119050Y0117000D03*
X0119550Y0117000D03*
D16*
X0123050Y0126600D03*
X0123050Y0127700D03*
X0123050Y0128600D03*
X0095450Y0128600D03*
X0095450Y0127600D03*
X0095450Y0126600D03*
D17*
X0085650Y0040000D03*
X0079950Y0032600D03*
D18*
X0076769Y0031264D02*
X0073650Y0031264D01*
X0073650Y0030266D02*
X0077405Y0030266D01*
X0077025Y0030646D02*
X0077996Y0029675D01*
X0079264Y0029150D01*
X0080636Y0029150D01*
X0081904Y0029675D01*
X0082875Y0030646D01*
X0083097Y0031183D01*
X0083580Y0030700D01*
X0090917Y0030700D01*
X0091276Y0030341D01*
X0092342Y0029900D01*
X0093495Y0029900D01*
X0094561Y0030341D01*
X0095377Y0031157D01*
X0095818Y0032223D01*
X0095818Y0032491D01*
X0096279Y0032300D01*
X0097432Y0032300D01*
X0098498Y0032741D01*
X0099314Y0033557D01*
X0099755Y0034623D01*
X0099755Y0035777D01*
X0099497Y0036400D01*
X0112449Y0036400D01*
X0113007Y0035841D01*
X0114073Y0035400D01*
X0115227Y0035400D01*
X0116293Y0035841D01*
X0117108Y0036657D01*
X0117550Y0037723D01*
X0117550Y0038877D01*
X0117108Y0039943D01*
X0116293Y0040758D01*
X0115227Y0041200D01*
X0114073Y0041200D01*
X0113107Y0040800D01*
X0100700Y0040800D01*
X0100700Y0046304D01*
X0099978Y0047026D01*
X0100350Y0047923D01*
X0100350Y0049077D01*
X0099908Y0050143D01*
X0099093Y0050958D01*
X0098027Y0051400D01*
X0097378Y0051400D01*
X0097939Y0051960D01*
X0097946Y0051963D01*
X0118183Y0072200D01*
X0122920Y0072200D01*
X0124150Y0073430D01*
X0125150Y0074430D01*
X0125150Y0081170D01*
X0123920Y0082400D01*
X0122920Y0083400D01*
X0114180Y0083400D01*
X0112950Y0082170D01*
X0110950Y0080170D01*
X0110950Y0075433D01*
X0099016Y0063499D01*
X0098708Y0064243D01*
X0097893Y0065058D01*
X0096827Y0065500D01*
X0095673Y0065500D01*
X0094607Y0065058D01*
X0093791Y0064243D01*
X0093350Y0063177D01*
X0093350Y0062670D01*
X0091150Y0060470D01*
X0089404Y0060470D01*
X0089404Y0061574D01*
X0088408Y0062570D01*
X0084500Y0062570D01*
X0083504Y0061574D01*
X0083504Y0055166D01*
X0084500Y0054170D01*
X0088408Y0054170D01*
X0089350Y0055112D01*
X0089350Y0051972D01*
X0090350Y0050972D01*
X0090359Y0050963D01*
X0090107Y0050858D01*
X0089291Y0050043D01*
X0088850Y0048977D01*
X0088850Y0047823D01*
X0089163Y0047067D01*
X0088400Y0046304D01*
X0088400Y0042129D01*
X0087604Y0042925D01*
X0086336Y0043450D01*
X0084964Y0043450D01*
X0083696Y0042925D01*
X0082725Y0041954D01*
X0082620Y0041700D01*
X0078620Y0045700D01*
X0079727Y0045700D01*
X0080793Y0046141D01*
X0081608Y0046957D01*
X0082050Y0048023D01*
X0082050Y0049177D01*
X0081608Y0050243D01*
X0081250Y0050601D01*
X0081250Y0055799D01*
X0081508Y0056057D01*
X0081950Y0057123D01*
X0081950Y0058277D01*
X0081508Y0059343D01*
X0080693Y0060158D01*
X0079627Y0060600D01*
X0078473Y0060600D01*
X0077407Y0060158D01*
X0076591Y0059343D01*
X0076150Y0058277D01*
X0076150Y0057123D01*
X0076591Y0056057D01*
X0076850Y0055799D01*
X0076850Y0050401D01*
X0076691Y0050243D01*
X0076250Y0049177D01*
X0076250Y0048070D01*
X0056850Y0067470D01*
X0056850Y0067977D01*
X0056408Y0069043D01*
X0055593Y0069858D01*
X0054527Y0070300D01*
X0053373Y0070300D01*
X0052307Y0069858D01*
X0051900Y0069451D01*
X0051893Y0069458D01*
X0050827Y0069900D01*
X0049673Y0069900D01*
X0048607Y0069458D01*
X0047791Y0068643D01*
X0047474Y0067877D01*
X0047293Y0068058D01*
X0046227Y0068500D01*
X0045073Y0068500D01*
X0044007Y0068058D01*
X0043562Y0067613D01*
X0042627Y0068000D01*
X0041473Y0068000D01*
X0040407Y0067558D01*
X0039591Y0066743D01*
X0039307Y0066055D01*
X0038356Y0067005D01*
X0038908Y0067557D01*
X0039350Y0068623D01*
X0039350Y0069777D01*
X0038908Y0070843D01*
X0038093Y0071658D01*
X0037027Y0072100D01*
X0035873Y0072100D01*
X0034807Y0071658D01*
X0033991Y0070843D01*
X0033550Y0069777D01*
X0033550Y0068623D01*
X0033684Y0068300D01*
X0029528Y0068300D01*
X0029269Y0068558D01*
X0028203Y0069000D01*
X0027050Y0069000D01*
X0025984Y0068558D01*
X0025168Y0067743D01*
X0024726Y0066677D01*
X0024726Y0065523D01*
X0025168Y0064457D01*
X0025984Y0063641D01*
X0027050Y0063200D01*
X0028203Y0063200D01*
X0029269Y0063641D01*
X0029528Y0063900D01*
X0035239Y0063900D01*
X0040550Y0058589D01*
X0040550Y0058223D01*
X0040991Y0057157D01*
X0041807Y0056341D01*
X0042873Y0055900D01*
X0044027Y0055900D01*
X0045093Y0056341D01*
X0045908Y0057157D01*
X0046235Y0057945D01*
X0049350Y0054830D01*
X0049350Y0042901D01*
X0048991Y0042543D01*
X0048550Y0041477D01*
X0048550Y0040323D01*
X0048991Y0039257D01*
X0049350Y0038899D01*
X0049350Y0017488D01*
X0048646Y0017196D01*
X0047254Y0015804D01*
X0046500Y0013985D01*
X0046500Y0012015D01*
X0047254Y0010196D01*
X0048450Y0009000D01*
X0036354Y0009000D01*
X0036400Y0009046D01*
X0036400Y0016954D01*
X0035404Y0017950D01*
X0035150Y0017950D01*
X0035150Y0024136D01*
X0034587Y0025496D01*
X0023150Y0036933D01*
X0023150Y0040970D01*
X0021250Y0042870D01*
X0020020Y0044100D01*
X0011780Y0044100D01*
X0009580Y0041900D01*
X0009280Y0041600D01*
X0007680Y0040000D01*
X0006450Y0038770D01*
X0006450Y0032630D01*
X0007250Y0031830D01*
X0007713Y0031367D01*
X0004507Y0029272D01*
X0003750Y0028299D01*
X0003750Y0131584D01*
X0126334Y0131584D01*
X0126334Y0028319D01*
X0123777Y0030673D01*
X0119614Y0032499D01*
X0115083Y0032875D01*
X0110675Y0031759D01*
X0110675Y0031759D01*
X0106869Y0029272D01*
X0104077Y0025684D01*
X0102601Y0021384D01*
X0102601Y0016838D01*
X0104077Y0012538D01*
X0104077Y0012538D01*
X0106830Y0009000D01*
X0074450Y0009000D01*
X0075646Y0010196D01*
X0076400Y0012015D01*
X0076400Y0013985D01*
X0075646Y0015804D01*
X0074254Y0017196D01*
X0073650Y0017447D01*
X0073650Y0038999D01*
X0073908Y0039257D01*
X0074235Y0040045D01*
X0078533Y0035747D01*
X0077996Y0035525D01*
X0077025Y0034554D01*
X0076500Y0033286D01*
X0076500Y0031914D01*
X0077025Y0030646D01*
X0076500Y0032263D02*
X0073650Y0032263D01*
X0073650Y0033261D02*
X0076500Y0033261D01*
X0076903Y0034260D02*
X0073650Y0034260D01*
X0073650Y0035258D02*
X0077729Y0035258D01*
X0078023Y0036257D02*
X0073650Y0036257D01*
X0073650Y0037255D02*
X0077025Y0037255D01*
X0076026Y0038254D02*
X0073650Y0038254D01*
X0073904Y0039252D02*
X0075028Y0039252D01*
X0071450Y0040900D02*
X0071450Y0013000D01*
X0076101Y0011294D02*
X0105045Y0011294D01*
X0105822Y0010296D02*
X0075688Y0010296D01*
X0074747Y0009297D02*
X0106599Y0009297D01*
X0104268Y0012293D02*
X0076400Y0012293D01*
X0076400Y0013291D02*
X0103818Y0013291D01*
X0103475Y0014290D02*
X0076274Y0014290D01*
X0075860Y0015288D02*
X0103133Y0015288D01*
X0102790Y0016287D02*
X0075164Y0016287D01*
X0074040Y0017285D02*
X0102601Y0017285D01*
X0102601Y0018284D02*
X0073650Y0018284D01*
X0073650Y0019282D02*
X0102601Y0019282D01*
X0102601Y0020281D02*
X0073650Y0020281D01*
X0073650Y0021279D02*
X0102601Y0021279D01*
X0102907Y0022278D02*
X0073650Y0022278D01*
X0073650Y0023276D02*
X0103250Y0023276D01*
X0103593Y0024275D02*
X0073650Y0024275D01*
X0073650Y0025273D02*
X0103936Y0025273D01*
X0104077Y0025684D02*
X0104077Y0025684D01*
X0104534Y0026272D02*
X0073650Y0026272D01*
X0073650Y0027270D02*
X0105311Y0027270D01*
X0106088Y0028269D02*
X0073650Y0028269D01*
X0073650Y0029267D02*
X0078981Y0029267D01*
X0080919Y0029267D02*
X0106865Y0029267D01*
X0106869Y0029272D02*
X0106869Y0029272D01*
X0108390Y0030266D02*
X0094378Y0030266D01*
X0095421Y0031264D02*
X0109919Y0031264D01*
X0112666Y0032263D02*
X0095818Y0032263D01*
X0099018Y0033261D02*
X0126334Y0033261D01*
X0126334Y0032263D02*
X0120153Y0032263D01*
X0122429Y0031264D02*
X0126334Y0031264D01*
X0126334Y0030266D02*
X0124220Y0030266D01*
X0123777Y0030673D02*
X0123777Y0030673D01*
X0125304Y0029267D02*
X0126334Y0029267D01*
X0126334Y0034260D02*
X0099605Y0034260D01*
X0099755Y0035258D02*
X0126334Y0035258D01*
X0126334Y0036257D02*
X0116708Y0036257D01*
X0117356Y0037255D02*
X0126334Y0037255D01*
X0126334Y0038254D02*
X0117550Y0038254D01*
X0117394Y0039252D02*
X0126334Y0039252D01*
X0126334Y0040251D02*
X0116800Y0040251D01*
X0114650Y0038300D02*
X0114350Y0038600D01*
X0095850Y0038600D01*
X0094550Y0039900D01*
X0094550Y0043100D01*
X0088400Y0043246D02*
X0086828Y0043246D01*
X0088281Y0042248D02*
X0088400Y0042248D01*
X0088400Y0044245D02*
X0080075Y0044245D01*
X0081073Y0043246D02*
X0084472Y0043246D01*
X0083019Y0042248D02*
X0082072Y0042248D01*
X0079076Y0045243D02*
X0088400Y0045243D01*
X0088400Y0046242D02*
X0080893Y0046242D01*
X0081726Y0047240D02*
X0089091Y0047240D01*
X0088850Y0048239D02*
X0082050Y0048239D01*
X0082025Y0049237D02*
X0088958Y0049237D01*
X0089485Y0050236D02*
X0081611Y0050236D01*
X0081250Y0051234D02*
X0090087Y0051234D01*
X0089350Y0052233D02*
X0081250Y0052233D01*
X0081250Y0053232D02*
X0089350Y0053232D01*
X0089350Y0054230D02*
X0088468Y0054230D01*
X0084440Y0054230D02*
X0081250Y0054230D01*
X0081250Y0055229D02*
X0083504Y0055229D01*
X0083504Y0056227D02*
X0081579Y0056227D01*
X0081950Y0057226D02*
X0083504Y0057226D01*
X0083504Y0058224D02*
X0081950Y0058224D01*
X0081558Y0059223D02*
X0083504Y0059223D01*
X0083504Y0060221D02*
X0080542Y0060221D01*
X0079050Y0057700D02*
X0079050Y0048700D01*
X0079150Y0048600D01*
X0076689Y0050236D02*
X0074084Y0050236D01*
X0075082Y0049237D02*
X0076275Y0049237D01*
X0076250Y0048239D02*
X0076081Y0048239D01*
X0076850Y0051234D02*
X0073085Y0051234D01*
X0072087Y0052233D02*
X0076850Y0052233D01*
X0076850Y0053232D02*
X0071088Y0053232D01*
X0070090Y0054230D02*
X0076850Y0054230D01*
X0076850Y0055229D02*
X0069091Y0055229D01*
X0068093Y0056227D02*
X0076521Y0056227D01*
X0076150Y0057226D02*
X0067094Y0057226D01*
X0066096Y0058224D02*
X0076150Y0058224D01*
X0076542Y0059223D02*
X0065097Y0059223D01*
X0064099Y0060221D02*
X0077558Y0060221D01*
X0083504Y0061220D02*
X0063100Y0061220D01*
X0062102Y0062218D02*
X0084148Y0062218D01*
X0084530Y0063070D02*
X0083534Y0064066D01*
X0083534Y0070474D01*
X0084530Y0071470D01*
X0085300Y0071470D01*
X0085300Y0071627D01*
X0085741Y0072693D01*
X0086557Y0073508D01*
X0087623Y0073950D01*
X0088777Y0073950D01*
X0089843Y0073508D01*
X0090658Y0072693D01*
X0091100Y0071627D01*
X0091100Y0070473D01*
X0090658Y0069407D01*
X0089843Y0068591D01*
X0089434Y0068422D01*
X0089434Y0064066D01*
X0088438Y0063070D01*
X0084530Y0063070D01*
X0084383Y0063217D02*
X0061103Y0063217D01*
X0060105Y0064215D02*
X0083534Y0064215D01*
X0083534Y0065214D02*
X0059106Y0065214D01*
X0058108Y0066212D02*
X0083534Y0066212D01*
X0083534Y0067211D02*
X0057109Y0067211D01*
X0056754Y0068209D02*
X0083534Y0068209D01*
X0083534Y0069208D02*
X0056244Y0069208D01*
X0054753Y0070206D02*
X0065943Y0070206D01*
X0065557Y0070366D02*
X0066655Y0069911D01*
X0067845Y0069911D01*
X0068943Y0070366D01*
X0069784Y0071207D01*
X0070239Y0072305D01*
X0070239Y0073495D01*
X0069784Y0074593D01*
X0069550Y0074827D01*
X0069550Y0096053D01*
X0068203Y0097400D01*
X0067150Y0098453D01*
X0067150Y0103170D01*
X0065920Y0104400D01*
X0064920Y0105400D01*
X0053180Y0105400D01*
X0051950Y0104170D01*
X0051950Y0103900D01*
X0036088Y0103900D01*
X0034728Y0103337D01*
X0033687Y0102296D01*
X0026717Y0095326D01*
X0025476Y0095326D01*
X0023491Y0094504D01*
X0021972Y0092985D01*
X0021150Y0091000D01*
X0021150Y0088852D01*
X0021972Y0086867D01*
X0023491Y0085348D01*
X0025476Y0084526D01*
X0027624Y0084526D01*
X0029609Y0085348D01*
X0031128Y0086867D01*
X0031950Y0088852D01*
X0031950Y0090093D01*
X0038357Y0096500D01*
X0053880Y0096500D01*
X0054180Y0096200D01*
X0062897Y0096200D01*
X0064950Y0094147D01*
X0064950Y0074827D01*
X0064716Y0074593D01*
X0064261Y0073495D01*
X0064261Y0072305D01*
X0064716Y0071207D01*
X0065557Y0070366D01*
X0064718Y0071205D02*
X0038546Y0071205D01*
X0039172Y0070206D02*
X0053147Y0070206D01*
X0048356Y0069208D02*
X0039350Y0069208D01*
X0039179Y0068209D02*
X0044371Y0068209D01*
X0046929Y0068209D02*
X0047612Y0068209D01*
X0050120Y0064100D02*
X0050180Y0064100D01*
X0070595Y0043685D01*
X0069807Y0043358D01*
X0068991Y0042543D01*
X0068550Y0041477D01*
X0068550Y0040323D01*
X0068991Y0039257D01*
X0069250Y0038999D01*
X0069250Y0017447D01*
X0068646Y0017196D01*
X0067254Y0015804D01*
X0066500Y0013985D01*
X0066500Y0012015D01*
X0067254Y0010196D01*
X0068450Y0009000D01*
X0064450Y0009000D01*
X0065646Y0010196D01*
X0066400Y0012015D01*
X0066400Y0013985D01*
X0065646Y0015804D01*
X0064254Y0017196D01*
X0063550Y0017488D01*
X0063550Y0050670D01*
X0062320Y0051900D01*
X0050120Y0064100D01*
X0051003Y0063217D02*
X0051064Y0063217D01*
X0052002Y0062218D02*
X0052062Y0062218D01*
X0053000Y0061220D02*
X0053061Y0061220D01*
X0053999Y0060221D02*
X0054059Y0060221D01*
X0054997Y0059223D02*
X0055058Y0059223D01*
X0055996Y0058224D02*
X0056056Y0058224D01*
X0056994Y0057226D02*
X0057055Y0057226D01*
X0057993Y0056227D02*
X0058053Y0056227D01*
X0058991Y0055229D02*
X0059052Y0055229D01*
X0059990Y0054230D02*
X0060050Y0054230D01*
X0060988Y0053232D02*
X0061049Y0053232D01*
X0061987Y0052233D02*
X0062047Y0052233D01*
X0062985Y0051234D02*
X0063046Y0051234D01*
X0063550Y0050236D02*
X0064044Y0050236D01*
X0063550Y0049237D02*
X0065043Y0049237D01*
X0066041Y0048239D02*
X0063550Y0048239D01*
X0063550Y0047240D02*
X0067040Y0047240D01*
X0068038Y0046242D02*
X0063550Y0046242D01*
X0063550Y0045243D02*
X0069037Y0045243D01*
X0070035Y0044245D02*
X0063550Y0044245D01*
X0063550Y0043246D02*
X0069695Y0043246D01*
X0068869Y0042248D02*
X0063550Y0042248D01*
X0063550Y0041249D02*
X0068550Y0041249D01*
X0068580Y0040251D02*
X0063550Y0040251D01*
X0063550Y0039252D02*
X0068996Y0039252D01*
X0069250Y0038254D02*
X0063550Y0038254D01*
X0063550Y0037255D02*
X0069250Y0037255D01*
X0069250Y0036257D02*
X0063550Y0036257D01*
X0063550Y0035258D02*
X0069250Y0035258D01*
X0069250Y0034260D02*
X0063550Y0034260D01*
X0063550Y0033261D02*
X0069250Y0033261D01*
X0069250Y0032263D02*
X0063550Y0032263D01*
X0063550Y0031264D02*
X0069250Y0031264D01*
X0069250Y0030266D02*
X0063550Y0030266D01*
X0063550Y0029267D02*
X0069250Y0029267D01*
X0069250Y0028269D02*
X0063550Y0028269D01*
X0063550Y0027270D02*
X0069250Y0027270D01*
X0069250Y0026272D02*
X0063550Y0026272D01*
X0063550Y0025273D02*
X0069250Y0025273D01*
X0069250Y0024275D02*
X0063550Y0024275D01*
X0063550Y0023276D02*
X0069250Y0023276D01*
X0069250Y0022278D02*
X0063550Y0022278D01*
X0063550Y0021279D02*
X0069250Y0021279D01*
X0069250Y0020281D02*
X0063550Y0020281D01*
X0063550Y0019282D02*
X0069250Y0019282D01*
X0069250Y0018284D02*
X0063550Y0018284D01*
X0064040Y0017285D02*
X0068860Y0017285D01*
X0067736Y0016287D02*
X0065164Y0016287D01*
X0065860Y0015288D02*
X0067040Y0015288D01*
X0066626Y0014290D02*
X0066274Y0014290D01*
X0066400Y0013291D02*
X0066500Y0013291D01*
X0066500Y0012293D02*
X0066400Y0012293D01*
X0066101Y0011294D02*
X0066799Y0011294D01*
X0067212Y0010296D02*
X0065688Y0010296D01*
X0064747Y0009297D02*
X0068153Y0009297D01*
X0058450Y0009000D02*
X0054450Y0009000D01*
X0055646Y0010196D01*
X0056400Y0012015D01*
X0056400Y0013985D01*
X0055646Y0015804D01*
X0054254Y0017196D01*
X0053550Y0017488D01*
X0053550Y0038899D01*
X0053908Y0039257D01*
X0054350Y0040323D01*
X0054350Y0041477D01*
X0053908Y0042543D01*
X0053550Y0042901D01*
X0053550Y0054730D01*
X0059350Y0048930D01*
X0059350Y0017488D01*
X0058646Y0017196D01*
X0057254Y0015804D01*
X0056500Y0013985D01*
X0056500Y0012015D01*
X0057254Y0010196D01*
X0058450Y0009000D01*
X0058153Y0009297D02*
X0054747Y0009297D01*
X0055688Y0010296D02*
X0057212Y0010296D01*
X0056799Y0011294D02*
X0056101Y0011294D01*
X0056400Y0012293D02*
X0056500Y0012293D01*
X0056500Y0013291D02*
X0056400Y0013291D01*
X0056274Y0014290D02*
X0056626Y0014290D01*
X0057040Y0015288D02*
X0055860Y0015288D01*
X0055164Y0016287D02*
X0057736Y0016287D01*
X0058860Y0017285D02*
X0054040Y0017285D01*
X0053550Y0018284D02*
X0059350Y0018284D01*
X0059350Y0019282D02*
X0053550Y0019282D01*
X0053550Y0020281D02*
X0059350Y0020281D01*
X0059350Y0021279D02*
X0053550Y0021279D01*
X0053550Y0022278D02*
X0059350Y0022278D01*
X0059350Y0023276D02*
X0053550Y0023276D01*
X0053550Y0024275D02*
X0059350Y0024275D01*
X0059350Y0025273D02*
X0053550Y0025273D01*
X0053550Y0026272D02*
X0059350Y0026272D01*
X0059350Y0027270D02*
X0053550Y0027270D01*
X0053550Y0028269D02*
X0059350Y0028269D01*
X0059350Y0029267D02*
X0053550Y0029267D01*
X0053550Y0030266D02*
X0059350Y0030266D01*
X0059350Y0031264D02*
X0053550Y0031264D01*
X0053550Y0032263D02*
X0059350Y0032263D01*
X0059350Y0033261D02*
X0053550Y0033261D01*
X0053550Y0034260D02*
X0059350Y0034260D01*
X0059350Y0035258D02*
X0053550Y0035258D01*
X0053550Y0036257D02*
X0059350Y0036257D01*
X0059350Y0037255D02*
X0053550Y0037255D01*
X0053550Y0038254D02*
X0059350Y0038254D01*
X0059350Y0039252D02*
X0053904Y0039252D01*
X0054320Y0040251D02*
X0059350Y0040251D01*
X0059350Y0041249D02*
X0054350Y0041249D01*
X0054031Y0042248D02*
X0059350Y0042248D01*
X0059350Y0043246D02*
X0053550Y0043246D01*
X0053550Y0044245D02*
X0059350Y0044245D01*
X0059350Y0045243D02*
X0053550Y0045243D01*
X0053550Y0046242D02*
X0059350Y0046242D01*
X0059350Y0047240D02*
X0053550Y0047240D01*
X0053550Y0048239D02*
X0059350Y0048239D01*
X0059043Y0049237D02*
X0053550Y0049237D01*
X0053550Y0050236D02*
X0058044Y0050236D01*
X0057046Y0051234D02*
X0053550Y0051234D01*
X0053550Y0052233D02*
X0056047Y0052233D01*
X0055049Y0053232D02*
X0053550Y0053232D01*
X0053550Y0054230D02*
X0054050Y0054230D01*
X0049350Y0054230D02*
X0003750Y0054230D01*
X0003750Y0053232D02*
X0049350Y0053232D01*
X0049350Y0052233D02*
X0003750Y0052233D01*
X0003750Y0051234D02*
X0049350Y0051234D01*
X0049350Y0050236D02*
X0003750Y0050236D01*
X0003750Y0049237D02*
X0049350Y0049237D01*
X0049350Y0048239D02*
X0003750Y0048239D01*
X0003750Y0047240D02*
X0049350Y0047240D01*
X0049350Y0046242D02*
X0003750Y0046242D01*
X0003750Y0045243D02*
X0049350Y0045243D01*
X0049350Y0044245D02*
X0003750Y0044245D01*
X0003750Y0043246D02*
X0010927Y0043246D01*
X0009928Y0042248D02*
X0003750Y0042248D01*
X0003750Y0041249D02*
X0008930Y0041249D01*
X0007931Y0040251D02*
X0003750Y0040251D01*
X0003750Y0039252D02*
X0006933Y0039252D01*
X0006450Y0038254D02*
X0003750Y0038254D01*
X0003750Y0037255D02*
X0006450Y0037255D01*
X0006450Y0036257D02*
X0003750Y0036257D01*
X0003750Y0035258D02*
X0006450Y0035258D01*
X0006450Y0034260D02*
X0003750Y0034260D01*
X0003750Y0033261D02*
X0006450Y0033261D01*
X0006817Y0032263D02*
X0003750Y0032263D01*
X0003750Y0031264D02*
X0007556Y0031264D01*
X0006028Y0030266D02*
X0003750Y0030266D01*
X0003750Y0029267D02*
X0004503Y0029267D01*
X0004507Y0029272D02*
X0004507Y0029272D01*
X0004507Y0029272D01*
X0020873Y0043246D02*
X0049350Y0043246D01*
X0048869Y0042248D02*
X0021872Y0042248D01*
X0022870Y0041249D02*
X0048550Y0041249D01*
X0048580Y0040251D02*
X0023150Y0040251D01*
X0023150Y0039252D02*
X0048996Y0039252D01*
X0049350Y0038254D02*
X0023150Y0038254D01*
X0023150Y0037255D02*
X0049350Y0037255D01*
X0049350Y0036257D02*
X0023826Y0036257D01*
X0024824Y0035258D02*
X0049350Y0035258D01*
X0049350Y0034260D02*
X0025823Y0034260D01*
X0026821Y0033261D02*
X0049350Y0033261D01*
X0049350Y0032263D02*
X0027820Y0032263D01*
X0028818Y0031264D02*
X0049350Y0031264D01*
X0049350Y0030266D02*
X0029817Y0030266D01*
X0030815Y0029267D02*
X0049350Y0029267D01*
X0049350Y0028269D02*
X0031814Y0028269D01*
X0032812Y0027270D02*
X0049350Y0027270D01*
X0049350Y0026272D02*
X0033811Y0026272D01*
X0034679Y0025273D02*
X0049350Y0025273D01*
X0049350Y0024275D02*
X0035093Y0024275D01*
X0035150Y0023276D02*
X0049350Y0023276D01*
X0049350Y0022278D02*
X0035150Y0022278D01*
X0035150Y0021279D02*
X0049350Y0021279D01*
X0049350Y0020281D02*
X0035150Y0020281D01*
X0035150Y0019282D02*
X0049350Y0019282D01*
X0049350Y0018284D02*
X0035150Y0018284D01*
X0036069Y0017285D02*
X0048860Y0017285D01*
X0047736Y0016287D02*
X0036400Y0016287D01*
X0036400Y0015288D02*
X0047040Y0015288D01*
X0046626Y0014290D02*
X0036400Y0014290D01*
X0036400Y0013291D02*
X0046500Y0013291D01*
X0046500Y0012293D02*
X0036400Y0012293D01*
X0036400Y0011294D02*
X0046799Y0011294D01*
X0047212Y0010296D02*
X0036400Y0010296D01*
X0036400Y0009297D02*
X0048153Y0009297D01*
X0082495Y0030266D02*
X0091459Y0030266D01*
X0099557Y0036257D02*
X0112592Y0036257D01*
X0100700Y0041249D02*
X0126334Y0041249D01*
X0126334Y0042248D02*
X0100700Y0042248D01*
X0100700Y0043246D02*
X0126334Y0043246D01*
X0126334Y0044245D02*
X0100700Y0044245D01*
X0100700Y0045243D02*
X0126334Y0045243D01*
X0126334Y0046242D02*
X0100700Y0046242D01*
X0100067Y0047240D02*
X0126334Y0047240D01*
X0126334Y0048239D02*
X0100350Y0048239D01*
X0100283Y0049237D02*
X0126334Y0049237D01*
X0126334Y0050236D02*
X0099815Y0050236D01*
X0098426Y0051234D02*
X0126334Y0051234D01*
X0126334Y0052233D02*
X0098216Y0052233D01*
X0099214Y0053232D02*
X0126334Y0053232D01*
X0126334Y0054230D02*
X0100213Y0054230D01*
X0101211Y0055229D02*
X0126334Y0055229D01*
X0126334Y0056227D02*
X0102210Y0056227D01*
X0103208Y0057226D02*
X0126334Y0057226D01*
X0126334Y0058224D02*
X0104207Y0058224D01*
X0105205Y0059223D02*
X0126334Y0059223D01*
X0126334Y0060221D02*
X0106204Y0060221D01*
X0107202Y0061220D02*
X0126334Y0061220D01*
X0126334Y0062218D02*
X0108201Y0062218D01*
X0109199Y0063217D02*
X0126334Y0063217D01*
X0126334Y0064215D02*
X0110198Y0064215D01*
X0111196Y0065214D02*
X0126334Y0065214D01*
X0126334Y0066212D02*
X0112195Y0066212D01*
X0113193Y0067211D02*
X0126334Y0067211D01*
X0126334Y0068209D02*
X0114192Y0068209D01*
X0115190Y0069208D02*
X0126334Y0069208D01*
X0126334Y0070206D02*
X0116189Y0070206D01*
X0117187Y0071205D02*
X0126334Y0071205D01*
X0126334Y0072203D02*
X0122923Y0072203D01*
X0123922Y0073202D02*
X0126334Y0073202D01*
X0126334Y0074200D02*
X0124920Y0074200D01*
X0125150Y0075199D02*
X0126334Y0075199D01*
X0126334Y0076197D02*
X0125150Y0076197D01*
X0125150Y0077196D02*
X0126334Y0077196D01*
X0126334Y0078194D02*
X0125150Y0078194D01*
X0125150Y0079193D02*
X0126334Y0079193D01*
X0126334Y0080191D02*
X0125150Y0080191D01*
X0125130Y0081190D02*
X0126334Y0081190D01*
X0126334Y0082188D02*
X0124131Y0082188D01*
X0123133Y0083187D02*
X0126334Y0083187D01*
X0126334Y0084185D02*
X0069550Y0084185D01*
X0069550Y0083187D02*
X0113967Y0083187D01*
X0112969Y0082188D02*
X0069550Y0082188D01*
X0069550Y0081190D02*
X0111970Y0081190D01*
X0110971Y0080191D02*
X0069550Y0080191D01*
X0069550Y0079193D02*
X0110950Y0079193D01*
X0110950Y0078194D02*
X0069550Y0078194D01*
X0069550Y0077196D02*
X0110950Y0077196D01*
X0110950Y0076197D02*
X0069550Y0076197D01*
X0069550Y0075199D02*
X0110716Y0075199D01*
X0109718Y0074200D02*
X0069947Y0074200D01*
X0070239Y0073202D02*
X0086251Y0073202D01*
X0085539Y0072203D02*
X0070197Y0072203D01*
X0069782Y0071205D02*
X0084264Y0071205D01*
X0083534Y0070206D02*
X0068557Y0070206D01*
X0064303Y0072203D02*
X0003750Y0072203D01*
X0003750Y0071205D02*
X0034354Y0071205D01*
X0033728Y0070206D02*
X0003750Y0070206D01*
X0003750Y0069208D02*
X0033550Y0069208D01*
X0036150Y0066100D02*
X0027626Y0066100D01*
X0024948Y0067211D02*
X0003750Y0067211D01*
X0003750Y0068209D02*
X0025634Y0068209D01*
X0024726Y0066212D02*
X0003750Y0066212D01*
X0003750Y0065214D02*
X0024855Y0065214D01*
X0025410Y0064215D02*
X0003750Y0064215D01*
X0003750Y0063217D02*
X0027009Y0063217D01*
X0028243Y0063217D02*
X0035922Y0063217D01*
X0036921Y0062218D02*
X0003750Y0062218D01*
X0003750Y0061220D02*
X0037919Y0061220D01*
X0038918Y0060221D02*
X0003750Y0060221D01*
X0003750Y0059223D02*
X0039916Y0059223D01*
X0040550Y0058224D02*
X0003750Y0058224D01*
X0003750Y0057226D02*
X0040963Y0057226D01*
X0042084Y0056227D02*
X0003750Y0056227D01*
X0003750Y0055229D02*
X0048952Y0055229D01*
X0047953Y0056227D02*
X0044816Y0056227D01*
X0045937Y0057226D02*
X0046955Y0057226D01*
X0043450Y0058800D02*
X0036150Y0066100D01*
X0038562Y0067211D02*
X0040059Y0067211D01*
X0039372Y0066212D02*
X0039149Y0066212D01*
X0029212Y0085184D02*
X0064950Y0085184D01*
X0064950Y0086182D02*
X0030443Y0086182D01*
X0031258Y0087181D02*
X0064950Y0087181D01*
X0064950Y0088179D02*
X0031671Y0088179D01*
X0031950Y0089178D02*
X0064950Y0089178D01*
X0064950Y0090176D02*
X0032033Y0090176D01*
X0033032Y0091175D02*
X0064950Y0091175D01*
X0064950Y0092173D02*
X0034030Y0092173D01*
X0035029Y0093172D02*
X0064950Y0093172D01*
X0064927Y0094170D02*
X0036027Y0094170D01*
X0037026Y0095169D02*
X0063928Y0095169D01*
X0062930Y0096168D02*
X0038024Y0096168D01*
X0032551Y0101160D02*
X0003750Y0101160D01*
X0003750Y0100162D02*
X0031553Y0100162D01*
X0030554Y0099163D02*
X0003750Y0099163D01*
X0003750Y0098165D02*
X0029556Y0098165D01*
X0028557Y0097166D02*
X0003750Y0097166D01*
X0003750Y0096168D02*
X0027559Y0096168D01*
X0025097Y0095169D02*
X0003750Y0095169D01*
X0003750Y0094170D02*
X0023158Y0094170D01*
X0022159Y0093172D02*
X0003750Y0093172D01*
X0003750Y0092173D02*
X0021636Y0092173D01*
X0021222Y0091175D02*
X0003750Y0091175D01*
X0003750Y0090176D02*
X0021150Y0090176D01*
X0021150Y0089178D02*
X0003750Y0089178D01*
X0003750Y0088179D02*
X0021429Y0088179D01*
X0021842Y0087181D02*
X0003750Y0087181D01*
X0003750Y0086182D02*
X0022657Y0086182D01*
X0023888Y0085184D02*
X0003750Y0085184D01*
X0003750Y0084185D02*
X0064950Y0084185D01*
X0064950Y0083187D02*
X0003750Y0083187D01*
X0003750Y0082188D02*
X0064950Y0082188D01*
X0064950Y0081190D02*
X0003750Y0081190D01*
X0003750Y0080191D02*
X0064950Y0080191D01*
X0064950Y0079193D02*
X0003750Y0079193D01*
X0003750Y0078194D02*
X0064950Y0078194D01*
X0064950Y0077196D02*
X0003750Y0077196D01*
X0003750Y0076197D02*
X0064950Y0076197D01*
X0064950Y0075199D02*
X0003750Y0075199D01*
X0003750Y0074200D02*
X0064553Y0074200D01*
X0064261Y0073202D02*
X0003750Y0073202D01*
X0003750Y0102159D02*
X0033550Y0102159D01*
X0034549Y0103157D02*
X0003750Y0103157D01*
X0003750Y0104156D02*
X0051950Y0104156D01*
X0052934Y0105154D02*
X0003750Y0105154D01*
X0003750Y0106153D02*
X0108733Y0106153D01*
X0108650Y0106352D02*
X0109472Y0104367D01*
X0110991Y0102848D01*
X0112976Y0102026D01*
X0115124Y0102026D01*
X0117109Y0102848D01*
X0118628Y0104367D01*
X0119450Y0106352D01*
X0119450Y0108500D01*
X0118628Y0110485D01*
X0117109Y0112004D01*
X0115124Y0112826D01*
X0112976Y0112826D01*
X0110991Y0112004D01*
X0109472Y0110485D01*
X0108650Y0108500D01*
X0108650Y0106352D01*
X0108650Y0107151D02*
X0003750Y0107151D01*
X0003750Y0108150D02*
X0108650Y0108150D01*
X0108918Y0109148D02*
X0003750Y0109148D01*
X0003750Y0110147D02*
X0109332Y0110147D01*
X0110132Y0111145D02*
X0003750Y0111145D01*
X0003750Y0112144D02*
X0111329Y0112144D01*
X0116771Y0112144D02*
X0126334Y0112144D01*
X0126334Y0113142D02*
X0003750Y0113142D01*
X0003750Y0114141D02*
X0126334Y0114141D01*
X0126334Y0115139D02*
X0070164Y0115139D01*
X0070166Y0115140D02*
X0071115Y0116089D01*
X0071629Y0117329D01*
X0071629Y0118671D01*
X0071115Y0119911D01*
X0070166Y0120860D01*
X0068926Y0121373D01*
X0067585Y0121373D01*
X0066345Y0120860D01*
X0065396Y0119911D01*
X0064882Y0118671D01*
X0064882Y0117329D01*
X0065396Y0116089D01*
X0066345Y0115140D01*
X0067585Y0114627D01*
X0068926Y0114627D01*
X0070166Y0115140D01*
X0071135Y0116138D02*
X0126334Y0116138D01*
X0126334Y0117136D02*
X0071549Y0117136D01*
X0071629Y0118135D02*
X0126334Y0118135D01*
X0126334Y0119133D02*
X0071437Y0119133D01*
X0070894Y0120132D02*
X0126334Y0120132D01*
X0126334Y0121130D02*
X0069513Y0121130D01*
X0066998Y0121130D02*
X0057702Y0121130D01*
X0057115Y0121373D02*
X0055773Y0121373D01*
X0054534Y0120860D01*
X0053585Y0119911D01*
X0053071Y0118671D01*
X0053071Y0117329D01*
X0053585Y0116089D01*
X0054534Y0115140D01*
X0055773Y0114627D01*
X0057115Y0114627D01*
X0058355Y0115140D01*
X0059304Y0116089D01*
X0059818Y0117329D01*
X0059818Y0118671D01*
X0059304Y0119911D01*
X0058355Y0120860D01*
X0057115Y0121373D01*
X0059083Y0120132D02*
X0065617Y0120132D01*
X0065074Y0119133D02*
X0059626Y0119133D01*
X0059818Y0118135D02*
X0064882Y0118135D01*
X0064962Y0117136D02*
X0059738Y0117136D01*
X0059324Y0116138D02*
X0065376Y0116138D01*
X0066347Y0115139D02*
X0058353Y0115139D01*
X0054536Y0115139D02*
X0003750Y0115139D01*
X0003750Y0116138D02*
X0053565Y0116138D01*
X0053151Y0117136D02*
X0003750Y0117136D01*
X0003750Y0118135D02*
X0053071Y0118135D01*
X0053263Y0119133D02*
X0003750Y0119133D01*
X0003750Y0120132D02*
X0053806Y0120132D01*
X0055187Y0121130D02*
X0003750Y0121130D01*
X0003750Y0122129D02*
X0126334Y0122129D01*
X0126334Y0123127D02*
X0003750Y0123127D01*
X0003750Y0124126D02*
X0126334Y0124126D01*
X0126334Y0125124D02*
X0003750Y0125124D01*
X0003750Y0126123D02*
X0126334Y0126123D01*
X0126334Y0127121D02*
X0003750Y0127121D01*
X0003750Y0128120D02*
X0126334Y0128120D01*
X0126334Y0129118D02*
X0003750Y0129118D01*
X0003750Y0130117D02*
X0126334Y0130117D01*
X0126334Y0131115D02*
X0003750Y0131115D01*
X0065166Y0105154D02*
X0109146Y0105154D01*
X0109684Y0104156D02*
X0066164Y0104156D01*
X0067150Y0103157D02*
X0110682Y0103157D01*
X0112656Y0102159D02*
X0067150Y0102159D01*
X0067150Y0101160D02*
X0126334Y0101160D01*
X0126334Y0100162D02*
X0067150Y0100162D01*
X0067150Y0099163D02*
X0126334Y0099163D01*
X0126334Y0098165D02*
X0067438Y0098165D01*
X0068437Y0097166D02*
X0126334Y0097166D01*
X0126334Y0096168D02*
X0069435Y0096168D01*
X0069550Y0095169D02*
X0126334Y0095169D01*
X0126334Y0094170D02*
X0069550Y0094170D01*
X0069550Y0093172D02*
X0126334Y0093172D01*
X0126334Y0092173D02*
X0069550Y0092173D01*
X0069550Y0091175D02*
X0126334Y0091175D01*
X0126334Y0090176D02*
X0069550Y0090176D01*
X0069550Y0089178D02*
X0126334Y0089178D01*
X0126334Y0088179D02*
X0069550Y0088179D01*
X0069550Y0087181D02*
X0126334Y0087181D01*
X0126334Y0086182D02*
X0069550Y0086182D01*
X0069550Y0085184D02*
X0126334Y0085184D01*
X0126334Y0102159D02*
X0115444Y0102159D01*
X0117418Y0103157D02*
X0126334Y0103157D01*
X0126334Y0104156D02*
X0118416Y0104156D01*
X0118954Y0105154D02*
X0126334Y0105154D01*
X0126334Y0106153D02*
X0119367Y0106153D01*
X0119450Y0107151D02*
X0126334Y0107151D01*
X0126334Y0108150D02*
X0119450Y0108150D01*
X0119182Y0109148D02*
X0126334Y0109148D01*
X0126334Y0110147D02*
X0118768Y0110147D01*
X0117968Y0111145D02*
X0126334Y0111145D01*
X0108719Y0073202D02*
X0090149Y0073202D01*
X0090861Y0072203D02*
X0107721Y0072203D01*
X0106722Y0071205D02*
X0091100Y0071205D01*
X0090989Y0070206D02*
X0105724Y0070206D01*
X0104725Y0069208D02*
X0090459Y0069208D01*
X0089434Y0068209D02*
X0103727Y0068209D01*
X0102728Y0067211D02*
X0089434Y0067211D01*
X0089434Y0066212D02*
X0101730Y0066212D01*
X0100731Y0065214D02*
X0097518Y0065214D01*
X0098720Y0064215D02*
X0099733Y0064215D01*
X0094982Y0065214D02*
X0089434Y0065214D01*
X0089434Y0064215D02*
X0093780Y0064215D01*
X0093366Y0063217D02*
X0088585Y0063217D01*
X0088760Y0062218D02*
X0092898Y0062218D01*
X0091900Y0061220D02*
X0089404Y0061220D01*
D19*
X0016550Y0087800D02*
X0016550Y0089926D01*
D20*
X0016050Y0083300D03*
X0020050Y0083300D03*
X0024050Y0083300D03*
X0028050Y0083300D03*
X0032050Y0083300D03*
X0038050Y0090300D03*
X0038050Y0093300D03*
X0048050Y0081200D03*
X0052050Y0082300D03*
X0052050Y0079300D03*
X0052050Y0075300D03*
X0048050Y0075300D03*
X0056050Y0075300D03*
X0056050Y0079300D03*
X0056050Y0082300D03*
X0063050Y0082300D03*
X0063050Y0079300D03*
X0063050Y0075300D03*
X0061050Y0068300D03*
X0053950Y0067400D03*
X0050250Y0067000D03*
X0045650Y0065600D03*
X0042050Y0065100D03*
X0036450Y0069200D03*
X0037450Y0073600D03*
X0027626Y0066100D03*
X0031050Y0060300D03*
X0031050Y0057300D03*
X0031050Y0054300D03*
X0031050Y0051300D03*
X0034050Y0051300D03*
X0034050Y0054300D03*
X0034050Y0057300D03*
X0034050Y0060300D03*
X0043450Y0058800D03*
X0044250Y0047800D03*
X0051450Y0040900D03*
X0057050Y0035300D03*
X0057050Y0032300D03*
X0057050Y0029300D03*
X0057050Y0026300D03*
X0057050Y0023300D03*
X0056450Y0015800D03*
X0056550Y0009800D03*
X0066550Y0009900D03*
X0066450Y0015900D03*
X0066050Y0024300D03*
X0066050Y0027300D03*
X0066050Y0030300D03*
X0066050Y0033300D03*
X0068050Y0037300D03*
X0071450Y0040900D03*
X0065650Y0046100D03*
X0064450Y0048500D03*
X0064250Y0043800D03*
X0076050Y0034300D03*
X0076050Y0028300D03*
X0086050Y0013300D03*
X0089050Y0013300D03*
X0092050Y0013300D03*
X0095050Y0013300D03*
X0092919Y0032800D03*
X0096856Y0035200D03*
X0104050Y0034300D03*
X0114650Y0038300D03*
X0122350Y0040900D03*
X0122350Y0044900D03*
X0122350Y0048900D03*
X0122350Y0052900D03*
X0118350Y0052900D03*
X0114350Y0052900D03*
X0105350Y0057900D03*
X0102350Y0054900D03*
X0099350Y0051900D03*
X0097450Y0048500D03*
X0093550Y0053400D03*
X0095850Y0055100D03*
X0098050Y0057200D03*
X0096250Y0062600D03*
X0100050Y0068300D03*
X0097050Y0077300D03*
X0094050Y0077300D03*
X0094050Y0080300D03*
X0097050Y0080300D03*
X0088200Y0071050D03*
X0081850Y0062800D03*
X0079050Y0057700D03*
X0075350Y0062900D03*
X0071950Y0062800D03*
X0071650Y0072200D03*
X0071750Y0075500D03*
X0063050Y0085300D03*
X0074550Y0086700D03*
X0068350Y0101900D03*
X0067350Y0106900D03*
X0081050Y0108100D03*
X0081050Y0104100D03*
X0085050Y0104100D03*
X0090050Y0111300D03*
X0090050Y0114300D03*
X0090050Y0117300D03*
X0090050Y0120300D03*
X0090050Y0123300D03*
X0090050Y0126300D03*
X0090050Y0129300D03*
X0087050Y0129300D03*
X0084050Y0129300D03*
X0081050Y0129300D03*
X0078050Y0129300D03*
X0074050Y0122300D03*
X0070050Y0122300D03*
X0066050Y0122300D03*
X0062050Y0122300D03*
X0058050Y0122300D03*
X0054050Y0122300D03*
X0050050Y0122300D03*
X0047050Y0129300D03*
X0044050Y0129300D03*
X0041050Y0129300D03*
X0028050Y0125300D03*
X0028050Y0121300D03*
X0028050Y0117300D03*
X0024050Y0125300D03*
X0020050Y0125300D03*
X0016050Y0125300D03*
X0016050Y0121300D03*
X0016050Y0117300D03*
X0010050Y0085300D03*
X0010050Y0082300D03*
X0010050Y0079300D03*
X0007050Y0079300D03*
X0007050Y0076300D03*
X0007050Y0073300D03*
X0007050Y0070300D03*
X0007050Y0067300D03*
X0007050Y0064300D03*
X0010050Y0064300D03*
X0010050Y0067300D03*
X0016950Y0076500D03*
X0007050Y0082300D03*
X0007050Y0085300D03*
X0033050Y0043300D03*
X0032050Y0040300D03*
X0032050Y0037300D03*
X0032050Y0034300D03*
X0044050Y0027500D03*
X0047550Y0029300D03*
X0047950Y0033700D03*
X0018250Y0036000D03*
X0016550Y0038300D03*
X0015250Y0036000D03*
X0013250Y0037900D03*
X0014250Y0040300D03*
X0018150Y0040600D03*
X0016650Y0033600D03*
X0014150Y0033500D03*
X0012250Y0035300D03*
X0005050Y0036300D03*
X0005050Y0033300D03*
X0005050Y0030300D03*
X0005050Y0039300D03*
X0079150Y0048600D03*
X0085050Y0048300D03*
X0085050Y0044300D03*
X0091750Y0048400D03*
X0117050Y0076700D03*
X0119150Y0078400D03*
X0116650Y0079700D03*
X0121650Y0079600D03*
X0121550Y0076700D03*
X0120050Y0085300D03*
X0117050Y0085300D03*
X0123050Y0085300D03*
X0124050Y0091300D03*
X0124050Y0095300D03*
X0124050Y0099300D03*
X0124050Y0103300D03*
X0101050Y0102300D03*
X0101050Y0098300D03*
X0101050Y0094300D03*
X0097050Y0111300D03*
X0093350Y0113900D03*
X0086050Y0114300D03*
X0086050Y0119300D03*
X0086050Y0124300D03*
D21*
X0065027Y0102323D02*
X0054050Y0102323D01*
X0054050Y0103121D02*
X0064229Y0103121D01*
X0064050Y0103300D02*
X0054050Y0103300D01*
X0054050Y0099300D01*
X0055050Y0098300D01*
X0065050Y0098300D01*
X0065050Y0102300D01*
X0064050Y0103300D01*
X0065050Y0101524D02*
X0054050Y0101524D01*
X0054050Y0100726D02*
X0065050Y0100726D01*
X0065050Y0099927D02*
X0054050Y0099927D01*
X0054221Y0099129D02*
X0065050Y0099129D01*
X0065050Y0098330D02*
X0055020Y0098330D01*
X0053950Y0067400D02*
X0082950Y0038400D01*
X0084050Y0038400D01*
X0083950Y0038300D01*
X0083950Y0037400D01*
X0086150Y0035200D01*
X0096856Y0035200D01*
X0092919Y0032800D02*
X0084450Y0032800D01*
X0082950Y0034300D01*
X0082750Y0034500D01*
X0081850Y0034500D01*
X0081850Y0035400D01*
X0082750Y0034500D01*
X0081850Y0034500D02*
X0079950Y0032600D01*
X0081850Y0035400D02*
X0050250Y0067000D01*
X0045650Y0065600D02*
X0061450Y0049800D01*
X0061450Y0013000D01*
X0051450Y0013000D02*
X0051450Y0040900D01*
X0051450Y0055700D01*
X0042050Y0065100D01*
X0019514Y0041636D02*
X0012286Y0041636D01*
X0012650Y0042000D02*
X0019150Y0042000D01*
X0021050Y0040100D01*
X0021050Y0032500D01*
X0020650Y0032100D01*
X0009950Y0032100D01*
X0008550Y0033500D01*
X0008550Y0037900D01*
X0012650Y0042000D01*
X0011487Y0040837D02*
X0020313Y0040837D01*
X0021050Y0040039D02*
X0010689Y0040039D01*
X0009890Y0039240D02*
X0021050Y0039240D01*
X0021050Y0038442D02*
X0009092Y0038442D01*
X0008550Y0037643D02*
X0021050Y0037643D01*
X0021050Y0036845D02*
X0008550Y0036845D01*
X0008550Y0036046D02*
X0021050Y0036046D01*
X0021050Y0035248D02*
X0008550Y0035248D01*
X0008550Y0034449D02*
X0021050Y0034449D01*
X0021050Y0033651D02*
X0008550Y0033651D01*
X0009198Y0032852D02*
X0021050Y0032852D01*
X0082950Y0038400D02*
X0083950Y0037400D01*
X0084050Y0038400D02*
X0085650Y0040000D01*
X0091350Y0043100D02*
X0091350Y0048000D01*
X0091750Y0048400D01*
X0097450Y0048500D02*
X0097450Y0043400D01*
X0097750Y0043100D01*
X0092020Y0058370D02*
X0086454Y0058370D01*
X0092020Y0058370D02*
X0096250Y0062600D01*
X0088200Y0071050D02*
X0086484Y0069334D01*
X0086484Y0067270D01*
X0113050Y0074300D02*
X0113050Y0079300D01*
X0115050Y0081300D01*
X0122050Y0081300D01*
X0123050Y0080300D01*
X0123050Y0075300D01*
X0122050Y0074300D01*
X0113050Y0074300D01*
X0113050Y0074375D02*
X0122125Y0074375D01*
X0122923Y0075173D02*
X0113050Y0075173D01*
X0113050Y0075972D02*
X0123050Y0075972D01*
X0123050Y0076770D02*
X0113050Y0076770D01*
X0113050Y0077569D02*
X0123050Y0077569D01*
X0123050Y0078368D02*
X0113050Y0078368D01*
X0113050Y0079166D02*
X0123050Y0079166D01*
X0123050Y0079965D02*
X0113715Y0079965D01*
X0114513Y0080763D02*
X0122587Y0080763D01*
D22*
X0119150Y0078400D02*
X0095850Y0055100D01*
X0062150Y0100200D02*
X0036824Y0100200D01*
X0026550Y0089926D01*
X0016550Y0038300D02*
X0031450Y0023400D01*
X0031450Y0013000D01*
D23*
X0091350Y0052800D02*
X0091350Y0054400D01*
X0092150Y0055200D01*
X0093550Y0055200D01*
X0098050Y0059700D01*
X0098850Y0059700D01*
X0100350Y0058200D01*
X0100350Y0057200D01*
X0094950Y0051800D01*
X0092350Y0051800D01*
X0091350Y0052800D01*
X0091363Y0052787D02*
X0095937Y0052787D01*
X0096535Y0053385D02*
X0091350Y0053385D01*
X0091350Y0053984D02*
X0097134Y0053984D01*
X0097732Y0054582D02*
X0091532Y0054582D01*
X0092131Y0055181D02*
X0098331Y0055181D01*
X0098929Y0055779D02*
X0094129Y0055779D01*
X0094728Y0056378D02*
X0099528Y0056378D01*
X0100126Y0056976D02*
X0095326Y0056976D01*
X0095925Y0057575D02*
X0100350Y0057575D01*
X0100350Y0058173D02*
X0096523Y0058173D01*
X0097122Y0058772D02*
X0099778Y0058772D01*
X0099180Y0059370D02*
X0097720Y0059370D01*
X0095338Y0052188D02*
X0091962Y0052188D01*
D24*
X0067250Y0072900D03*
X0057550Y0099300D03*
X0056150Y0101700D03*
X0059150Y0101700D03*
X0062150Y0100200D03*
D25*
X0067250Y0095100D01*
X0067250Y0072900D01*
M02*
