G75*
%MOIN*%
%OFA0B0*%
%FSLAX25Y25*%
%IPPOS*%
%LPD*%
%AMOC8*
5,1,8,0,0,1.08239X$1,22.5*
%
%ADD10C,0.00000*%
%ADD11C,0.12211*%
%ADD12R,0.04337X0.18510*%
%ADD13R,0.06699X0.13786*%
%ADD14C,0.07800*%
%ADD15R,0.05715X0.02762*%
%ADD16R,0.08274X0.05124*%
%ADD17R,0.02762X0.05715*%
%ADD18R,0.05124X0.08274*%
%ADD19C,0.00975*%
%ADD20R,0.03746X0.01502*%
%ADD21R,0.01502X0.03746*%
%ADD22R,0.07093X0.07093*%
%ADD23R,0.05400X0.06400*%
%ADD24R,0.04337X0.04928*%
%ADD25C,0.03746*%
%ADD26C,0.00850*%
%ADD27C,0.01100*%
%ADD28R,0.06620X0.11620*%
%ADD29C,0.01345*%
%ADD30R,0.01187X0.03451*%
%ADD31R,0.06306X0.10243*%
%ADD32R,0.06900X0.06900*%
%ADD33C,0.06900*%
%ADD34C,0.00200*%
%ADD35C,0.00640*%
%ADD36C,0.05156*%
%ADD37C,0.05400*%
%ADD38R,0.13780X0.01772*%
%ADD39R,0.01187X0.03746*%
%ADD40R,0.08077X0.08077*%
%ADD41R,0.04337X0.01384*%
D10*
X0002050Y0007300D02*
X0002050Y0133284D01*
X0128034Y0133284D01*
X0128034Y0007300D01*
X0002050Y0007300D01*
X0007955Y0019111D02*
X0007957Y0019264D01*
X0007963Y0019418D01*
X0007973Y0019571D01*
X0007987Y0019723D01*
X0008005Y0019876D01*
X0008027Y0020027D01*
X0008052Y0020178D01*
X0008082Y0020329D01*
X0008116Y0020479D01*
X0008153Y0020627D01*
X0008194Y0020775D01*
X0008239Y0020921D01*
X0008288Y0021067D01*
X0008341Y0021211D01*
X0008397Y0021353D01*
X0008457Y0021494D01*
X0008521Y0021634D01*
X0008588Y0021772D01*
X0008659Y0021908D01*
X0008734Y0022042D01*
X0008811Y0022174D01*
X0008893Y0022304D01*
X0008977Y0022432D01*
X0009065Y0022558D01*
X0009156Y0022681D01*
X0009250Y0022802D01*
X0009348Y0022920D01*
X0009448Y0023036D01*
X0009552Y0023149D01*
X0009658Y0023260D01*
X0009767Y0023368D01*
X0009879Y0023473D01*
X0009993Y0023574D01*
X0010111Y0023673D01*
X0010230Y0023769D01*
X0010352Y0023862D01*
X0010477Y0023951D01*
X0010604Y0024038D01*
X0010733Y0024120D01*
X0010864Y0024200D01*
X0010997Y0024276D01*
X0011132Y0024349D01*
X0011269Y0024418D01*
X0011408Y0024483D01*
X0011548Y0024545D01*
X0011690Y0024603D01*
X0011833Y0024658D01*
X0011978Y0024709D01*
X0012124Y0024756D01*
X0012271Y0024799D01*
X0012419Y0024838D01*
X0012568Y0024874D01*
X0012718Y0024905D01*
X0012869Y0024933D01*
X0013020Y0024957D01*
X0013173Y0024977D01*
X0013325Y0024993D01*
X0013478Y0025005D01*
X0013631Y0025013D01*
X0013784Y0025017D01*
X0013938Y0025017D01*
X0014091Y0025013D01*
X0014244Y0025005D01*
X0014397Y0024993D01*
X0014549Y0024977D01*
X0014702Y0024957D01*
X0014853Y0024933D01*
X0015004Y0024905D01*
X0015154Y0024874D01*
X0015303Y0024838D01*
X0015451Y0024799D01*
X0015598Y0024756D01*
X0015744Y0024709D01*
X0015889Y0024658D01*
X0016032Y0024603D01*
X0016174Y0024545D01*
X0016314Y0024483D01*
X0016453Y0024418D01*
X0016590Y0024349D01*
X0016725Y0024276D01*
X0016858Y0024200D01*
X0016989Y0024120D01*
X0017118Y0024038D01*
X0017245Y0023951D01*
X0017370Y0023862D01*
X0017492Y0023769D01*
X0017611Y0023673D01*
X0017729Y0023574D01*
X0017843Y0023473D01*
X0017955Y0023368D01*
X0018064Y0023260D01*
X0018170Y0023149D01*
X0018274Y0023036D01*
X0018374Y0022920D01*
X0018472Y0022802D01*
X0018566Y0022681D01*
X0018657Y0022558D01*
X0018745Y0022432D01*
X0018829Y0022304D01*
X0018911Y0022174D01*
X0018988Y0022042D01*
X0019063Y0021908D01*
X0019134Y0021772D01*
X0019201Y0021634D01*
X0019265Y0021494D01*
X0019325Y0021353D01*
X0019381Y0021211D01*
X0019434Y0021067D01*
X0019483Y0020921D01*
X0019528Y0020775D01*
X0019569Y0020627D01*
X0019606Y0020479D01*
X0019640Y0020329D01*
X0019670Y0020178D01*
X0019695Y0020027D01*
X0019717Y0019876D01*
X0019735Y0019723D01*
X0019749Y0019571D01*
X0019759Y0019418D01*
X0019765Y0019264D01*
X0019767Y0019111D01*
X0019765Y0018958D01*
X0019759Y0018804D01*
X0019749Y0018651D01*
X0019735Y0018499D01*
X0019717Y0018346D01*
X0019695Y0018195D01*
X0019670Y0018044D01*
X0019640Y0017893D01*
X0019606Y0017743D01*
X0019569Y0017595D01*
X0019528Y0017447D01*
X0019483Y0017301D01*
X0019434Y0017155D01*
X0019381Y0017011D01*
X0019325Y0016869D01*
X0019265Y0016728D01*
X0019201Y0016588D01*
X0019134Y0016450D01*
X0019063Y0016314D01*
X0018988Y0016180D01*
X0018911Y0016048D01*
X0018829Y0015918D01*
X0018745Y0015790D01*
X0018657Y0015664D01*
X0018566Y0015541D01*
X0018472Y0015420D01*
X0018374Y0015302D01*
X0018274Y0015186D01*
X0018170Y0015073D01*
X0018064Y0014962D01*
X0017955Y0014854D01*
X0017843Y0014749D01*
X0017729Y0014648D01*
X0017611Y0014549D01*
X0017492Y0014453D01*
X0017370Y0014360D01*
X0017245Y0014271D01*
X0017118Y0014184D01*
X0016989Y0014102D01*
X0016858Y0014022D01*
X0016725Y0013946D01*
X0016590Y0013873D01*
X0016453Y0013804D01*
X0016314Y0013739D01*
X0016174Y0013677D01*
X0016032Y0013619D01*
X0015889Y0013564D01*
X0015744Y0013513D01*
X0015598Y0013466D01*
X0015451Y0013423D01*
X0015303Y0013384D01*
X0015154Y0013348D01*
X0015004Y0013317D01*
X0014853Y0013289D01*
X0014702Y0013265D01*
X0014549Y0013245D01*
X0014397Y0013229D01*
X0014244Y0013217D01*
X0014091Y0013209D01*
X0013938Y0013205D01*
X0013784Y0013205D01*
X0013631Y0013209D01*
X0013478Y0013217D01*
X0013325Y0013229D01*
X0013173Y0013245D01*
X0013020Y0013265D01*
X0012869Y0013289D01*
X0012718Y0013317D01*
X0012568Y0013348D01*
X0012419Y0013384D01*
X0012271Y0013423D01*
X0012124Y0013466D01*
X0011978Y0013513D01*
X0011833Y0013564D01*
X0011690Y0013619D01*
X0011548Y0013677D01*
X0011408Y0013739D01*
X0011269Y0013804D01*
X0011132Y0013873D01*
X0010997Y0013946D01*
X0010864Y0014022D01*
X0010733Y0014102D01*
X0010604Y0014184D01*
X0010477Y0014271D01*
X0010352Y0014360D01*
X0010230Y0014453D01*
X0010111Y0014549D01*
X0009993Y0014648D01*
X0009879Y0014749D01*
X0009767Y0014854D01*
X0009658Y0014962D01*
X0009552Y0015073D01*
X0009448Y0015186D01*
X0009348Y0015302D01*
X0009250Y0015420D01*
X0009156Y0015541D01*
X0009065Y0015664D01*
X0008977Y0015790D01*
X0008893Y0015918D01*
X0008811Y0016048D01*
X0008734Y0016180D01*
X0008659Y0016314D01*
X0008588Y0016450D01*
X0008521Y0016588D01*
X0008457Y0016728D01*
X0008397Y0016869D01*
X0008341Y0017011D01*
X0008288Y0017155D01*
X0008239Y0017301D01*
X0008194Y0017447D01*
X0008153Y0017595D01*
X0008116Y0017743D01*
X0008082Y0017893D01*
X0008052Y0018044D01*
X0008027Y0018195D01*
X0008005Y0018346D01*
X0007987Y0018499D01*
X0007973Y0018651D01*
X0007963Y0018804D01*
X0007957Y0018958D01*
X0007955Y0019111D01*
X0054771Y0118000D02*
X0054773Y0118081D01*
X0054779Y0118163D01*
X0054789Y0118244D01*
X0054803Y0118324D01*
X0054820Y0118403D01*
X0054842Y0118482D01*
X0054867Y0118559D01*
X0054896Y0118636D01*
X0054929Y0118710D01*
X0054966Y0118783D01*
X0055005Y0118854D01*
X0055049Y0118923D01*
X0055095Y0118990D01*
X0055145Y0119054D01*
X0055198Y0119116D01*
X0055254Y0119176D01*
X0055312Y0119232D01*
X0055374Y0119286D01*
X0055438Y0119337D01*
X0055504Y0119384D01*
X0055572Y0119428D01*
X0055643Y0119469D01*
X0055715Y0119506D01*
X0055790Y0119540D01*
X0055865Y0119570D01*
X0055943Y0119596D01*
X0056021Y0119619D01*
X0056100Y0119637D01*
X0056180Y0119652D01*
X0056261Y0119663D01*
X0056342Y0119670D01*
X0056424Y0119673D01*
X0056505Y0119672D01*
X0056586Y0119667D01*
X0056667Y0119658D01*
X0056748Y0119645D01*
X0056828Y0119628D01*
X0056906Y0119608D01*
X0056984Y0119583D01*
X0057061Y0119555D01*
X0057136Y0119523D01*
X0057209Y0119488D01*
X0057280Y0119449D01*
X0057350Y0119406D01*
X0057417Y0119361D01*
X0057483Y0119312D01*
X0057545Y0119260D01*
X0057605Y0119204D01*
X0057662Y0119146D01*
X0057717Y0119086D01*
X0057768Y0119022D01*
X0057816Y0118957D01*
X0057861Y0118889D01*
X0057903Y0118819D01*
X0057941Y0118747D01*
X0057976Y0118673D01*
X0058007Y0118598D01*
X0058034Y0118521D01*
X0058057Y0118443D01*
X0058077Y0118364D01*
X0058093Y0118284D01*
X0058105Y0118203D01*
X0058113Y0118122D01*
X0058117Y0118041D01*
X0058117Y0117959D01*
X0058113Y0117878D01*
X0058105Y0117797D01*
X0058093Y0117716D01*
X0058077Y0117636D01*
X0058057Y0117557D01*
X0058034Y0117479D01*
X0058007Y0117402D01*
X0057976Y0117327D01*
X0057941Y0117253D01*
X0057903Y0117181D01*
X0057861Y0117111D01*
X0057816Y0117043D01*
X0057768Y0116978D01*
X0057717Y0116914D01*
X0057662Y0116854D01*
X0057605Y0116796D01*
X0057545Y0116740D01*
X0057483Y0116688D01*
X0057417Y0116639D01*
X0057350Y0116594D01*
X0057281Y0116551D01*
X0057209Y0116512D01*
X0057136Y0116477D01*
X0057061Y0116445D01*
X0056984Y0116417D01*
X0056906Y0116392D01*
X0056828Y0116372D01*
X0056748Y0116355D01*
X0056667Y0116342D01*
X0056586Y0116333D01*
X0056505Y0116328D01*
X0056424Y0116327D01*
X0056342Y0116330D01*
X0056261Y0116337D01*
X0056180Y0116348D01*
X0056100Y0116363D01*
X0056021Y0116381D01*
X0055943Y0116404D01*
X0055865Y0116430D01*
X0055790Y0116460D01*
X0055715Y0116494D01*
X0055643Y0116531D01*
X0055572Y0116572D01*
X0055504Y0116616D01*
X0055438Y0116663D01*
X0055374Y0116714D01*
X0055312Y0116768D01*
X0055254Y0116824D01*
X0055198Y0116884D01*
X0055145Y0116946D01*
X0055095Y0117010D01*
X0055049Y0117077D01*
X0055005Y0117146D01*
X0054966Y0117217D01*
X0054929Y0117290D01*
X0054896Y0117364D01*
X0054867Y0117441D01*
X0054842Y0117518D01*
X0054820Y0117597D01*
X0054803Y0117676D01*
X0054789Y0117756D01*
X0054779Y0117837D01*
X0054773Y0117919D01*
X0054771Y0118000D01*
X0066583Y0118000D02*
X0066585Y0118081D01*
X0066591Y0118163D01*
X0066601Y0118244D01*
X0066615Y0118324D01*
X0066632Y0118403D01*
X0066654Y0118482D01*
X0066679Y0118559D01*
X0066708Y0118636D01*
X0066741Y0118710D01*
X0066778Y0118783D01*
X0066817Y0118854D01*
X0066861Y0118923D01*
X0066907Y0118990D01*
X0066957Y0119054D01*
X0067010Y0119116D01*
X0067066Y0119176D01*
X0067124Y0119232D01*
X0067186Y0119286D01*
X0067250Y0119337D01*
X0067316Y0119384D01*
X0067384Y0119428D01*
X0067455Y0119469D01*
X0067527Y0119506D01*
X0067602Y0119540D01*
X0067677Y0119570D01*
X0067755Y0119596D01*
X0067833Y0119619D01*
X0067912Y0119637D01*
X0067992Y0119652D01*
X0068073Y0119663D01*
X0068154Y0119670D01*
X0068236Y0119673D01*
X0068317Y0119672D01*
X0068398Y0119667D01*
X0068479Y0119658D01*
X0068560Y0119645D01*
X0068640Y0119628D01*
X0068718Y0119608D01*
X0068796Y0119583D01*
X0068873Y0119555D01*
X0068948Y0119523D01*
X0069021Y0119488D01*
X0069092Y0119449D01*
X0069162Y0119406D01*
X0069229Y0119361D01*
X0069295Y0119312D01*
X0069357Y0119260D01*
X0069417Y0119204D01*
X0069474Y0119146D01*
X0069529Y0119086D01*
X0069580Y0119022D01*
X0069628Y0118957D01*
X0069673Y0118889D01*
X0069715Y0118819D01*
X0069753Y0118747D01*
X0069788Y0118673D01*
X0069819Y0118598D01*
X0069846Y0118521D01*
X0069869Y0118443D01*
X0069889Y0118364D01*
X0069905Y0118284D01*
X0069917Y0118203D01*
X0069925Y0118122D01*
X0069929Y0118041D01*
X0069929Y0117959D01*
X0069925Y0117878D01*
X0069917Y0117797D01*
X0069905Y0117716D01*
X0069889Y0117636D01*
X0069869Y0117557D01*
X0069846Y0117479D01*
X0069819Y0117402D01*
X0069788Y0117327D01*
X0069753Y0117253D01*
X0069715Y0117181D01*
X0069673Y0117111D01*
X0069628Y0117043D01*
X0069580Y0116978D01*
X0069529Y0116914D01*
X0069474Y0116854D01*
X0069417Y0116796D01*
X0069357Y0116740D01*
X0069295Y0116688D01*
X0069229Y0116639D01*
X0069162Y0116594D01*
X0069093Y0116551D01*
X0069021Y0116512D01*
X0068948Y0116477D01*
X0068873Y0116445D01*
X0068796Y0116417D01*
X0068718Y0116392D01*
X0068640Y0116372D01*
X0068560Y0116355D01*
X0068479Y0116342D01*
X0068398Y0116333D01*
X0068317Y0116328D01*
X0068236Y0116327D01*
X0068154Y0116330D01*
X0068073Y0116337D01*
X0067992Y0116348D01*
X0067912Y0116363D01*
X0067833Y0116381D01*
X0067755Y0116404D01*
X0067677Y0116430D01*
X0067602Y0116460D01*
X0067527Y0116494D01*
X0067455Y0116531D01*
X0067384Y0116572D01*
X0067316Y0116616D01*
X0067250Y0116663D01*
X0067186Y0116714D01*
X0067124Y0116768D01*
X0067066Y0116824D01*
X0067010Y0116884D01*
X0066957Y0116946D01*
X0066907Y0117010D01*
X0066861Y0117077D01*
X0066817Y0117146D01*
X0066778Y0117217D01*
X0066741Y0117290D01*
X0066708Y0117364D01*
X0066679Y0117441D01*
X0066654Y0117518D01*
X0066632Y0117597D01*
X0066615Y0117676D01*
X0066601Y0117756D01*
X0066591Y0117837D01*
X0066585Y0117919D01*
X0066583Y0118000D01*
X0110317Y0019111D02*
X0110319Y0019264D01*
X0110325Y0019418D01*
X0110335Y0019571D01*
X0110349Y0019723D01*
X0110367Y0019876D01*
X0110389Y0020027D01*
X0110414Y0020178D01*
X0110444Y0020329D01*
X0110478Y0020479D01*
X0110515Y0020627D01*
X0110556Y0020775D01*
X0110601Y0020921D01*
X0110650Y0021067D01*
X0110703Y0021211D01*
X0110759Y0021353D01*
X0110819Y0021494D01*
X0110883Y0021634D01*
X0110950Y0021772D01*
X0111021Y0021908D01*
X0111096Y0022042D01*
X0111173Y0022174D01*
X0111255Y0022304D01*
X0111339Y0022432D01*
X0111427Y0022558D01*
X0111518Y0022681D01*
X0111612Y0022802D01*
X0111710Y0022920D01*
X0111810Y0023036D01*
X0111914Y0023149D01*
X0112020Y0023260D01*
X0112129Y0023368D01*
X0112241Y0023473D01*
X0112355Y0023574D01*
X0112473Y0023673D01*
X0112592Y0023769D01*
X0112714Y0023862D01*
X0112839Y0023951D01*
X0112966Y0024038D01*
X0113095Y0024120D01*
X0113226Y0024200D01*
X0113359Y0024276D01*
X0113494Y0024349D01*
X0113631Y0024418D01*
X0113770Y0024483D01*
X0113910Y0024545D01*
X0114052Y0024603D01*
X0114195Y0024658D01*
X0114340Y0024709D01*
X0114486Y0024756D01*
X0114633Y0024799D01*
X0114781Y0024838D01*
X0114930Y0024874D01*
X0115080Y0024905D01*
X0115231Y0024933D01*
X0115382Y0024957D01*
X0115535Y0024977D01*
X0115687Y0024993D01*
X0115840Y0025005D01*
X0115993Y0025013D01*
X0116146Y0025017D01*
X0116300Y0025017D01*
X0116453Y0025013D01*
X0116606Y0025005D01*
X0116759Y0024993D01*
X0116911Y0024977D01*
X0117064Y0024957D01*
X0117215Y0024933D01*
X0117366Y0024905D01*
X0117516Y0024874D01*
X0117665Y0024838D01*
X0117813Y0024799D01*
X0117960Y0024756D01*
X0118106Y0024709D01*
X0118251Y0024658D01*
X0118394Y0024603D01*
X0118536Y0024545D01*
X0118676Y0024483D01*
X0118815Y0024418D01*
X0118952Y0024349D01*
X0119087Y0024276D01*
X0119220Y0024200D01*
X0119351Y0024120D01*
X0119480Y0024038D01*
X0119607Y0023951D01*
X0119732Y0023862D01*
X0119854Y0023769D01*
X0119973Y0023673D01*
X0120091Y0023574D01*
X0120205Y0023473D01*
X0120317Y0023368D01*
X0120426Y0023260D01*
X0120532Y0023149D01*
X0120636Y0023036D01*
X0120736Y0022920D01*
X0120834Y0022802D01*
X0120928Y0022681D01*
X0121019Y0022558D01*
X0121107Y0022432D01*
X0121191Y0022304D01*
X0121273Y0022174D01*
X0121350Y0022042D01*
X0121425Y0021908D01*
X0121496Y0021772D01*
X0121563Y0021634D01*
X0121627Y0021494D01*
X0121687Y0021353D01*
X0121743Y0021211D01*
X0121796Y0021067D01*
X0121845Y0020921D01*
X0121890Y0020775D01*
X0121931Y0020627D01*
X0121968Y0020479D01*
X0122002Y0020329D01*
X0122032Y0020178D01*
X0122057Y0020027D01*
X0122079Y0019876D01*
X0122097Y0019723D01*
X0122111Y0019571D01*
X0122121Y0019418D01*
X0122127Y0019264D01*
X0122129Y0019111D01*
X0122127Y0018958D01*
X0122121Y0018804D01*
X0122111Y0018651D01*
X0122097Y0018499D01*
X0122079Y0018346D01*
X0122057Y0018195D01*
X0122032Y0018044D01*
X0122002Y0017893D01*
X0121968Y0017743D01*
X0121931Y0017595D01*
X0121890Y0017447D01*
X0121845Y0017301D01*
X0121796Y0017155D01*
X0121743Y0017011D01*
X0121687Y0016869D01*
X0121627Y0016728D01*
X0121563Y0016588D01*
X0121496Y0016450D01*
X0121425Y0016314D01*
X0121350Y0016180D01*
X0121273Y0016048D01*
X0121191Y0015918D01*
X0121107Y0015790D01*
X0121019Y0015664D01*
X0120928Y0015541D01*
X0120834Y0015420D01*
X0120736Y0015302D01*
X0120636Y0015186D01*
X0120532Y0015073D01*
X0120426Y0014962D01*
X0120317Y0014854D01*
X0120205Y0014749D01*
X0120091Y0014648D01*
X0119973Y0014549D01*
X0119854Y0014453D01*
X0119732Y0014360D01*
X0119607Y0014271D01*
X0119480Y0014184D01*
X0119351Y0014102D01*
X0119220Y0014022D01*
X0119087Y0013946D01*
X0118952Y0013873D01*
X0118815Y0013804D01*
X0118676Y0013739D01*
X0118536Y0013677D01*
X0118394Y0013619D01*
X0118251Y0013564D01*
X0118106Y0013513D01*
X0117960Y0013466D01*
X0117813Y0013423D01*
X0117665Y0013384D01*
X0117516Y0013348D01*
X0117366Y0013317D01*
X0117215Y0013289D01*
X0117064Y0013265D01*
X0116911Y0013245D01*
X0116759Y0013229D01*
X0116606Y0013217D01*
X0116453Y0013209D01*
X0116300Y0013205D01*
X0116146Y0013205D01*
X0115993Y0013209D01*
X0115840Y0013217D01*
X0115687Y0013229D01*
X0115535Y0013245D01*
X0115382Y0013265D01*
X0115231Y0013289D01*
X0115080Y0013317D01*
X0114930Y0013348D01*
X0114781Y0013384D01*
X0114633Y0013423D01*
X0114486Y0013466D01*
X0114340Y0013513D01*
X0114195Y0013564D01*
X0114052Y0013619D01*
X0113910Y0013677D01*
X0113770Y0013739D01*
X0113631Y0013804D01*
X0113494Y0013873D01*
X0113359Y0013946D01*
X0113226Y0014022D01*
X0113095Y0014102D01*
X0112966Y0014184D01*
X0112839Y0014271D01*
X0112714Y0014360D01*
X0112592Y0014453D01*
X0112473Y0014549D01*
X0112355Y0014648D01*
X0112241Y0014749D01*
X0112129Y0014854D01*
X0112020Y0014962D01*
X0111914Y0015073D01*
X0111810Y0015186D01*
X0111710Y0015302D01*
X0111612Y0015420D01*
X0111518Y0015541D01*
X0111427Y0015664D01*
X0111339Y0015790D01*
X0111255Y0015918D01*
X0111173Y0016048D01*
X0111096Y0016180D01*
X0111021Y0016314D01*
X0110950Y0016450D01*
X0110883Y0016588D01*
X0110819Y0016728D01*
X0110759Y0016869D01*
X0110703Y0017011D01*
X0110650Y0017155D01*
X0110601Y0017301D01*
X0110556Y0017447D01*
X0110515Y0017595D01*
X0110478Y0017743D01*
X0110444Y0017893D01*
X0110414Y0018044D01*
X0110389Y0018195D01*
X0110367Y0018346D01*
X0110349Y0018499D01*
X0110335Y0018651D01*
X0110325Y0018804D01*
X0110319Y0018958D01*
X0110317Y0019111D01*
D11*
X0116223Y0019111D03*
X0013861Y0019111D03*
D12*
X0017613Y0104422D03*
X0025487Y0104422D03*
D13*
X0034936Y0124894D03*
X0008164Y0124894D03*
D14*
X0016550Y0089926D03*
X0026550Y0089926D03*
X0104050Y0107426D03*
X0114050Y0107426D03*
D15*
X0108550Y0051206D03*
X0108550Y0047269D03*
X0108550Y0043331D03*
X0108550Y0039394D03*
D16*
X0123019Y0034276D03*
X0123019Y0056324D03*
D17*
X0096856Y0027000D03*
X0092919Y0027000D03*
X0088981Y0027000D03*
X0085044Y0027000D03*
D18*
X0079926Y0012531D03*
X0101974Y0012531D03*
D19*
X0098913Y0037437D02*
X0098913Y0040363D01*
X0098913Y0037437D02*
X0095987Y0037437D01*
X0095987Y0040363D01*
X0098913Y0040363D01*
X0098913Y0038411D02*
X0095987Y0038411D01*
X0095987Y0039385D02*
X0098913Y0039385D01*
X0098913Y0040359D02*
X0095987Y0040359D01*
X0098913Y0043437D02*
X0098913Y0046363D01*
X0098913Y0043437D02*
X0095987Y0043437D01*
X0095987Y0046363D01*
X0098913Y0046363D01*
X0098913Y0044411D02*
X0095987Y0044411D01*
X0095987Y0045385D02*
X0098913Y0045385D01*
X0098913Y0046359D02*
X0095987Y0046359D01*
X0093213Y0046363D02*
X0093213Y0043437D01*
X0090287Y0043437D01*
X0090287Y0046363D01*
X0093213Y0046363D01*
X0093213Y0044411D02*
X0090287Y0044411D01*
X0090287Y0045385D02*
X0093213Y0045385D01*
X0093213Y0046359D02*
X0090287Y0046359D01*
X0093213Y0040363D02*
X0093213Y0037437D01*
X0090287Y0037437D01*
X0090287Y0040363D01*
X0093213Y0040363D01*
X0093213Y0038411D02*
X0090287Y0038411D01*
X0090287Y0039385D02*
X0093213Y0039385D01*
X0093213Y0040359D02*
X0090287Y0040359D01*
X0090591Y0058948D02*
X0090591Y0061874D01*
X0093517Y0061874D01*
X0093517Y0058948D01*
X0090591Y0058948D01*
X0090591Y0059922D02*
X0093517Y0059922D01*
X0093517Y0060896D02*
X0090591Y0060896D01*
X0090591Y0061870D02*
X0093517Y0061870D01*
X0090591Y0064948D02*
X0090591Y0067874D01*
X0093517Y0067874D01*
X0093517Y0064948D01*
X0090591Y0064948D01*
X0090591Y0065922D02*
X0093517Y0065922D01*
X0093517Y0066896D02*
X0090591Y0066896D01*
X0090591Y0067870D02*
X0093517Y0067870D01*
X0084980Y0067874D02*
X0084980Y0064948D01*
X0084980Y0067874D02*
X0087906Y0067874D01*
X0087906Y0064948D01*
X0084980Y0064948D01*
X0084980Y0065922D02*
X0087906Y0065922D01*
X0087906Y0066896D02*
X0084980Y0066896D01*
X0084980Y0067870D02*
X0087906Y0067870D01*
X0084113Y0071137D02*
X0081187Y0071137D01*
X0081187Y0074063D01*
X0084113Y0074063D01*
X0084113Y0071137D01*
X0084113Y0072111D02*
X0081187Y0072111D01*
X0081187Y0073085D02*
X0084113Y0073085D01*
X0084113Y0074059D02*
X0081187Y0074059D01*
X0080587Y0077037D02*
X0080587Y0079963D01*
X0083513Y0079963D01*
X0083513Y0077037D01*
X0080587Y0077037D01*
X0080587Y0078011D02*
X0083513Y0078011D01*
X0083513Y0078985D02*
X0080587Y0078985D01*
X0080587Y0079959D02*
X0083513Y0079959D01*
X0080587Y0083037D02*
X0080587Y0085963D01*
X0083513Y0085963D01*
X0083513Y0083037D01*
X0080587Y0083037D01*
X0080587Y0084011D02*
X0083513Y0084011D01*
X0083513Y0084985D02*
X0080587Y0084985D01*
X0080587Y0085959D02*
X0083513Y0085959D01*
X0081087Y0091437D02*
X0081087Y0094363D01*
X0084013Y0094363D01*
X0084013Y0091437D01*
X0081087Y0091437D01*
X0081087Y0092411D02*
X0084013Y0092411D01*
X0084013Y0093385D02*
X0081087Y0093385D01*
X0081087Y0094359D02*
X0084013Y0094359D01*
X0081087Y0097437D02*
X0081087Y0100363D01*
X0084013Y0100363D01*
X0084013Y0097437D01*
X0081087Y0097437D01*
X0081087Y0098411D02*
X0084013Y0098411D01*
X0084013Y0099385D02*
X0081087Y0099385D01*
X0081087Y0100359D02*
X0084013Y0100359D01*
X0086887Y0100463D02*
X0086887Y0097537D01*
X0086887Y0100463D02*
X0089813Y0100463D01*
X0089813Y0097537D01*
X0086887Y0097537D01*
X0086887Y0098511D02*
X0089813Y0098511D01*
X0089813Y0099485D02*
X0086887Y0099485D01*
X0086887Y0100459D02*
X0089813Y0100459D01*
X0094687Y0100663D02*
X0094687Y0097737D01*
X0094687Y0100663D02*
X0097613Y0100663D01*
X0097613Y0097737D01*
X0094687Y0097737D01*
X0094687Y0098711D02*
X0097613Y0098711D01*
X0097613Y0099685D02*
X0094687Y0099685D01*
X0094687Y0100659D02*
X0097613Y0100659D01*
X0094687Y0094663D02*
X0094687Y0091737D01*
X0094687Y0094663D02*
X0097613Y0094663D01*
X0097613Y0091737D01*
X0094687Y0091737D01*
X0094687Y0092711D02*
X0097613Y0092711D01*
X0097613Y0093685D02*
X0094687Y0093685D01*
X0094687Y0094659D02*
X0097613Y0094659D01*
X0086887Y0094463D02*
X0086887Y0091537D01*
X0086887Y0094463D02*
X0089813Y0094463D01*
X0089813Y0091537D01*
X0086887Y0091537D01*
X0086887Y0092511D02*
X0089813Y0092511D01*
X0089813Y0093485D02*
X0086887Y0093485D01*
X0086887Y0094459D02*
X0089813Y0094459D01*
X0075487Y0094163D02*
X0075487Y0091237D01*
X0075487Y0094163D02*
X0078413Y0094163D01*
X0078413Y0091237D01*
X0075487Y0091237D01*
X0075487Y0092211D02*
X0078413Y0092211D01*
X0078413Y0093185D02*
X0075487Y0093185D01*
X0075487Y0094159D02*
X0078413Y0094159D01*
X0075487Y0097237D02*
X0075487Y0100163D01*
X0078413Y0100163D01*
X0078413Y0097237D01*
X0075487Y0097237D01*
X0075487Y0098211D02*
X0078413Y0098211D01*
X0078413Y0099185D02*
X0075487Y0099185D01*
X0075487Y0100159D02*
X0078413Y0100159D01*
X0078113Y0071137D02*
X0075187Y0071137D01*
X0075187Y0074063D01*
X0078113Y0074063D01*
X0078113Y0071137D01*
X0078113Y0072111D02*
X0075187Y0072111D01*
X0075187Y0073085D02*
X0078113Y0073085D01*
X0078113Y0074059D02*
X0075187Y0074059D01*
X0068813Y0070263D02*
X0068813Y0067337D01*
X0065887Y0067337D01*
X0065887Y0070263D01*
X0068813Y0070263D01*
X0068813Y0068311D02*
X0065887Y0068311D01*
X0065887Y0069285D02*
X0068813Y0069285D01*
X0068813Y0070259D02*
X0065887Y0070259D01*
X0068813Y0064263D02*
X0068813Y0061337D01*
X0065887Y0061337D01*
X0065887Y0064263D01*
X0068813Y0064263D01*
X0068813Y0062311D02*
X0065887Y0062311D01*
X0065887Y0063285D02*
X0068813Y0063285D01*
X0068813Y0064259D02*
X0065887Y0064259D01*
X0063013Y0064263D02*
X0060087Y0064263D01*
X0063013Y0064263D02*
X0063013Y0061337D01*
X0060087Y0061337D01*
X0060087Y0064263D01*
X0060087Y0062311D02*
X0063013Y0062311D01*
X0063013Y0063285D02*
X0060087Y0063285D01*
X0060087Y0064259D02*
X0063013Y0064259D01*
X0057013Y0064263D02*
X0054087Y0064263D01*
X0057013Y0064263D02*
X0057013Y0061337D01*
X0054087Y0061337D01*
X0054087Y0064263D01*
X0054087Y0062311D02*
X0057013Y0062311D01*
X0057013Y0063285D02*
X0054087Y0063285D01*
X0054087Y0064259D02*
X0057013Y0064259D01*
X0055987Y0040963D02*
X0058913Y0040963D01*
X0058913Y0038037D01*
X0055987Y0038037D01*
X0055987Y0040963D01*
X0055987Y0039011D02*
X0058913Y0039011D01*
X0058913Y0039985D02*
X0055987Y0039985D01*
X0055987Y0040959D02*
X0058913Y0040959D01*
X0061987Y0040963D02*
X0064913Y0040963D01*
X0064913Y0038037D01*
X0061987Y0038037D01*
X0061987Y0040963D01*
X0061987Y0039011D02*
X0064913Y0039011D01*
X0064913Y0039985D02*
X0061987Y0039985D01*
X0061987Y0040959D02*
X0064913Y0040959D01*
X0084980Y0058948D02*
X0084980Y0061874D01*
X0087906Y0061874D01*
X0087906Y0058948D01*
X0084980Y0058948D01*
X0084980Y0059922D02*
X0087906Y0059922D01*
X0087906Y0060896D02*
X0084980Y0060896D01*
X0084980Y0061870D02*
X0087906Y0061870D01*
X0103587Y0061337D02*
X0106513Y0061337D01*
X0103587Y0061337D02*
X0103587Y0064263D01*
X0106513Y0064263D01*
X0106513Y0061337D01*
X0106513Y0062311D02*
X0103587Y0062311D01*
X0103587Y0063285D02*
X0106513Y0063285D01*
X0106513Y0064259D02*
X0103587Y0064259D01*
X0103487Y0067137D02*
X0106413Y0067137D01*
X0103487Y0067137D02*
X0103487Y0070063D01*
X0106413Y0070063D01*
X0106413Y0067137D01*
X0106413Y0068111D02*
X0103487Y0068111D01*
X0103487Y0069085D02*
X0106413Y0069085D01*
X0106413Y0070059D02*
X0103487Y0070059D01*
X0109487Y0067137D02*
X0112413Y0067137D01*
X0109487Y0067137D02*
X0109487Y0070063D01*
X0112413Y0070063D01*
X0112413Y0067137D01*
X0112413Y0068111D02*
X0109487Y0068111D01*
X0109487Y0069085D02*
X0112413Y0069085D01*
X0112413Y0070059D02*
X0109487Y0070059D01*
X0109587Y0061337D02*
X0112513Y0061337D01*
X0109587Y0061337D02*
X0109587Y0064263D01*
X0112513Y0064263D01*
X0112513Y0061337D01*
X0112513Y0062311D02*
X0109587Y0062311D01*
X0109587Y0063285D02*
X0112513Y0063285D01*
X0112513Y0064259D02*
X0109587Y0064259D01*
X0108987Y0093263D02*
X0111913Y0093263D01*
X0111913Y0090337D01*
X0108987Y0090337D01*
X0108987Y0093263D01*
X0108987Y0091311D02*
X0111913Y0091311D01*
X0111913Y0092285D02*
X0108987Y0092285D01*
X0108987Y0093259D02*
X0111913Y0093259D01*
X0114987Y0093263D02*
X0117913Y0093263D01*
X0117913Y0090337D01*
X0114987Y0090337D01*
X0114987Y0093263D01*
X0114987Y0091311D02*
X0117913Y0091311D01*
X0117913Y0092285D02*
X0114987Y0092285D01*
X0114987Y0093259D02*
X0117913Y0093259D01*
X0049913Y0095563D02*
X0046987Y0095563D01*
X0049913Y0095563D02*
X0049913Y0092637D01*
X0046987Y0092637D01*
X0046987Y0095563D01*
X0046987Y0093611D02*
X0049913Y0093611D01*
X0049913Y0094585D02*
X0046987Y0094585D01*
X0046987Y0095559D02*
X0049913Y0095559D01*
X0049913Y0098437D02*
X0046987Y0098437D01*
X0046987Y0101363D01*
X0049913Y0101363D01*
X0049913Y0098437D01*
X0049913Y0099411D02*
X0046987Y0099411D01*
X0046987Y0100385D02*
X0049913Y0100385D01*
X0049913Y0101359D02*
X0046987Y0101359D01*
X0043913Y0098437D02*
X0040987Y0098437D01*
X0040987Y0101363D01*
X0043913Y0101363D01*
X0043913Y0098437D01*
X0043913Y0099411D02*
X0040987Y0099411D01*
X0040987Y0100385D02*
X0043913Y0100385D01*
X0043913Y0101359D02*
X0040987Y0101359D01*
X0040987Y0095563D02*
X0043913Y0095563D01*
X0043913Y0092637D01*
X0040987Y0092637D01*
X0040987Y0095563D01*
X0040987Y0093611D02*
X0043913Y0093611D01*
X0043913Y0094585D02*
X0040987Y0094585D01*
X0040987Y0095559D02*
X0043913Y0095559D01*
X0034513Y0076663D02*
X0034513Y0073737D01*
X0031587Y0073737D01*
X0031587Y0076663D01*
X0034513Y0076663D01*
X0034513Y0074711D02*
X0031587Y0074711D01*
X0031587Y0075685D02*
X0034513Y0075685D01*
X0034513Y0076659D02*
X0031587Y0076659D01*
X0025687Y0076663D02*
X0025687Y0073737D01*
X0025687Y0076663D02*
X0028613Y0076663D01*
X0028613Y0073737D01*
X0025687Y0073737D01*
X0025687Y0074711D02*
X0028613Y0074711D01*
X0028613Y0075685D02*
X0025687Y0075685D01*
X0025687Y0076659D02*
X0028613Y0076659D01*
X0025687Y0070663D02*
X0025687Y0067737D01*
X0025687Y0070663D02*
X0028613Y0070663D01*
X0028613Y0067737D01*
X0025687Y0067737D01*
X0025687Y0068711D02*
X0028613Y0068711D01*
X0028613Y0069685D02*
X0025687Y0069685D01*
X0025687Y0070659D02*
X0028613Y0070659D01*
X0034513Y0070663D02*
X0034513Y0067737D01*
X0031587Y0067737D01*
X0031587Y0070663D01*
X0034513Y0070663D01*
X0034513Y0068711D02*
X0031587Y0068711D01*
X0031587Y0069685D02*
X0034513Y0069685D01*
X0034513Y0070659D02*
X0031587Y0070659D01*
X0022713Y0070937D02*
X0019787Y0070937D01*
X0019787Y0073863D01*
X0022713Y0073863D01*
X0022713Y0070937D01*
X0022713Y0071911D02*
X0019787Y0071911D01*
X0019787Y0072885D02*
X0022713Y0072885D01*
X0022713Y0073859D02*
X0019787Y0073859D01*
X0016713Y0070937D02*
X0013787Y0070937D01*
X0013787Y0073863D01*
X0016713Y0073863D01*
X0016713Y0070937D01*
X0016713Y0071911D02*
X0013787Y0071911D01*
X0013787Y0072885D02*
X0016713Y0072885D01*
X0016713Y0073859D02*
X0013787Y0073859D01*
X0013787Y0068163D02*
X0016713Y0068163D01*
X0016713Y0065237D01*
X0013787Y0065237D01*
X0013787Y0068163D01*
X0013787Y0066211D02*
X0016713Y0066211D01*
X0016713Y0067185D02*
X0013787Y0067185D01*
X0013787Y0068159D02*
X0016713Y0068159D01*
X0019787Y0068163D02*
X0022713Y0068163D01*
X0022713Y0065237D01*
X0019787Y0065237D01*
X0019787Y0068163D01*
X0019787Y0066211D02*
X0022713Y0066211D01*
X0022713Y0067185D02*
X0019787Y0067185D01*
X0019787Y0068159D02*
X0022713Y0068159D01*
D20*
X0089543Y0075847D03*
X0089543Y0077816D03*
X0089543Y0079784D03*
X0089543Y0081753D03*
X0101157Y0081753D03*
X0101157Y0079784D03*
X0101157Y0077816D03*
X0101157Y0075847D03*
D21*
X0098303Y0072993D03*
X0096334Y0072993D03*
X0094366Y0072993D03*
X0092397Y0072993D03*
X0092397Y0084607D03*
X0094366Y0084607D03*
X0096334Y0084607D03*
X0098303Y0084607D03*
D22*
X0095350Y0078800D03*
D23*
X0069450Y0095400D03*
X0059450Y0095400D03*
D24*
X0062350Y0106878D03*
X0072193Y0106878D03*
X0052507Y0106878D03*
X0052507Y0129122D03*
X0062350Y0129122D03*
X0072193Y0129122D03*
D25*
X0068256Y0118000D03*
X0056444Y0118000D03*
D26*
X0115275Y0070125D02*
X0117825Y0070125D01*
X0117825Y0067075D01*
X0115275Y0067075D01*
X0115275Y0070125D01*
X0115275Y0067924D02*
X0117825Y0067924D01*
X0117825Y0068773D02*
X0115275Y0068773D01*
X0115275Y0069622D02*
X0117825Y0069622D01*
X0121275Y0070125D02*
X0123825Y0070125D01*
X0123825Y0067075D01*
X0121275Y0067075D01*
X0121275Y0070125D01*
X0121275Y0067924D02*
X0123825Y0067924D01*
X0123825Y0068773D02*
X0121275Y0068773D01*
X0121275Y0069622D02*
X0123825Y0069622D01*
X0123825Y0064325D02*
X0121275Y0064325D01*
X0123825Y0064325D02*
X0123825Y0061275D01*
X0121275Y0061275D01*
X0121275Y0064325D01*
X0121275Y0062124D02*
X0123825Y0062124D01*
X0123825Y0062973D02*
X0121275Y0062973D01*
X0121275Y0063822D02*
X0123825Y0063822D01*
X0117825Y0064325D02*
X0115275Y0064325D01*
X0117825Y0064325D02*
X0117825Y0061275D01*
X0115275Y0061275D01*
X0115275Y0064325D01*
X0115275Y0062124D02*
X0117825Y0062124D01*
X0117825Y0062973D02*
X0115275Y0062973D01*
X0115275Y0063822D02*
X0117825Y0063822D01*
D27*
X0109150Y0076750D02*
X0109150Y0080050D01*
X0113950Y0080050D01*
X0113950Y0076750D01*
X0109150Y0076750D01*
X0109150Y0077849D02*
X0113950Y0077849D01*
X0113950Y0078948D02*
X0109150Y0078948D01*
X0109150Y0080047D02*
X0113950Y0080047D01*
X0109150Y0083750D02*
X0109150Y0087050D01*
X0113950Y0087050D01*
X0113950Y0083750D01*
X0109150Y0083750D01*
X0109150Y0084849D02*
X0113950Y0084849D01*
X0113950Y0085948D02*
X0109150Y0085948D01*
X0109150Y0087047D02*
X0113950Y0087047D01*
X0114500Y0100900D02*
X0117800Y0100900D01*
X0117800Y0096100D01*
X0114500Y0096100D01*
X0114500Y0100900D01*
X0114500Y0097199D02*
X0117800Y0097199D01*
X0117800Y0098298D02*
X0114500Y0098298D01*
X0114500Y0099397D02*
X0117800Y0099397D01*
X0117800Y0100496D02*
X0114500Y0100496D01*
X0110800Y0100900D02*
X0107500Y0100900D01*
X0110800Y0100900D02*
X0110800Y0096100D01*
X0107500Y0096100D01*
X0107500Y0100900D01*
X0107500Y0097199D02*
X0110800Y0097199D01*
X0110800Y0098298D02*
X0107500Y0098298D01*
X0107500Y0099397D02*
X0110800Y0099397D01*
X0110800Y0100496D02*
X0107500Y0100496D01*
X0059350Y0054850D02*
X0059350Y0051550D01*
X0054550Y0051550D01*
X0054550Y0054850D01*
X0059350Y0054850D01*
X0059350Y0052649D02*
X0054550Y0052649D01*
X0054550Y0053748D02*
X0059350Y0053748D01*
X0059350Y0054847D02*
X0054550Y0054847D01*
X0051750Y0054850D02*
X0051750Y0051550D01*
X0046950Y0051550D01*
X0046950Y0054850D01*
X0051750Y0054850D01*
X0051750Y0052649D02*
X0046950Y0052649D01*
X0046950Y0053748D02*
X0051750Y0053748D01*
X0051750Y0054847D02*
X0046950Y0054847D01*
X0051750Y0047850D02*
X0051750Y0044550D01*
X0046950Y0044550D01*
X0046950Y0047850D01*
X0051750Y0047850D01*
X0051750Y0045649D02*
X0046950Y0045649D01*
X0046950Y0046748D02*
X0051750Y0046748D01*
X0051750Y0047847D02*
X0046950Y0047847D01*
X0059350Y0047850D02*
X0059350Y0044550D01*
X0054550Y0044550D01*
X0054550Y0047850D01*
X0059350Y0047850D01*
X0059350Y0045649D02*
X0054550Y0045649D01*
X0054550Y0046748D02*
X0059350Y0046748D01*
X0059350Y0047847D02*
X0054550Y0047847D01*
X0018100Y0049600D02*
X0014800Y0049600D01*
X0014800Y0054400D01*
X0018100Y0054400D01*
X0018100Y0049600D01*
X0018100Y0050699D02*
X0014800Y0050699D01*
X0014800Y0051798D02*
X0018100Y0051798D01*
X0018100Y0052897D02*
X0014800Y0052897D01*
X0014800Y0053996D02*
X0018100Y0053996D01*
X0018100Y0057200D02*
X0014800Y0057200D01*
X0014800Y0062000D01*
X0018100Y0062000D01*
X0018100Y0057200D01*
X0018100Y0058299D02*
X0014800Y0058299D01*
X0014800Y0059398D02*
X0018100Y0059398D01*
X0018100Y0060497D02*
X0014800Y0060497D01*
X0014800Y0061596D02*
X0018100Y0061596D01*
X0011100Y0057200D02*
X0007800Y0057200D01*
X0007800Y0062000D01*
X0011100Y0062000D01*
X0011100Y0057200D01*
X0011100Y0058299D02*
X0007800Y0058299D01*
X0007800Y0059398D02*
X0011100Y0059398D01*
X0011100Y0060497D02*
X0007800Y0060497D01*
X0007800Y0061596D02*
X0011100Y0061596D01*
X0011100Y0049600D02*
X0007800Y0049600D01*
X0007800Y0054400D01*
X0011100Y0054400D01*
X0011100Y0049600D01*
X0011100Y0050699D02*
X0007800Y0050699D01*
X0007800Y0051798D02*
X0011100Y0051798D01*
X0011100Y0052897D02*
X0007800Y0052897D01*
X0007800Y0053996D02*
X0011100Y0053996D01*
X0011000Y0041900D02*
X0007700Y0041900D01*
X0007700Y0046700D01*
X0011000Y0046700D01*
X0011000Y0041900D01*
X0011000Y0042999D02*
X0007700Y0042999D01*
X0007700Y0044098D02*
X0011000Y0044098D01*
X0011000Y0045197D02*
X0007700Y0045197D01*
X0007700Y0046296D02*
X0011000Y0046296D01*
X0014700Y0041900D02*
X0018000Y0041900D01*
X0014700Y0041900D02*
X0014700Y0046700D01*
X0018000Y0046700D01*
X0018000Y0041900D01*
X0018000Y0042999D02*
X0014700Y0042999D01*
X0014700Y0044098D02*
X0018000Y0044098D01*
X0018000Y0045197D02*
X0014700Y0045197D01*
X0014700Y0046296D02*
X0018000Y0046296D01*
D28*
X0033138Y0055787D03*
D29*
X0028335Y0055787D02*
X0026917Y0055787D01*
X0028335Y0055787D02*
X0028335Y0055787D01*
X0026917Y0055787D01*
X0026917Y0055787D01*
X0026917Y0057755D02*
X0028335Y0057755D01*
X0028335Y0057755D01*
X0026917Y0057755D01*
X0026917Y0057755D01*
X0026917Y0059724D02*
X0028335Y0059724D01*
X0028335Y0059724D01*
X0026917Y0059724D01*
X0026917Y0059724D01*
X0026917Y0061692D02*
X0028335Y0061692D01*
X0026917Y0061692D02*
X0026917Y0061692D01*
X0028335Y0061692D01*
X0028335Y0061692D01*
X0028335Y0053818D02*
X0026917Y0053818D01*
X0028335Y0053818D02*
X0028335Y0053818D01*
X0026917Y0053818D01*
X0026917Y0053818D01*
X0026917Y0051850D02*
X0028335Y0051850D01*
X0028335Y0051850D01*
X0026917Y0051850D01*
X0026917Y0051850D01*
X0026917Y0049881D02*
X0028335Y0049881D01*
X0026917Y0049881D02*
X0026917Y0049881D01*
X0028335Y0049881D01*
X0028335Y0049881D01*
X0037941Y0049881D02*
X0039359Y0049881D01*
X0037941Y0049881D02*
X0037941Y0049881D01*
X0039359Y0049881D01*
X0039359Y0049881D01*
X0039359Y0051850D02*
X0037941Y0051850D01*
X0039359Y0051850D02*
X0039359Y0051850D01*
X0037941Y0051850D01*
X0037941Y0051850D01*
X0037941Y0053818D02*
X0039359Y0053818D01*
X0039359Y0053818D01*
X0037941Y0053818D01*
X0037941Y0053818D01*
X0037941Y0055787D02*
X0039359Y0055787D01*
X0039359Y0055787D01*
X0037941Y0055787D01*
X0037941Y0055787D01*
X0037941Y0057755D02*
X0039359Y0057755D01*
X0039359Y0057755D01*
X0037941Y0057755D01*
X0037941Y0057755D01*
X0037941Y0059724D02*
X0039359Y0059724D01*
X0039359Y0059724D01*
X0037941Y0059724D01*
X0037941Y0059724D01*
X0037941Y0061692D02*
X0039359Y0061692D01*
X0037941Y0061692D02*
X0037941Y0061692D01*
X0039359Y0061692D01*
X0039359Y0061692D01*
D30*
X0035855Y0062873D03*
X0034044Y0062873D03*
X0032233Y0062873D03*
X0030422Y0062873D03*
X0030422Y0048700D03*
X0032233Y0048700D03*
X0034044Y0048700D03*
X0035855Y0048700D03*
D31*
X0041650Y0035500D03*
X0024327Y0035500D03*
D32*
X0031450Y0013000D03*
D33*
X0041450Y0013000D03*
X0051450Y0013000D03*
X0061450Y0013000D03*
X0071450Y0013000D03*
D34*
X0103150Y0119750D02*
X0104950Y0119750D01*
X0104950Y0114250D01*
X0103150Y0114250D01*
X0103150Y0119750D01*
X0103150Y0114449D02*
X0104950Y0114449D01*
X0104950Y0114648D02*
X0103150Y0114648D01*
X0103150Y0114847D02*
X0104950Y0114847D01*
X0104950Y0115046D02*
X0103150Y0115046D01*
X0103150Y0115245D02*
X0104950Y0115245D01*
X0104950Y0115444D02*
X0103150Y0115444D01*
X0103150Y0115643D02*
X0104950Y0115643D01*
X0104950Y0115842D02*
X0103150Y0115842D01*
X0103150Y0116041D02*
X0104950Y0116041D01*
X0104950Y0116240D02*
X0103150Y0116240D01*
X0103150Y0116439D02*
X0104950Y0116439D01*
X0104950Y0116638D02*
X0103150Y0116638D01*
X0103150Y0116837D02*
X0104950Y0116837D01*
X0104950Y0117036D02*
X0103150Y0117036D01*
X0103150Y0117235D02*
X0104950Y0117235D01*
X0104950Y0117434D02*
X0103150Y0117434D01*
X0103150Y0117633D02*
X0104950Y0117633D01*
X0104950Y0117832D02*
X0103150Y0117832D01*
X0103150Y0118031D02*
X0104950Y0118031D01*
X0104950Y0118230D02*
X0103150Y0118230D01*
X0103150Y0118429D02*
X0104950Y0118429D01*
X0104950Y0118628D02*
X0103150Y0118628D01*
X0103150Y0118827D02*
X0104950Y0118827D01*
X0104950Y0119026D02*
X0103150Y0119026D01*
X0103150Y0119225D02*
X0104950Y0119225D01*
X0104950Y0119424D02*
X0103150Y0119424D01*
X0103150Y0119623D02*
X0104950Y0119623D01*
X0105750Y0119750D02*
X0107550Y0119750D01*
X0107550Y0114250D01*
X0105750Y0114250D01*
X0105750Y0119750D01*
X0105750Y0114449D02*
X0107550Y0114449D01*
X0107550Y0114648D02*
X0105750Y0114648D01*
X0105750Y0114847D02*
X0107550Y0114847D01*
X0107550Y0115046D02*
X0105750Y0115046D01*
X0105750Y0115245D02*
X0107550Y0115245D01*
X0107550Y0115444D02*
X0105750Y0115444D01*
X0105750Y0115643D02*
X0107550Y0115643D01*
X0107550Y0115842D02*
X0105750Y0115842D01*
X0105750Y0116041D02*
X0107550Y0116041D01*
X0107550Y0116240D02*
X0105750Y0116240D01*
X0105750Y0116439D02*
X0107550Y0116439D01*
X0107550Y0116638D02*
X0105750Y0116638D01*
X0105750Y0116837D02*
X0107550Y0116837D01*
X0107550Y0117036D02*
X0105750Y0117036D01*
X0105750Y0117235D02*
X0107550Y0117235D01*
X0107550Y0117434D02*
X0105750Y0117434D01*
X0105750Y0117633D02*
X0107550Y0117633D01*
X0107550Y0117832D02*
X0105750Y0117832D01*
X0105750Y0118031D02*
X0107550Y0118031D01*
X0107550Y0118230D02*
X0105750Y0118230D01*
X0105750Y0118429D02*
X0107550Y0118429D01*
X0107550Y0118628D02*
X0105750Y0118628D01*
X0105750Y0118827D02*
X0107550Y0118827D01*
X0107550Y0119026D02*
X0105750Y0119026D01*
X0105750Y0119225D02*
X0107550Y0119225D01*
X0107550Y0119424D02*
X0105750Y0119424D01*
X0105750Y0119623D02*
X0107550Y0119623D01*
X0108350Y0119750D02*
X0110150Y0119750D01*
X0110150Y0114250D01*
X0108350Y0114250D01*
X0108350Y0119750D01*
X0108350Y0114449D02*
X0110150Y0114449D01*
X0110150Y0114648D02*
X0108350Y0114648D01*
X0108350Y0114847D02*
X0110150Y0114847D01*
X0110150Y0115046D02*
X0108350Y0115046D01*
X0108350Y0115245D02*
X0110150Y0115245D01*
X0110150Y0115444D02*
X0108350Y0115444D01*
X0108350Y0115643D02*
X0110150Y0115643D01*
X0110150Y0115842D02*
X0108350Y0115842D01*
X0108350Y0116041D02*
X0110150Y0116041D01*
X0110150Y0116240D02*
X0108350Y0116240D01*
X0108350Y0116439D02*
X0110150Y0116439D01*
X0110150Y0116638D02*
X0108350Y0116638D01*
X0108350Y0116837D02*
X0110150Y0116837D01*
X0110150Y0117036D02*
X0108350Y0117036D01*
X0108350Y0117235D02*
X0110150Y0117235D01*
X0110150Y0117434D02*
X0108350Y0117434D01*
X0108350Y0117633D02*
X0110150Y0117633D01*
X0110150Y0117832D02*
X0108350Y0117832D01*
X0108350Y0118031D02*
X0110150Y0118031D01*
X0110150Y0118230D02*
X0108350Y0118230D01*
X0108350Y0118429D02*
X0110150Y0118429D01*
X0110150Y0118628D02*
X0108350Y0118628D01*
X0108350Y0118827D02*
X0110150Y0118827D01*
X0110150Y0119026D02*
X0108350Y0119026D01*
X0108350Y0119225D02*
X0110150Y0119225D01*
X0110150Y0119424D02*
X0108350Y0119424D01*
X0108350Y0119623D02*
X0110150Y0119623D01*
X0110950Y0119750D02*
X0112750Y0119750D01*
X0112750Y0114250D01*
X0110950Y0114250D01*
X0110950Y0119750D01*
X0110950Y0114449D02*
X0112750Y0114449D01*
X0112750Y0114648D02*
X0110950Y0114648D01*
X0110950Y0114847D02*
X0112750Y0114847D01*
X0112750Y0115046D02*
X0110950Y0115046D01*
X0110950Y0115245D02*
X0112750Y0115245D01*
X0112750Y0115444D02*
X0110950Y0115444D01*
X0110950Y0115643D02*
X0112750Y0115643D01*
X0112750Y0115842D02*
X0110950Y0115842D01*
X0110950Y0116041D02*
X0112750Y0116041D01*
X0112750Y0116240D02*
X0110950Y0116240D01*
X0110950Y0116439D02*
X0112750Y0116439D01*
X0112750Y0116638D02*
X0110950Y0116638D01*
X0110950Y0116837D02*
X0112750Y0116837D01*
X0112750Y0117036D02*
X0110950Y0117036D01*
X0110950Y0117235D02*
X0112750Y0117235D01*
X0112750Y0117434D02*
X0110950Y0117434D01*
X0110950Y0117633D02*
X0112750Y0117633D01*
X0112750Y0117832D02*
X0110950Y0117832D01*
X0110950Y0118031D02*
X0112750Y0118031D01*
X0112750Y0118230D02*
X0110950Y0118230D01*
X0110950Y0118429D02*
X0112750Y0118429D01*
X0112750Y0118628D02*
X0110950Y0118628D01*
X0110950Y0118827D02*
X0112750Y0118827D01*
X0112750Y0119026D02*
X0110950Y0119026D01*
X0110950Y0119225D02*
X0112750Y0119225D01*
X0112750Y0119424D02*
X0110950Y0119424D01*
X0110950Y0119623D02*
X0112750Y0119623D01*
X0113550Y0119750D02*
X0115350Y0119750D01*
X0115350Y0114250D01*
X0113550Y0114250D01*
X0113550Y0119750D01*
X0113550Y0114449D02*
X0115350Y0114449D01*
X0115350Y0114648D02*
X0113550Y0114648D01*
X0113550Y0114847D02*
X0115350Y0114847D01*
X0115350Y0115046D02*
X0113550Y0115046D01*
X0113550Y0115245D02*
X0115350Y0115245D01*
X0115350Y0115444D02*
X0113550Y0115444D01*
X0113550Y0115643D02*
X0115350Y0115643D01*
X0115350Y0115842D02*
X0113550Y0115842D01*
X0113550Y0116041D02*
X0115350Y0116041D01*
X0115350Y0116240D02*
X0113550Y0116240D01*
X0113550Y0116439D02*
X0115350Y0116439D01*
X0115350Y0116638D02*
X0113550Y0116638D01*
X0113550Y0116837D02*
X0115350Y0116837D01*
X0115350Y0117036D02*
X0113550Y0117036D01*
X0113550Y0117235D02*
X0115350Y0117235D01*
X0115350Y0117434D02*
X0113550Y0117434D01*
X0113550Y0117633D02*
X0115350Y0117633D01*
X0115350Y0117832D02*
X0113550Y0117832D01*
X0113550Y0118031D02*
X0115350Y0118031D01*
X0115350Y0118230D02*
X0113550Y0118230D01*
X0113550Y0118429D02*
X0115350Y0118429D01*
X0115350Y0118628D02*
X0113550Y0118628D01*
X0113550Y0118827D02*
X0115350Y0118827D01*
X0115350Y0119026D02*
X0113550Y0119026D01*
X0113550Y0119225D02*
X0115350Y0119225D01*
X0115350Y0119424D02*
X0113550Y0119424D01*
X0113550Y0119623D02*
X0115350Y0119623D01*
D35*
X0116130Y0130480D02*
X0110370Y0130480D01*
X0116130Y0130480D02*
X0116130Y0124720D01*
X0110370Y0124720D01*
X0110370Y0130480D01*
X0110370Y0125359D02*
X0116130Y0125359D01*
X0116130Y0125998D02*
X0110370Y0125998D01*
X0110370Y0126637D02*
X0116130Y0126637D01*
X0116130Y0127276D02*
X0110370Y0127276D01*
X0110370Y0127915D02*
X0116130Y0127915D01*
X0116130Y0128554D02*
X0110370Y0128554D01*
X0110370Y0129193D02*
X0116130Y0129193D01*
X0116130Y0129832D02*
X0110370Y0129832D01*
X0110370Y0130471D02*
X0116130Y0130471D01*
X0108130Y0130480D02*
X0102370Y0130480D01*
X0108130Y0130480D02*
X0108130Y0124720D01*
X0102370Y0124720D01*
X0102370Y0130480D01*
X0102370Y0125359D02*
X0108130Y0125359D01*
X0108130Y0125998D02*
X0102370Y0125998D01*
X0102370Y0126637D02*
X0108130Y0126637D01*
X0108130Y0127276D02*
X0102370Y0127276D01*
X0102370Y0127915D02*
X0108130Y0127915D01*
X0108130Y0128554D02*
X0102370Y0128554D01*
X0102370Y0129193D02*
X0108130Y0129193D01*
X0108130Y0129832D02*
X0102370Y0129832D01*
X0102370Y0130471D02*
X0108130Y0130471D01*
D36*
X0099950Y0117000D03*
X0099550Y0117000D03*
X0098950Y0117000D03*
X0118550Y0117000D03*
X0119050Y0117000D03*
X0119550Y0117000D03*
D37*
X0123050Y0126600D03*
X0123050Y0127700D03*
X0123050Y0128600D03*
X0095450Y0128600D03*
X0095450Y0127600D03*
X0095450Y0126600D03*
D38*
X0055150Y0083531D03*
X0055150Y0074869D03*
D39*
X0054363Y0071424D03*
X0052788Y0071424D03*
X0051213Y0071424D03*
X0055937Y0071424D03*
X0057512Y0071424D03*
X0059087Y0071424D03*
X0059087Y0086976D03*
X0057512Y0086976D03*
X0055937Y0086976D03*
X0054363Y0086976D03*
X0052788Y0086976D03*
X0051213Y0086976D03*
D40*
X0055150Y0079200D03*
D41*
X0050622Y0074869D03*
X0050622Y0083531D03*
X0059678Y0083531D03*
X0059678Y0074869D03*
M02*
