%
M48
M72
T01C0.01200
T02C0.01378
T03C0.02756
T04C0.03346
T05C0.03500
T06C0.04000
T07C0.11811
%
T01
X5050Y30300
X5050Y33300
X5050Y36300
X5050Y39300
X12250Y35300
X14150Y33500
X16650Y33600
X15250Y36000
X16550Y38300
X18150Y40600
X18250Y36000
X13250Y37900
X14250Y40300
X31050Y51300
X31050Y54300
X31050Y57300
X31050Y60300
X34050Y60300
X34050Y57300
X34050Y54300
X34050Y51300
X33050Y43300
X32050Y40300
X32050Y37300
X32050Y34300
X44050Y27500
X47550Y29300
X47950Y33700
X51450Y40900
X57050Y35300
X57050Y32300
X57050Y29300
X57050Y26300
X57050Y23300
X56450Y15800
X56550Y9800
X66550Y9900
X66450Y15900
X66050Y24300
X66050Y27300
X66050Y30300
X66050Y33300
X68050Y37300
X71450Y40900
X65650Y46100
X64450Y48500
X64250Y43800
X76050Y34300
X76050Y28300
X86050Y13300
X89050Y13300
X92050Y13300
X95050Y13300
X92919Y32800
X96856Y35200
X104050Y34300
X114650Y38300
X122350Y40900
X122350Y44900
X122350Y48900
X122350Y52900
X118350Y52900
X114350Y52900
X105350Y57900
X102350Y54900
X99350Y51900
X97450Y48500
X93550Y53400
X95850Y55100
X98050Y57200
X96250Y62600
X100050Y68300
X97050Y77300
X94050Y77300
X94050Y80300
X97050Y80300
X88200Y71050
X81850Y62800
X79050Y57700
X75350Y62900
X71950Y62800
X71650Y72200
X71750Y75500
X63050Y75300
X63050Y79300
X63050Y82300
X63050Y85300
X56050Y82300
X56050Y79300
X56050Y75300
X52050Y75300
X52050Y79300
X52050Y82300
X48050Y81200
X48050Y75300
X50250Y67000
X53950Y67400
X61050Y68300
X45650Y65600
X42050Y65100
X36450Y69200
X37450Y73600
X32050Y83300
X28050Y83300
X24050Y83300
X20050Y83300
X16050Y83300
X10050Y82300
X10050Y79300
X7050Y79300
X7050Y76300
X7050Y73300
X7050Y70300
X7050Y67300
X7050Y64300
X10050Y64300
X10050Y67300
X16950Y76500
X10050Y85300
X7050Y85300
X7050Y82300
X27626Y66100
X43450Y58800
X44250Y47800
X79150Y48600
X85050Y48300
X85050Y44300
X91750Y48400
X117050Y76700
X119150Y78400
X116650Y79700
X121650Y79600
X121550Y76700
X120050Y85300
X117050Y85300
X123050Y85300
X124050Y91300
X124050Y95300
X124050Y99300
X124050Y103300
X101050Y102300
X101050Y98300
X101050Y94300
X97050Y111300
X93350Y113900
X90050Y114300
X90050Y111300
X86050Y114300
X90050Y117300
X90050Y120300
X90050Y123300
X90050Y126300
X90050Y129300
X87050Y129300
X84050Y129300
X81050Y129300
X78050Y129300
X74050Y122300
X70050Y122300
X66050Y122300
X62050Y122300
X58050Y122300
X54050Y122300
X50050Y122300
X47050Y129300
X44050Y129300
X41050Y129300
X28050Y125300
X28050Y121300
X28050Y117300
X24050Y125300
X20050Y125300
X16050Y125300
X16050Y121300
X16050Y117300
X38050Y93300
X38050Y90300
X67350Y106900
X68350Y101900
X81050Y104100
X81050Y108100
X85050Y104100
X86050Y119300
X86050Y124300
X74550Y86700
T02
X67250Y72900
X57550Y99300
X56150Y101700
X59150Y101700
X62150Y100200
T03
X95450Y126600
X95450Y127600
X95450Y128600
X98950Y117000
X99550Y117000
X99950Y117000
X118550Y117000
X119050Y117000
X119550Y117000
X123050Y126600
X123050Y127700
X123050Y128600
T04
X68256Y118000
X56444Y118000
T05
X51450Y13000
X41450Y13000
X31450Y13000
X61450Y13000
X71450Y13000
T06
X26550Y89926
X16550Y89926
X104050Y107426
X114050Y107426
T07
X13861Y19111
X116223Y19111
M30
